# Blender 4.4.3
# www.blender.org
o ICO球
v -1.447215 -0.304170 -1.051451
v 0.552776 -0.304171 -1.701298
v 1.788852 -0.304164 -0.000000
v 0.552776 -0.304171 1.701298
v -1.447215 -0.304170 1.051451
v -0.552776 0.666966 -1.701298
v 1.447215 0.666965 -1.051451
v 1.447215 0.666965 1.051451
v -0.552776 0.666966 1.701298
v -1.788852 0.666960 -0.000000
v -0.000000 1.491360 -0.000000
v -0.525738 -0.421269 -1.618023
v -1.701296 -0.421266 -0.000000
v 1.376379 -0.421267 -0.999994
v 1.376379 -0.421267 0.999994
v -0.525738 -0.421269 1.618023
v -1.902116 -0.000000 -0.618025
v -1.902116 -0.000000 0.618025
v -0.000000 -0.000000 -2.000000
v -1.175571 -0.000000 -1.618033
v 1.902116 -0.000000 -0.618025
v 1.175571 -0.000000 -1.618033
v 1.175571 -0.000000 1.618033
v 1.902116 -0.000000 0.618025
v -1.175571 -0.000000 1.618033
v -0.000000 -0.000000 2.000000
v -1.376379 0.784062 -0.999994
v 0.525738 0.784064 -1.618023
v 1.701296 0.784062 -0.000000
v 0.525738 0.784064 1.618023
v -1.376379 0.784062 0.999994
v -0.324911 1.268632 -0.999991
v -1.051460 1.268628 -0.000000
v 0.850645 1.268632 -0.618023
v 0.850645 1.268632 0.618023
v -0.324911 1.268632 0.999991
vn -0.6882 -0.6838 -0.2425
vn 0.0179 -0.6838 -0.7295
vn 0.6993 -0.6838 -0.2084
vn 0.4143 -0.6838 0.6007
vn -0.4433 -0.6838 0.5796
vn -0.7582 -0.3490 -0.5508
vn 0.2896 -0.3490 -0.8913
vn 0.9371 -0.3490 -0.0000
vn 0.2896 -0.3490 0.8913
vn -0.7582 -0.3490 0.5508
vn -0.3520 0.7638 -0.5409
vn 0.4057 0.7638 -0.5019
vn 0.6027 0.7638 0.2307
vn -0.0332 0.7638 0.6445
vn -0.6233 0.7638 0.1676
vn -0.2049 0.9674 0.1489
vn -0.4004 0.8689 0.2909
vn -0.3520 0.7638 0.5409
vn 0.0783 0.9674 0.2409
vn 0.1530 0.8689 0.4707
vn 0.4057 0.7638 0.5019
vn 0.2533 0.9674 -0.0000
vn 0.4950 0.8689 -0.0000
vn 0.6027 0.7638 -0.2307
vn 0.0783 0.9674 -0.2409
vn 0.1530 0.8689 -0.4707
vn -0.0332 0.7638 -0.6445
vn -0.2049 0.9674 -0.1489
vn -0.4004 0.8689 -0.2909
vn -0.6233 0.7638 -0.1676
vn -0.8533 0.4249 0.3022
vn -0.7837 0.2481 0.5694
vn -0.5511 0.4249 0.7181
vn 0.0237 0.4249 0.9049
vn 0.2994 0.2481 0.9213
vn 0.5127 0.4249 0.7460
vn 0.8680 0.4249 0.2571
vn 0.9687 0.2481 -0.0000
vn 0.8680 0.4249 -0.2571
vn 0.5127 0.4249 -0.7460
vn 0.2994 0.2481 -0.9213
vn 0.0237 0.4249 -0.9049
vn -0.5511 0.4249 -0.7181
vn -0.7837 0.2481 -0.5694
vn -0.8533 0.4249 -0.3022
vn -0.3047 0.1674 0.9376
vn -0.2789 -0.4303 0.8585
vn 0.0179 -0.6838 0.7295
vn 0.7976 0.1674 0.5795
vn 0.7303 -0.4303 0.5306
vn 0.6993 -0.6838 0.2084
vn 0.7976 0.1674 -0.5795
vn 0.7303 -0.4303 -0.5306
vn 0.4143 -0.6838 -0.6007
vn -0.3047 0.1674 -0.9376
vn -0.2789 -0.4303 -0.8585
vn -0.4433 -0.6838 -0.5796
vn -0.9859 0.1674 -0.0000
vn -0.9027 -0.4303 -0.0000
vn -0.6882 -0.6838 0.2425
s 0
f 1//1 13//1 17//1
f 2//2 12//2 19//2
f 3//3 14//3 21//3
f 4//4 15//4 23//4
f 5//5 16//5 25//5
f 1//6 17//6 20//6
f 2//7 19//7 22//7
f 3//8 21//8 24//8
f 4//9 23//9 26//9
f 5//10 25//10 18//10
f 6//11 27//11 32//11
f 7//12 28//12 34//12
f 8//13 29//13 35//13
f 9//14 30//14 36//14
f 10//15 31//15 33//15
f 33//16 36//16 11//16
f 33//17 31//17 36//17
f 31//18 9//18 36//18
f 36//19 35//19 11//19
f 36//20 30//20 35//20
f 30//21 8//21 35//21
f 35//22 34//22 11//22
f 35//23 29//23 34//23
f 29//24 7//24 34//24
f 34//25 32//25 11//25
f 34//26 28//26 32//26
f 28//27 6//27 32//27
f 32//28 33//28 11//28
f 32//29 27//29 33//29
f 27//30 10//30 33//30
f 18//31 31//31 10//31
f 18//32 25//32 31//32
f 25//33 9//33 31//33
f 26//34 30//34 9//34
f 26//35 23//35 30//35
f 23//36 8//36 30//36
f 24//37 29//37 8//37
f 24//38 21//38 29//38
f 21//39 7//39 29//39
f 22//40 28//40 7//40
f 22//41 19//41 28//41
f 19//42 6//42 28//42
f 20//43 27//43 6//43
f 20//44 17//44 27//44
f 17//45 10//45 27//45
f 25//46 26//46 9//46
f 25//47 16//47 26//47
f 16//48 4//48 26//48
f 23//49 24//49 8//49
f 23//50 15//50 24//50
f 15//51 3//51 24//51
f 21//52 22//52 7//52
f 21//53 14//53 22//53
f 14//54 2//54 22//54
f 19//55 20//55 6//55
f 19//56 12//56 20//56
f 12//57 1//57 20//57
f 17//58 18//58 10//58
f 17//59 13//59 18//59
f 13//60 5//60 18//60
o 平面
v -0.120062 -4.972349 0.548936
v 0.120062 -4.927096 0.865626
v 0.200000 -0.000000 -0.000000
v -0.200000 -0.000000 -0.000000
v 0.090659 -1.016857 -0.126286
v -0.196330 -1.998307 0.144094
v 0.017321 -2.941035 0.552819
v 0.186803 -3.974707 0.473730
v -0.186803 -3.949087 0.613700
v -0.017321 -3.015177 0.161279
v 0.196330 -1.986219 0.219410
v -0.090659 -0.982429 0.228592
vn -0.5224 -0.0436 -0.8516
vn -0.9607 -0.0453 -0.2738
vn 0.5316 -0.1579 -0.8322
vn 0.6690 0.1301 0.7318
vn -0.8985 0.0573 0.4352
s 0
f 41//61 48//61 40//61 39//61
f 37//62 38//62 45//62 44//62
f 44//63 45//63 46//63 43//63
f 43//64 46//64 47//64 42//64
f 42//65 47//65 48//65 41//65
o 平面.001
v 0.698453 -4.955016 0.902041
v 0.938576 -4.900907 1.217340
v 1.018514 -0.000000 0.213996
v 0.618514 -0.000000 0.213996
v 0.909174 -1.020099 0.098202
v 0.622185 -1.996108 0.394223
v 0.835835 -2.924336 0.835487
v 1.005318 -3.960694 0.794739
v 0.631711 -3.930119 0.933592
v 0.801193 -3.012851 0.446945
v 1.014844 -1.981654 0.469121
v 0.727855 -0.978866 0.452354
vn -0.5223 -0.0522 -0.8512
vn -0.9607 -0.0542 -0.2723
vn 0.5317 -0.1885 -0.8257
vn 0.6689 0.1555 0.7269
vn -0.8985 0.0685 0.4337
s 0
f 53//66 60//66 52//66 51//66
f 49//67 50//67 57//67 56//67
f 56//68 57//68 58//68 55//68
f 55//69 58//69 59//69 54//69
f 54//70 59//70 60//70 53//70
o 平面.002
v -1.037918 -4.355804 2.819787
v -0.797795 -4.189652 3.093162
v -0.717856 -0.000000 0.359593
v -1.117856 -0.000000 0.359593
v -0.827197 -1.059609 0.393821
v -1.114186 -1.899724 1.029510
v -0.900536 -2.543102 1.848530
v -0.731053 -3.492104 2.306162
v -1.104660 -3.402686 2.414896
v -0.935177 -2.802691 1.546183
v -0.721527 -1.855396 1.091588
v -1.008516 -0.926459 0.724569
vn -0.5163 -0.1688 -0.8396
vn -0.9603 -0.1633 -0.2262
vn 0.5339 -0.5500 -0.6423
vn 0.6688 0.4646 0.5803
vn -0.8972 0.2178 0.3843
s 0
f 65//71 72//71 64//71 63//71
f 61//72 62//72 69//72 68//72
f 68//73 69//73 70//73 67//73
f 67//74 70//74 71//74 66//74
f 66//75 71//75 72//75 65//75
o 平面.003
v 0.099369 -4.816656 0.298933
v 0.339492 -4.720452 0.604033
v 0.419431 -0.000000 -1.052142
v 0.019431 -0.000000 -1.052142
v 0.310090 -1.035309 -1.115987
v 0.023101 -1.976356 -0.696398
v 0.236751 -2.820479 -0.105310
v 0.406234 -3.851359 0.038962
v 0.032627 -3.797693 0.170036
v 0.202110 -2.976091 -0.472168
v 0.415760 -1.950648 -0.624581
v 0.128771 -0.961101 -0.767252
vn -0.5210 -0.0939 -0.8484
vn -0.9606 -0.0959 -0.2610
vn 0.5326 -0.3308 -0.7791
vn 0.6689 0.2747 0.6907
vn -0.8982 0.1229 0.4221
s 0
f 77//76 84//76 76//76 75//76
f 73//77 74//77 81//77 80//77
f 80//78 81//78 82//78 79//78
f 79//79 82//79 83//79 78//79
f 78//80 83//80 84//80 77//80
o 平面.004
v -0.024975 -4.673147 2.849815
v 0.215148 -4.549483 3.144853
v 0.295087 -0.000000 1.064520
v -0.104913 -0.000000 1.064520
v 0.185746 -1.045037 1.036997
v -0.101243 -1.953928 1.539430
v 0.112407 -2.728962 2.223487
v 0.281890 -3.739202 2.490241
v -0.091717 -3.671029 2.613995
v 0.077766 -2.926787 1.877561
v 0.291416 -1.920884 1.608181
v 0.004427 -0.948491 1.380221
vn -0.5196 -0.1222 -0.8456
vn -0.9605 -0.1228 -0.2499
vn 0.5331 -0.4200 -0.7345
vn 0.6689 0.3509 0.6554
vn -0.8978 0.1594 0.4105
s 0
f 89//81 96//81 88//81 87//81
f 85//82 86//82 93//82 92//82
f 92//83 93//83 94//83 91//83
f 91//84 94//84 95//84 90//84
f 90//85 95//85 96//85 89//85
o 平面.005
v -0.744595 -4.932367 0.334319
v -0.504472 -4.868907 0.647869
v -0.424534 -0.000000 -0.500752
v -0.824534 -0.000000 -0.500752
v -0.533874 -1.023507 -0.605321
v -0.820863 -1.993084 -0.282119
v -0.607213 -2.904816 0.193133
v -0.437730 -3.942587 0.193114
v -0.811337 -3.906812 0.330593
v -0.641854 -3.008427 -0.191659
v -0.428204 -1.976130 -0.207747
v -0.715193 -0.975047 -0.252086
vn -0.5220 -0.0613 -0.8507
vn -0.9607 -0.0635 -0.2703
vn 0.5319 -0.2205 -0.8176
vn 0.6689 0.1821 0.7207
vn -0.8984 0.0805 0.4317
s 0
f 101//86 108//86 100//86 99//86
f 97//87 98//87 105//87 104//87
f 104//88 105//88 106//88 103//88
f 103//89 106//89 107//89 102//89
f 102//90 107//90 108//90 101//90
o 平面.006
v 0.847684 -4.791453 0.976535
v 1.087807 -4.689751 1.279846
v 1.167746 -0.000000 -0.461367
v 0.767746 -0.000000 -0.461367
v 1.058405 -1.037271 -0.518119
v 0.771416 -1.972532 -0.082111
v 0.985067 -2.803753 0.527912
v 1.154549 -3.831618 0.696619
v 0.780942 -3.775006 0.826372
v 0.950425 -2.967934 0.164808
v 1.164075 -1.945354 -0.010837
v 0.877086 -0.958654 -0.170351
vn -0.5207 -0.0995 -0.8479
vn -0.9605 -0.1013 -0.2590
vn 0.5327 -0.3489 -0.7711
vn 0.6689 0.2901 0.6844
vn -0.8981 0.1302 0.4201
s 0
f 113//91 120//91 112//91 111//91
f 109//92 110//92 117//92 116//92
f 116//93 117//93 118//93 115//93
f 115//94 118//94 119//94 114//94
f 114//95 119//95 120//95 113//95
o 平面.007
v 0.139879 -4.394700 1.918527
v 0.380003 -4.232953 2.194532
v 0.459941 -0.000000 -0.471495
v 0.059941 -0.000000 -0.471495
v 0.350601 -1.058136 -0.444062
v 0.063611 -1.906665 0.177468
v 0.277262 -2.565229 0.983067
v 0.446744 -3.522365 1.420872
v 0.073138 -3.435071 1.531384
v 0.242620 -2.818656 0.675537
v 0.456271 -1.863501 0.240361
v 0.169282 -0.928929 -0.111754
vn -0.5168 -0.1637 -0.8403
vn -0.9603 -0.1592 -0.2291
vn 0.5338 -0.5370 -0.6532
vn 0.6688 0.4531 0.5893
vn -0.8972 0.2116 0.3875
s 0
f 125//96 132//96 124//96 123//96
f 121//97 122//97 129//97 128//97
f 128//98 129//98 130//98 127//98
f 127//99 130//99 131//99 126//99
f 126//100 131//100 132//100 125//100
o 平面.008
v -0.395757 -4.720720 2.108903
v -0.155634 -4.605259 2.407248
v -0.075695 -0.000000 0.453490
v -0.475695 -0.000000 0.453490
v -0.185036 -1.042150 0.414869
v -0.472025 -1.961535 0.892322
v -0.258374 -2.758440 1.549030
v -0.088892 -3.776324 1.779084
v -0.462498 -3.712430 1.905216
v -0.293016 -2.943813 1.196274
v -0.079365 -1.930681 0.962083
v -0.366355 -0.952366 0.759923
vn -0.5200 -0.1137 -0.8465
vn -0.9605 -0.1148 -0.2535
vn 0.5329 -0.3937 -0.7490
vn 0.6689 0.3283 0.6670
vn -0.8979 0.1484 0.4143
s 0
f 137//101 144//101 136//101 135//101
f 133//102 134//102 141//102 140//102
f 140//103 141//103 142//103 139//103
f 139//104 142//104 143//104 138//104
f 138//105 143//105 144//105 137//105
o 平面.009
v -0.687768 -4.944827 -0.373106
v -0.447645 -4.886280 -0.058601
v -0.367707 -0.000000 -1.130912
v -0.767707 -0.000000 -1.130912
v -0.477047 -1.021719 -1.241398
v -0.764036 -1.994764 -0.932491
v -0.550386 -2.915315 -0.475049
v -0.380903 -3.952528 -0.496497
v -0.754510 -3.919481 -0.358271
v -0.585028 -3.011007 -0.861886
v -0.371377 -1.979124 -0.857832
v -0.658366 -0.977062 -0.887662
vn -0.5222 -0.0565 -0.8510
vn -0.9607 -0.0586 -0.2714
vn 0.5318 -0.2037 -0.8220
vn 0.6689 0.1681 0.7241
vn -0.8984 0.0742 0.4328
s 0
f 149//106 156//106 148//106 147//106
f 145//107 146//107 153//107 152//107
f 152//108 153//108 154//108 151//108
f 151//109 154//109 155//109 150//109
f 150//110 155//110 156//110 149//110
o 平面.010
v 0.719852 -5.002330 0.877528
v 0.959975 -4.989050 1.197160
v 1.039913 -0.000000 0.829786
v 0.639913 -0.000000 0.829786
v 0.930573 -1.005004 0.666533
v 0.643584 -2.001114 0.844836
v 0.857234 -2.987211 1.133357
v 1.026717 -4.000502 0.918059
v 0.653110 -3.992948 1.060576
v 0.822593 -3.009041 0.735459
v 1.036243 -1.997568 0.921033
v 0.749254 -0.994937 1.022934
vn -0.5228 -0.0127 -0.8524
vn -0.9608 -0.0133 -0.2769
vn 0.5309 -0.0465 -0.8461
vn 0.6690 0.0383 0.7423
vn -0.8986 0.0168 0.4385
s 0
f 161//111 168//111 160//111 159//111
f 157//112 158//112 165//112 164//112
f 164//113 165//113 166//113 163//113
f 163//114 166//114 167//114 162//114
f 162//115 167//115 168//115 161//115
o 平面.011
v -1.308364 -4.867585 0.931404
v -1.068241 -4.783859 1.240161
v -0.988302 -0.000000 -0.222807
v -1.388302 -0.000000 -0.222807
v -1.097643 -1.030836 -0.302460
v -1.384632 -1.983913 0.080139
v -1.170981 -2.855640 0.627687
v -1.001499 -3.891355 0.716699
v -1.375105 -3.844442 0.850508
v -1.205623 -2.991616 0.253106
v -0.991972 -1.961541 0.153064
v -1.278962 -0.966535 0.048238
vn -0.5214 -0.0814 -0.8494
vn -0.9606 -0.0836 -0.2650
vn 0.5323 -0.2892 -0.7956
vn 0.6689 0.2396 0.7037
vn -0.8983 0.1067 0.4263
s 0
f 173//116 180//116 172//116 171//116
f 169//117 170//117 177//117 176//117
f 176//118 177//118 178//118 175//118
f 175//119 178//119 179//119 174//119
f 174//120 179//120 180//120 173//120
