# Blender 4.4.3
# www.blender.org
o ICO球
v -1.447215 -0.304170 -1.051451
v 0.552776 -0.304171 -1.701298
v 1.788852 -0.304164 -0.000000
v 0.552776 -0.304171 1.701298
v -1.447215 -0.304170 1.051451
v -0.552776 0.666966 -1.701298
v 1.447215 0.666965 -1.051451
v 1.447215 0.666965 1.051451
v -0.552776 0.666966 1.701298
v -1.788852 0.666960 -0.000000
v -0.000000 1.491360 -0.000000
v -0.525738 -0.421269 -1.618023
v -1.701296 -0.421266 -0.000000
v 1.376379 -0.421267 -0.999994
v 1.376379 -0.421267 0.999994
v -0.525738 -0.421269 1.618023
v -1.902116 -0.000000 -0.618025
v -1.902116 -0.000000 0.618025
v -0.000000 -0.000000 -2.000000
v -1.175571 -0.000000 -1.618033
v 1.902116 -0.000000 -0.618025
v 1.175571 -0.000000 -1.618033
v 1.175571 -0.000000 1.618033
v 1.902116 -0.000000 0.618025
v -1.175571 -0.000000 1.618033
v -0.000000 -0.000000 2.000000
v -1.376379 0.784062 -0.999994
v 0.525738 0.784064 -1.618023
v 1.701296 0.784062 -0.000000
v 0.525738 0.784064 1.618023
v -1.376379 0.784062 0.999994
v -0.324911 1.268632 -0.999991
v -1.051460 1.268628 -0.000000
v 0.850645 1.268632 -0.618023
v 0.850645 1.268632 0.618023
v -0.324911 1.268632 0.999991
vn -0.6882 -0.6838 -0.2425
vn 0.0179 -0.6838 -0.7295
vn 0.6993 -0.6838 -0.2084
vn 0.4143 -0.6838 0.6007
vn -0.4433 -0.6838 0.5796
vn -0.7582 -0.3490 -0.5508
vn 0.2896 -0.3490 -0.8913
vn 0.9371 -0.3490 -0.0000
vn 0.2896 -0.3490 0.8913
vn -0.7582 -0.3490 0.5508
vn -0.3520 0.7638 -0.5409
vn 0.4057 0.7638 -0.5019
vn 0.6027 0.7638 0.2307
vn -0.0332 0.7638 0.6445
vn -0.6233 0.7638 0.1676
vn -0.2049 0.9674 0.1489
vn -0.4004 0.8689 0.2909
vn -0.3520 0.7638 0.5409
vn 0.0783 0.9674 0.2409
vn 0.1530 0.8689 0.4707
vn 0.4057 0.7638 0.5019
vn 0.2533 0.9674 -0.0000
vn 0.4950 0.8689 -0.0000
vn 0.6027 0.7638 -0.2307
vn 0.0783 0.9674 -0.2409
vn 0.1530 0.8689 -0.4707
vn -0.0332 0.7638 -0.6445
vn -0.2049 0.9674 -0.1489
vn -0.4004 0.8689 -0.2909
vn -0.6233 0.7638 -0.1676
vn -0.8533 0.4249 0.3022
vn -0.7837 0.2481 0.5694
vn -0.5511 0.4249 0.7181
vn 0.0237 0.4249 0.9049
vn 0.2994 0.2481 0.9213
vn 0.5127 0.4249 0.7460
vn 0.8680 0.4249 0.2571
vn 0.9687 0.2481 -0.0000
vn 0.8680 0.4249 -0.2571
vn 0.5127 0.4249 -0.7460
vn 0.2994 0.2481 -0.9213
vn 0.0237 0.4249 -0.9049
vn -0.5511 0.4249 -0.7181
vn -0.7837 0.2481 -0.5694
vn -0.8533 0.4249 -0.3022
vn -0.3047 0.1674 0.9376
vn -0.2789 -0.4303 0.8585
vn 0.0179 -0.6838 0.7295
vn 0.7976 0.1674 0.5795
vn 0.7303 -0.4303 0.5306
vn 0.6993 -0.6838 0.2084
vn 0.7976 0.1674 -0.5795
vn 0.7303 -0.4303 -0.5306
vn 0.4143 -0.6838 -0.6007
vn -0.3047 0.1674 -0.9376
vn -0.2789 -0.4303 -0.8585
vn -0.4433 -0.6838 -0.5796
vn -0.9859 0.1674 -0.0000
vn -0.9027 -0.4303 -0.0000
vn -0.6882 -0.6838 0.2425
s 0
f 1//1 13//1 17//1
f 2//2 12//2 19//2
f 3//3 14//3 21//3
f 4//4 15//4 23//4
f 5//5 16//5 25//5
f 1//6 17//6 20//6
f 2//7 19//7 22//7
f 3//8 21//8 24//8
f 4//9 23//9 26//9
f 5//10 25//10 18//10
f 6//11 27//11 32//11
f 7//12 28//12 34//12
f 8//13 29//13 35//13
f 9//14 30//14 36//14
f 10//15 31//15 33//15
f 33//16 36//16 11//16
f 33//17 31//17 36//17
f 31//18 9//18 36//18
f 36//19 35//19 11//19
f 36//20 30//20 35//20
f 30//21 8//21 35//21
f 35//22 34//22 11//22
f 35//23 29//23 34//23
f 29//24 7//24 34//24
f 34//25 32//25 11//25
f 34//26 28//26 32//26
f 28//27 6//27 32//27
f 32//28 33//28 11//28
f 32//29 27//29 33//29
f 27//30 10//30 33//30
f 18//31 31//31 10//31
f 18//32 25//32 31//32
f 25//33 9//33 31//33
f 26//34 30//34 9//34
f 26//35 23//35 30//35
f 23//36 8//36 30//36
f 24//37 29//37 8//37
f 24//38 21//38 29//38
f 21//39 7//39 29//39
f 22//40 28//40 7//40
f 22//41 19//41 28//41
f 19//42 6//42 28//42
f 20//43 27//43 6//43
f 20//44 17//44 27//44
f 17//45 10//45 27//45
f 25//46 26//46 9//46
f 25//47 16//47 26//47
f 16//48 4//48 26//48
f 23//49 24//49 8//49
f 23//50 15//50 24//50
f 15//51 3//51 24//51
f 21//52 22//52 7//52
f 21//53 14//53 22//53
f 14//54 2//54 22//54
f 19//55 20//55 6//55
f 19//56 12//56 20//56
f 12//57 1//57 20//57
f 17//58 18//58 10//58
f 17//59 13//59 18//59
f 13//60 5//60 18//60
o 平面
v -0.120062 -4.944033 0.762969
v 0.120062 -4.885158 1.077412
v 0.200000 -0.000000 -0.000000
v -0.200000 -0.000000 -0.000000
v 0.090659 -1.021838 -0.110091
v -0.196330 -1.994659 0.199769
v 0.017321 -2.914632 0.658406
v 0.186803 -3.951894 0.638387
v -0.186803 -3.918664 0.776565
v -0.017321 -3.010853 0.271700
v 0.196330 -1.978930 0.274410
v -0.090659 -0.976928 0.243613
vn -0.5222 -0.0568 -0.8510
vn -0.9607 -0.0589 -0.2713
vn 0.5318 -0.2048 -0.8217
vn 0.6689 0.1691 0.7238
vn -0.8984 0.0746 0.4327
s 0
f 41//61 48//61 40//61 39//61
f 37//62 38//62 45//62 44//62
f 44//63 45//63 46//63 43//63
f 43//64 46//64 47//64 42//64
f 42//65 47//65 48//65 41//65
o 平面.001
v 0.698453 -4.946575 0.960305
v 0.938576 -4.888760 1.274945
v 1.018514 -0.000000 0.213996
v 0.618514 -0.000000 0.213996
v 0.909174 -1.021452 0.102633
v 0.622185 -1.994997 0.409415
v 0.835835 -2.916832 0.864198
v 1.005318 -3.953926 0.839565
v 0.631711 -3.921286 0.977897
v 0.801193 -3.011343 0.477070
v 1.014844 -1.979552 0.484114
v 0.727855 -0.977360 0.456440
vn -0.5222 -0.0558 -0.8510
vn -0.9607 -0.0579 -0.2715
vn 0.5318 -0.2012 -0.8226
vn 0.6689 0.1661 0.7245
vn -0.8984 0.0733 0.4329
s 0
f 53//66 60//66 52//66 51//66
f 49//67 50//67 57//67 56//67
f 56//68 57//68 58//68 55//68
f 55//69 58//69 59//69 54//69
f 54//70 59//70 60//70 53//70
o 平面.002
v -1.037918 -4.443675 2.657275
v -0.797795 -4.287730 2.936599
v -0.717856 -0.000000 0.359593
v -1.117856 -0.000000 0.359593
v -0.827197 -1.056181 0.378232
v -1.114186 -1.915293 0.981246
v -0.900536 -2.593283 1.768954
v -0.731053 -3.560475 2.180654
v -1.104660 -3.476007 2.293426
v -0.935177 -2.838502 1.454839
v -0.721527 -1.873663 1.045165
v -1.008516 -0.932108 0.712491
vn -0.5173 -0.1572 -0.8413
vn -0.9603 -0.1537 -0.2327
vn 0.5337 -0.5198 -0.6671
vn 0.6688 0.4379 0.6008
vn -0.8974 0.2035 0.3916
s 0
f 65//71 72//71 64//71 63//71
f 61//72 62//72 69//72 68//72
f 68//73 69//73 70//73 67//73
f 67//74 70//74 71//74 66//74
f 66//75 71//75 72//75 65//75
o 平面.003
v 0.099369 -4.879419 0.050969
v 0.339492 -4.798935 0.360587
v 0.419431 -0.000000 -1.052142
v 0.019431 -0.000000 -1.052142
v 0.310090 -1.029668 -1.135841
v 0.023101 -1.985631 -0.762796
v 0.236751 -2.864153 -0.226684
v 0.406234 -3.900676 -0.151977
v 0.032627 -3.855531 -0.017517
v 0.202110 -2.994988 -0.603091
v 0.415760 -1.964125 -0.689611
v 0.128771 -0.967921 -0.784684
vn -0.5215 -0.0782 -0.8496
vn -0.9606 -0.0804 -0.2660
vn 0.5323 -0.2783 -0.7995
vn 0.6689 0.2305 0.7067
vn -0.8983 0.1025 0.4273
s 0
f 77//76 84//76 76//76 75//76
f 73//77 74//77 81//77 80//77
f 80//78 81//78 82//78 79//78
f 79//79 82//79 83//79 78//79
f 78//80 83//80 84//80 77//80
o 平面.004
v -0.024975 -4.813674 2.426184
v 0.215148 -4.716799 2.731071
v 0.295087 -0.000000 1.064520
v -0.104913 -0.000000 1.064520
v 0.185746 -1.035549 1.001536
v -0.101243 -1.975907 1.423124
v 0.112407 -2.818481 2.016531
v 0.281890 -3.849022 2.163779
v -0.091717 -3.794996 2.294696
v 0.077766 -2.975140 1.650118
v 0.291416 -1.950020 1.494877
v 0.004427 -0.960805 1.350157
vn -0.5209 -0.0946 -0.8483
vn -0.9606 -0.0966 -0.2608
vn 0.5326 -0.3330 -0.7781
vn 0.6689 0.2766 0.6900
vn -0.8981 0.1238 0.4219
s 0
f 89//81 96//81 88//81 87//81
f 85//82 86//82 93//82 92//82
f 92//83 93//83 94//83 91//83
f 91//84 94//84 95//84 90//84
f 90//85 95//85 96//85 89//85
o 平面.005
v -0.744595 -4.949308 0.227215
v -0.504472 -4.892659 0.542067
v -0.424534 -0.000000 -0.500752
v -0.824534 -0.000000 -0.500752
v -0.533874 -1.021026 -0.613512
v -0.820863 -1.995358 -0.310119
v -0.607213 -2.919227 0.140415
v -0.437730 -3.956114 0.110705
v -0.811337 -3.924124 0.249205
v -0.641854 -3.011851 -0.247168
v -0.428204 -1.980225 -0.235356
v -0.715193 -0.977835 -0.259594
vn -0.5222 -0.0547 -0.8511
vn -0.9607 -0.0567 -0.2718
vn 0.5318 -0.1972 -0.8236
vn 0.6689 0.1627 0.7253
vn -0.8984 0.0718 0.4332
s 0
f 101//86 108//86 100//86 99//86
f 97//87 98//87 105//87 104//87
f 104//88 105//88 106//88 103//88
f 103//89 106//89 107//89 102//89
f 102//90 107//90 108//90 101//90
o 平面.006
v 0.847684 -4.848084 0.772190
v 1.087807 -4.759327 1.079538
v 1.167746 -0.000000 -0.461367
v 0.767746 -0.000000 -0.461367
v 1.058405 -1.032643 -0.534693
v 0.771416 -1.981049 -0.137222
v 0.985067 -2.841923 0.427974
v 1.154549 -3.876022 0.539232
v 0.780942 -3.826375 0.671983
v 0.950425 -2.985845 0.056375
v 1.164075 -1.957332 -0.064724
v 0.877086 -0.964363 -0.184748
vn -0.5212 -0.0864 -0.8490
vn -0.9606 -0.0886 -0.2635
vn 0.5324 -0.3060 -0.7892
vn 0.6689 0.2538 0.6987
vn -0.8982 0.1132 0.4247
s 0
f 113//91 120//91 112//91 111//91
f 109//92 110//92 117//92 116//92
f 116//93 117//93 118//93 115//93
f 115//94 118//94 119//94 114//94
f 114//95 119//95 120//95 113//95
o 平面.007
v 0.139879 -4.559052 1.587786
v 0.380003 -4.418108 1.874972
v 0.459941 -0.000000 -0.471495
v 0.059941 -0.000000 -0.471495
v 0.350601 -1.051051 -0.474849
v 0.063611 -1.935101 0.080935
v 0.277262 -2.660444 0.821298
v 0.446744 -3.650289 1.165555
v 0.073138 -3.573279 1.283760
v 0.242620 -2.883980 0.491402
v 0.456271 -1.897453 0.147277
v 0.169282 -0.939972 -0.136050
vn -0.5185 -0.1407 -0.8435
vn -0.9604 -0.1394 -0.2413
vn 0.5334 -0.4742 -0.7005
vn 0.6689 0.3978 0.6280
vn -0.8976 0.1828 0.4011
s 0
f 125//96 132//96 124//96 123//96
f 121//97 122//97 129//97 128//97
f 128//98 129//98 130//98 127//98
f 127//99 130//99 131//99 126//99
f 126//100 131//100 132//100 125//100
o 平面.008
v -0.395757 -4.740659 2.050904
v -0.155634 -4.628866 2.350642
v -0.075695 -0.000000 0.453490
v -0.475695 -0.000000 0.453490
v -0.185036 -1.040854 0.409981
v -0.472025 -1.964675 0.876338
v -0.258374 -2.771011 1.520703
v -0.088892 -3.791898 1.734383
v -0.462498 -3.729932 1.861524
v -0.293016 -2.950773 1.165055
v -0.079365 -1.934800 0.946524
v -0.366355 -0.954066 0.755801
vn -0.5202 -0.1099 -0.8469
vn -0.9605 -0.1112 -0.2551
vn 0.5329 -0.3818 -0.7552
vn 0.6689 0.3181 0.6719
vn -0.8980 0.1435 0.4160
s 0
f 137//101 144//101 136//101 135//101
f 133//102 134//102 141//102 140//102
f 140//103 141//103 142//103 139//103
f 139//104 142//104 143//104 138//104
f 138//105 143//105 144//105 137//105
o 平面.009
v -0.687768 -4.971746 -0.576544
v -0.447645 -4.926147 -0.259903
v -0.367707 -0.000000 -1.130912
v -0.767707 -0.000000 -1.130912
v -0.477047 -1.016984 -1.256790
v -0.764036 -1.998232 -0.985410
v -0.550386 -2.940414 -0.575408
v -0.380903 -3.974216 -0.653003
v -0.754510 -3.948402 -0.513073
v -0.585028 -3.015119 -0.966840
v -0.371377 -1.986052 -0.910109
v -0.658366 -0.982291 -0.901938
vn -0.5224 -0.0439 -0.8516
vn -0.9607 -0.0457 -0.2737
vn 0.5316 -0.1591 -0.8319
vn 0.6689 0.1311 0.7317
vn -0.8985 0.0577 0.4352
s 0
f 149//106 156//106 148//106 147//106
f 145//107 146//107 153//107 152//107
f 152//108 153//108 154//108 151//108
f 151//109 154//109 155//109 150//109
f 150//110 155//110 156//110 149//110
o 平面.010
v 0.719852 -4.980946 1.294287
v 0.959975 -4.941072 1.611700
v 1.039913 -0.000000 0.829786
v 0.639913 -0.000000 0.829786
v 0.930573 -1.014879 0.697186
v 0.643584 -1.999334 0.952030
v 0.857234 -2.950339 1.340827
v 1.026717 -3.981746 1.238570
v 0.653110 -3.959149 1.379132
v 0.822593 -3.015721 0.947730
v 1.036243 -1.988684 1.027563
v 0.749254 -0.984570 1.052439
vn -0.5225 -0.0384 -0.8518
vn -0.9607 -0.0400 -0.2746
vn 0.5315 -0.1393 -0.8356
vn 0.6690 0.1147 0.7344
vn -0.8985 0.0504 0.4360
s 0
f 161//111 168//111 160//111 159//111
f 157//112 158//112 165//112 164//112
f 164//113 165//113 166//113 163//113
f 163//114 166//114 167//114 162//114
f 162//115 167//115 168//115 161//115
o 平面.011
v -1.308364 -4.911027 0.729768
v -1.068241 -4.840100 1.041714
v -0.988302 -0.000000 -0.222807
v -1.388302 -0.000000 -0.222807
v -1.097643 -1.026216 -0.318295
v -1.384632 -1.990131 0.026706
v -1.170981 -2.887807 0.528815
v -1.001499 -3.925643 0.561485
v -1.375105 -3.885741 0.697722
v -1.205623 -3.003403 0.147453
v -0.991972 -1.971181 0.100594
v -1.278962 -0.971951 0.034095
vn -0.5218 -0.0687 -0.8503
vn -0.9606 -0.0709 -0.2686
vn 0.5321 -0.2460 -0.8102
vn 0.6689 0.2034 0.7150
vn -0.8984 0.0901 0.4299
s 0
f 173//116 180//116 172//116 171//116
f 169//117 170//117 177//117 176//117
f 176//118 177//118 178//118 175//118
f 175//119 178//119 179//119 174//119
f 174//120 179//120 180//120 173//120
