# Blender 4.4.3
# www.blender.org
o ICO球
v -1.447215 -0.304170 -1.051451
v 0.552776 -0.304171 -1.701298
v 1.788852 -0.304164 -0.000000
v 0.552776 -0.304171 1.701298
v -1.447215 -0.304170 1.051451
v -0.552776 0.666966 -1.701298
v 1.447215 0.666965 -1.051451
v 1.447215 0.666965 1.051451
v -0.552776 0.666966 1.701298
v -1.788852 0.666960 -0.000000
v -0.000000 1.491360 -0.000000
v -0.525738 -0.421269 -1.618023
v -1.701296 -0.421266 -0.000000
v 1.376379 -0.421267 -0.999994
v 1.376379 -0.421267 0.999994
v -0.525738 -0.421269 1.618023
v -1.902116 -0.000000 -0.618025
v -1.902116 -0.000000 0.618025
v -0.000000 -0.000000 -2.000000
v -1.175571 -0.000000 -1.618033
v 1.902116 -0.000000 -0.618025
v 1.175571 -0.000000 -1.618033
v 1.175571 -0.000000 1.618033
v 1.902116 -0.000000 0.618025
v -1.175571 -0.000000 1.618033
v -0.000000 -0.000000 2.000000
v -1.376379 0.784062 -0.999994
v 0.525738 0.784064 -1.618023
v 1.701296 0.784062 -0.000000
v 0.525738 0.784064 1.618023
v -1.376379 0.784062 0.999994
v -0.324911 1.268632 -0.999991
v -1.051460 1.268628 -0.000000
v 0.850645 1.268632 -0.618023
v 0.850645 1.268632 0.618023
v -0.324911 1.268632 0.999991
vn -0.6882 -0.6838 -0.2425
vn 0.0179 -0.6838 -0.7295
vn 0.6993 -0.6838 -0.2084
vn 0.4143 -0.6838 0.6007
vn -0.4433 -0.6838 0.5796
vn -0.7582 -0.3490 -0.5508
vn 0.2896 -0.3490 -0.8913
vn 0.9371 -0.3490 -0.0000
vn 0.2896 -0.3490 0.8913
vn -0.7582 -0.3490 0.5508
vn -0.3520 0.7638 -0.5409
vn 0.4057 0.7638 -0.5019
vn 0.6027 0.7638 0.2307
vn -0.0332 0.7638 0.6445
vn -0.6233 0.7638 0.1676
vn -0.2049 0.9674 0.1489
vn -0.4004 0.8689 0.2909
vn -0.3520 0.7638 0.5409
vn 0.0783 0.9674 0.2409
vn 0.1530 0.8689 0.4707
vn 0.4057 0.7638 0.5019
vn 0.2533 0.9674 -0.0000
vn 0.4950 0.8689 -0.0000
vn 0.6027 0.7638 -0.2307
vn 0.0783 0.9674 -0.2409
vn 0.1530 0.8689 -0.4707
vn -0.0332 0.7638 -0.6445
vn -0.2049 0.9674 -0.1489
vn -0.4004 0.8689 -0.2909
vn -0.6233 0.7638 -0.1676
vn -0.8533 0.4249 0.3022
vn -0.7837 0.2481 0.5694
vn -0.5511 0.4249 0.7181
vn 0.0237 0.4249 0.9049
vn 0.2994 0.2481 0.9213
vn 0.5127 0.4249 0.7460
vn 0.8680 0.4249 0.2571
vn 0.9687 0.2481 -0.0000
vn 0.8680 0.4249 -0.2571
vn 0.5127 0.4249 -0.7460
vn 0.2994 0.2481 -0.9213
vn 0.0237 0.4249 -0.9049
vn -0.5511 0.4249 -0.7181
vn -0.7837 0.2481 -0.5694
vn -0.8533 0.4249 -0.3022
vn -0.3047 0.1674 0.9376
vn -0.2789 -0.4303 0.8585
vn 0.0179 -0.6838 0.7295
vn 0.7976 0.1674 0.5795
vn 0.7303 -0.4303 0.5306
vn 0.6993 -0.6838 0.2084
vn 0.7976 0.1674 -0.5795
vn 0.7303 -0.4303 -0.5306
vn 0.4143 -0.6838 -0.6007
vn -0.3047 0.1674 -0.9376
vn -0.2789 -0.4303 -0.8585
vn -0.4433 -0.6838 -0.5796
vn -0.9859 0.1674 -0.0000
vn -0.9027 -0.4303 -0.0000
vn -0.6882 -0.6838 0.2425
s 0
f 1//1 13//1 17//1
f 2//2 12//2 19//2
f 3//3 14//3 21//3
f 4//4 15//4 23//4
f 5//5 16//5 25//5
f 1//6 17//6 20//6
f 2//7 19//7 22//7
f 3//8 21//8 24//8
f 4//9 23//9 26//9
f 5//10 25//10 18//10
f 6//11 27//11 32//11
f 7//12 28//12 34//12
f 8//13 29//13 35//13
f 9//14 30//14 36//14
f 10//15 31//15 33//15
f 33//16 36//16 11//16
f 33//17 31//17 36//17
f 31//18 9//18 36//18
f 36//19 35//19 11//19
f 36//20 30//20 35//20
f 30//21 8//21 35//21
f 35//22 34//22 11//22
f 35//23 29//23 34//23
f 29//24 7//24 34//24
f 34//25 32//25 11//25
f 34//26 28//26 32//26
f 28//27 6//27 32//27
f 32//28 33//28 11//28
f 32//29 27//29 33//29
f 27//30 10//30 33//30
f 18//31 31//31 10//31
f 18//32 25//32 31//32
f 25//33 9//33 31//33
f 26//34 30//34 9//34
f 26//35 23//35 30//35
f 23//36 8//36 30//36
f 24//37 29//37 8//37
f 24//38 21//38 29//38
f 21//39 7//39 29//39
f 22//40 28//40 7//40
f 22//41 19//41 28//41
f 19//42 6//42 28//42
f 20//43 27//43 6//43
f 20//44 17//44 27//44
f 17//45 10//45 27//45
f 25//46 26//46 9//46
f 25//47 16//47 26//47
f 16//48 4//48 26//48
f 23//49 24//49 8//49
f 23//50 15//50 24//50
f 15//51 3//51 24//51
f 21//52 22//52 7//52
f 21//53 14//53 22//53
f 14//54 2//54 22//54
f 19//55 20//55 6//55
f 19//56 12//56 20//56
f 12//57 1//57 20//57
f 17//58 18//58 10//58
f 17//59 13//59 18//59
f 13//60 5//60 18//60
o 平面
v -0.120062 -4.952143 0.708428
v 0.120062 -4.896737 1.023501
v 0.200000 -0.000000 -0.000000
v -0.200000 -0.000000 -0.000000
v 0.090659 -1.020573 -0.114246
v -0.196330 -1.995732 0.185537
v 0.017321 -2.921746 0.631539
v 0.186803 -3.958388 0.596424
v -0.186803 -3.927090 0.735099
v -0.017321 -3.012360 0.243481
v 0.196330 -1.980931 0.260367
v -0.090659 -0.978341 0.239788
vn -0.5222 -0.0535 -0.8511
vn -0.9607 -0.0555 -0.2720
vn 0.5318 -0.1929 -0.8246
vn 0.6689 0.1592 0.7261
vn -0.8985 0.0702 0.4334
s 0
f 41//61 48//61 40//61 39//61
f 37//62 38//62 45//62 44//62
f 44//63 45//63 46//63 43//63
f 43//64 46//64 47//64 42//64
f 42//65 47//65 48//65 41//65
o 平面.001
v 0.698453 -4.942412 0.987397
v 0.938576 -4.882873 1.301716
v 1.018514 -0.000000 0.213996
v 0.618514 -0.000000 0.213996
v 0.909174 -1.022080 0.104702
v 0.622185 -1.994441 0.416491
v 0.835835 -2.913240 0.877538
v 1.005318 -3.950598 0.860410
v 0.631711 -3.917000 0.998490
v 0.801193 -3.010532 0.491100
v 1.014844 -1.978535 0.491094
v 0.727855 -0.976656 0.458340
vn -0.5221 -0.0575 -0.8509
vn -0.9607 -0.0596 -0.2712
vn 0.5318 -0.2071 -0.8211
vn 0.6689 0.1710 0.7234
vn -0.8984 0.0755 0.4326
s 0
f 53//66 60//66 52//66 51//66
f 49//67 50//67 57//67 56//67
f 56//68 57//68 58//68 55//68
f 55//69 58//69 59//69 54//69
f 54//70 59//70 60//70 53//70
o 平面.002
v -1.037918 -4.410116 2.721046
v -0.797795 -4.250164 2.998095
v -0.717856 -0.000000 0.359593
v -1.117856 -0.000000 0.359593
v -0.827197 -1.057534 0.384287
v -1.114186 -1.909396 1.000075
v -0.900536 -2.574036 1.800166
v -0.731053 -3.534361 2.229896
v -1.104660 -3.447937 2.341116
v -0.935177 -2.824935 1.490570
v -0.721527 -1.866706 1.063290
v -1.008516 -0.929921 0.717211
vn -0.5169 -0.1617 -0.8406
vn -0.9603 -0.1575 -0.2302
vn 0.5337 -0.5317 -0.6576
vn 0.6688 0.4484 0.5929
vn -0.8973 0.2091 0.3888
s 0
f 65//71 72//71 64//71 63//71
f 61//72 62//72 69//72 68//72
f 68//73 69//73 70//73 67//73
f 67//74 70//74 71//74 66//74
f 66//75 71//75 72//75 65//75
o 平面.003
v 0.099369 -4.866949 0.104748
v 0.339492 -4.783053 0.413459
v 0.419431 -0.000000 -1.052142
v 0.019431 -0.000000 -1.052142
v 0.310090 -1.030896 -1.131582
v 0.023101 -1.983819 -0.748482
v 0.236752 -2.855186 -0.200336
v 0.406234 -3.890855 -0.110574
v 0.032627 -3.843848 0.023200
v 0.202110 -2.991430 -0.574819
v 0.415760 -1.961402 -0.675571
v 0.128771 -0.966461 -0.780909
vn -0.5214 -0.0816 -0.8494
vn -0.9606 -0.0838 -0.2650
vn 0.5323 -0.2897 -0.7954
vn 0.6689 0.2401 0.7035
vn -0.8983 0.1069 0.4263
s 0
f 77//76 84//76 76//76 75//76
f 73//77 74//77 81//77 80//77
f 80//78 81//78 82//78 79//78
f 79//79 82//79 83//79 78//79
f 78//80 83//80 84//80 77//80
o 平面.004
v -0.024975 -4.763363 2.592906
v 0.215148 -4.655934 2.894236
v 0.295087 -0.000000 1.064520
v -0.104913 -0.000000 1.064520
v 0.185746 -1.039307 1.015246
v -0.101243 -1.968211 1.468438
v 0.112407 -2.785505 2.098014
v 0.281890 -3.809641 2.292220
v -0.091717 -3.749983 2.420521
v 0.077766 -2.958550 1.739049
v 0.291416 -1.939502 1.539109
v 0.004427 -0.956067 1.361937
vn -0.5204 -0.1054 -0.8474
vn -0.9605 -0.1070 -0.2568
vn 0.5328 -0.3676 -0.7622
vn 0.6689 0.3060 0.6775
vn -0.8980 0.1377 0.4178
s 0
f 89//81 96//81 88//81 87//81
f 85//82 86//82 93//82 92//82
f 92//83 93//83 94//83 91//83
f 91//84 94//84 95//84 90//84
f 90//85 95//85 96//85 89//85
o 平面.005
v -0.744595 -4.933846 0.325531
v -0.504472 -4.870945 0.639194
v -0.424534 -0.000000 -0.500752
v -0.824534 -0.000000 -0.500752
v -0.533874 -1.023303 -0.605996
v -0.820863 -1.993284 -0.284421
v -0.607213 -2.906036 0.188811
v -0.437730 -3.943765 0.186352
v -0.811337 -3.908299 0.323919
v -0.641854 -3.008748 -0.196222
v -0.428204 -1.976480 -0.210015
v -0.715193 -0.975277 -0.252702
vn -0.5221 -0.0608 -0.8507
vn -0.9607 -0.0629 -0.2705
vn 0.5319 -0.2186 -0.8181
vn 0.6689 0.1806 0.7211
vn -0.8984 0.0798 0.4318
s 0
f 101//86 108//86 100//86 99//86
f 97//87 98//87 105//87 104//87
f 104//88 105//88 106//88 103//88
f 103//89 106//89 107//89 102//89
f 102//90 107//90 108//90 101//90
o 平面.006
v 0.847684 -4.820058 0.877524
v 1.087807 -4.724626 1.182866
v 1.167746 -0.000000 -0.461367
v 0.767746 -0.000000 -0.461367
v 1.058405 -1.035034 -0.526201
v 0.771416 -1.976869 -0.108911
v 0.985067 -2.822766 0.479507
v 1.154549 -3.854026 0.620352
v 0.780942 -3.800775 0.751606
v 0.950425 -2.977170 0.112139
v 1.164075 -1.951367 -0.037020
v 0.877086 -0.961442 -0.177335
vn -0.5210 -0.0932 -0.8485
vn -0.9606 -0.0952 -0.2613
vn 0.5325 -0.3282 -0.7802
vn 0.6689 0.2725 0.6916
vn -0.8982 0.1219 0.4224
s 0
f 113//91 120//91 112//91 111//91
f 109//92 110//92 117//92 116//92
f 116//93 117//93 118//93 115//93
f 115//94 118//94 119//94 114//94
f 114//95 119//95 120//95 113//95
o 平面.007
v 0.139880 -4.469245 1.776045
v 0.380003 -4.316453 2.057106
v 0.459941 -0.000000 -0.471495
v 0.059941 -0.000000 -0.471495
v 0.350601 -1.055112 -0.457564
v 0.063611 -1.919747 0.135450
v 0.277262 -2.608028 0.913334
v 0.446744 -3.580375 1.310853
v 0.073138 -3.497456 1.424815
v 0.242620 -2.848743 0.595756
v 0.456271 -1.878952 0.199904
v 0.169282 -0.933801 -0.122292
vn -0.5175 -0.1537 -0.8417
vn -0.9603 -0.1507 -0.2346
vn 0.5336 -0.5103 -0.6744
vn 0.6688 0.4295 0.6068
vn -0.8974 0.1991 0.3937
s 0
f 125//96 132//96 124//96 123//96
f 121//97 122//97 129//97 128//97
f 128//98 129//98 130//98 127//98
f 127//99 130//99 131//99 126//99
f 126//100 131//100 132//100 125//100
o 平面.008
v -0.395757 -4.739843 2.053326
v -0.155634 -4.627896 2.353007
v -0.075695 -0.000000 0.453490
v -0.475695 -0.000000 0.453490
v -0.185036 -1.040908 0.410185
v -0.472025 -1.964546 0.877003
v -0.258374 -2.770492 1.521886
v -0.088892 -3.791259 1.736249
v -0.462498 -3.729213 1.863349
v -0.293016 -2.950489 1.166356
v -0.079365 -1.934631 0.947172
v -0.366355 -0.953995 0.755973
vn -0.5202 -0.1100 -0.8469
vn -0.9605 -0.1114 -0.2550
vn 0.5329 -0.3823 -0.7549
vn 0.6689 0.3186 0.6717
vn -0.8980 0.1437 0.4159
s 0
f 137//101 144//101 136//101 135//101
f 133//102 134//102 141//102 140//102
f 140//103 141//103 142//103 139//103
f 139//104 142//104 143//104 138//104
f 138//105 143//105 144//105 137//105
o 平面.009
v -0.687768 -4.927945 -0.270130
v -0.447645 -4.862851 0.043085
v -0.367707 -0.000000 -1.130912
v -0.767707 -0.000000 -1.130912
v -0.477047 -1.024100 -1.233502
v -0.764036 -1.992478 -0.905536
v -0.550386 -2.901201 -0.424385
v -0.380903 -3.939068 -0.417261
v -0.754510 -3.902388 -0.280043
v -0.585028 -3.007441 -0.808459
v -0.371377 -1.975087 -0.831266
v -0.658366 -0.974373 -0.880443
vn -0.5220 -0.0629 -0.8506
vn -0.9607 -0.0651 -0.2700
vn 0.5320 -0.2261 -0.8160
vn 0.6689 0.1868 0.7195
vn -0.8984 0.0826 0.4313
s 0
f 149//106 156//106 148//106 147//106
f 145//107 146//107 153//107 152//107
f 152//108 153//108 154//108 151//108
f 151//109 154//109 155//109 150//109
f 150//110 155//110 156//110 149//110
o 平面.010
v 0.719852 -4.999394 1.007678
v 0.959975 -4.977802 1.326856
v 1.039913 -0.000000 0.829786
v 0.639913 -0.000000 0.829786
v 0.930573 -1.008110 0.676025
v 0.643584 -2.001138 0.878224
v 0.857234 -2.977307 1.198396
v 1.026717 -3.997487 1.018147
v 0.653110 -3.985216 1.160225
v 0.822593 -3.012782 0.801481
v 1.036243 -1.995371 0.954285
v 0.749254 -0.991731 1.032192
vn -0.5227 -0.0207 -0.8522
vn -0.9608 -0.0216 -0.2765
vn 0.5311 -0.0756 -0.8439
vn 0.6690 0.0622 0.7407
vn -0.8986 0.0273 0.4380
s 0
f 161//111 168//111 160//111 159//111
f 157//112 158//112 165//112 164//112
f 164//113 165//113 166//113 163//113
f 163//114 166//114 167//114 162//114
f 162//115 167//115 168//115 161//115
o 平面.011
v -1.308364 -4.909383 0.738204
v -1.068241 -4.837921 1.050027
v -0.988302 -0.000000 -0.222807
v -1.388302 -0.000000 -0.222807
v -1.097643 -1.026410 -0.317639
v -1.384632 -1.989900 0.028930
v -1.170981 -2.886537 0.532956
v -1.001499 -3.924342 0.567978
v -1.375105 -3.884145 0.704121
v -1.205623 -3.002991 0.151855
v -0.991972 -1.970807 0.102781
v -1.278962 -0.971727 0.034687
vn -0.5218 -0.0692 -0.8502
vn -0.9606 -0.0715 -0.2684
vn 0.5321 -0.2478 -0.8096
vn 0.6689 0.2049 0.7145
vn -0.8984 0.0908 0.4298
s 0
f 173//116 180//116 172//116 171//116
f 169//117 170//117 177//117 176//117
f 176//118 177//118 178//118 175//118
f 175//119 178//119 179//119 174//119
f 174//120 179//120 180//120 173//120
