# Blender 4.4.3
# www.blender.org
o ICO球
v -1.447215 -0.304170 -1.051451
v 0.552776 -0.304171 -1.701298
v 1.788852 -0.304164 -0.000000
v 0.552776 -0.304171 1.701298
v -1.447215 -0.304170 1.051451
v -0.552776 0.666966 -1.701298
v 1.447215 0.666965 -1.051451
v 1.447215 0.666965 1.051451
v -0.552776 0.666966 1.701298
v -1.788852 0.666960 -0.000000
v -0.000000 1.491360 -0.000000
v -0.525738 -0.421269 -1.618023
v -1.701296 -0.421266 -0.000000
v 1.376379 -0.421267 -0.999994
v 1.376379 -0.421267 0.999994
v -0.525738 -0.421269 1.618023
v -1.902116 -0.000000 -0.618025
v -1.902116 -0.000000 0.618025
v -0.000000 -0.000000 -2.000000
v -1.175571 -0.000000 -1.618033
v 1.902116 -0.000000 -0.618025
v 1.175571 -0.000000 -1.618033
v 1.175571 -0.000000 1.618033
v 1.902116 -0.000000 0.618025
v -1.175571 -0.000000 1.618033
v -0.000000 -0.000000 2.000000
v -1.376379 0.784062 -0.999994
v 0.525738 0.784064 -1.618023
v 1.701296 0.784062 -0.000000
v 0.525738 0.784064 1.618023
v -1.376379 0.784062 0.999994
v -0.324911 1.268632 -0.999991
v -1.051460 1.268628 -0.000000
v 0.850645 1.268632 -0.618023
v 0.850645 1.268632 0.618023
v -0.324911 1.268632 0.999991
vn -0.6882 -0.6838 -0.2425
vn 0.0179 -0.6838 -0.7295
vn 0.6993 -0.6838 -0.2084
vn 0.4143 -0.6838 0.6007
vn -0.4433 -0.6838 0.5796
vn -0.7582 -0.3490 -0.5508
vn 0.2896 -0.3490 -0.8913
vn 0.9371 -0.3490 -0.0000
vn 0.2896 -0.3490 0.8913
vn -0.7582 -0.3490 0.5508
vn -0.3520 0.7638 -0.5409
vn 0.4057 0.7638 -0.5019
vn 0.6027 0.7638 0.2307
vn -0.0332 0.7638 0.6445
vn -0.6233 0.7638 0.1676
vn -0.2049 0.9674 0.1489
vn -0.4004 0.8689 0.2909
vn -0.3520 0.7638 0.5409
vn 0.0783 0.9674 0.2409
vn 0.1530 0.8689 0.4707
vn 0.4057 0.7638 0.5019
vn 0.2533 0.9674 -0.0000
vn 0.4950 0.8689 -0.0000
vn 0.6027 0.7638 -0.2307
vn 0.0783 0.9674 -0.2409
vn 0.1530 0.8689 -0.4707
vn -0.0332 0.7638 -0.6445
vn -0.2049 0.9674 -0.1489
vn -0.4004 0.8689 -0.2909
vn -0.6233 0.7638 -0.1676
vn -0.8533 0.4249 0.3022
vn -0.7837 0.2481 0.5694
vn -0.5511 0.4249 0.7181
vn 0.0237 0.4249 0.9049
vn 0.2994 0.2481 0.9213
vn 0.5127 0.4249 0.7460
vn 0.8680 0.4249 0.2571
vn 0.9687 0.2481 -0.0000
vn 0.8680 0.4249 -0.2571
vn 0.5127 0.4249 -0.7460
vn 0.2994 0.2481 -0.9213
vn 0.0237 0.4249 -0.9049
vn -0.5511 0.4249 -0.7181
vn -0.7837 0.2481 -0.5694
vn -0.8533 0.4249 -0.3022
vn -0.3047 0.1674 0.9376
vn -0.2789 -0.4303 0.8585
vn 0.0179 -0.6838 0.7295
vn 0.7976 0.1674 0.5795
vn 0.7303 -0.4303 0.5306
vn 0.6993 -0.6838 0.2084
vn 0.7976 0.1674 -0.5795
vn 0.7303 -0.4303 -0.5306
vn 0.4143 -0.6838 -0.6007
vn -0.3047 0.1674 -0.9376
vn -0.2789 -0.4303 -0.8585
vn -0.4433 -0.6838 -0.5796
vn -0.9859 0.1674 -0.0000
vn -0.9027 -0.4303 -0.0000
vn -0.6882 -0.6838 0.2425
s 0
f 1//1 13//1 17//1
f 2//2 12//2 19//2
f 3//3 14//3 21//3
f 4//4 15//4 23//4
f 5//5 16//5 25//5
f 1//6 17//6 20//6
f 2//7 19//7 22//7
f 3//8 21//8 24//8
f 4//9 23//9 26//9
f 5//10 25//10 18//10
f 6//11 27//11 32//11
f 7//12 28//12 34//12
f 8//13 29//13 35//13
f 9//14 30//14 36//14
f 10//15 31//15 33//15
f 33//16 36//16 11//16
f 33//17 31//17 36//17
f 31//18 9//18 36//18
f 36//19 35//19 11//19
f 36//20 30//20 35//20
f 30//21 8//21 35//21
f 35//22 34//22 11//22
f 35//23 29//23 34//23
f 29//24 7//24 34//24
f 34//25 32//25 11//25
f 34//26 28//26 32//26
f 28//27 6//27 32//27
f 32//28 33//28 11//28
f 32//29 27//29 33//29
f 27//30 10//30 33//30
f 18//31 31//31 10//31
f 18//32 25//32 31//32
f 25//33 9//33 31//33
f 26//34 30//34 9//34
f 26//35 23//35 30//35
f 23//36 8//36 30//36
f 24//37 29//37 8//37
f 24//38 21//38 29//38
f 21//39 7//39 29//39
f 22//40 28//40 7//40
f 22//41 19//41 28//41
f 19//42 6//42 28//42
f 20//43 27//43 6//43
f 20//44 17//44 27//44
f 17//45 10//45 27//45
f 25//46 26//46 9//46
f 25//47 16//47 26//47
f 16//48 4//48 26//48
f 23//49 24//49 8//49
f 23//50 15//50 24//50
f 15//51 3//51 24//51
f 21//52 22//52 7//52
f 21//53 14//53 22//53
f 14//54 2//54 22//54
f 19//55 20//55 6//55
f 19//56 12//56 20//56
f 12//57 1//57 20//57
f 17//58 18//58 10//58
f 17//59 13//59 18//59
f 13//60 5//60 18//60
o 平面
v -0.120062 -4.976016 0.514642
v 0.120062 -4.932947 0.831638
v 0.200000 -0.000000 -0.000000
v -0.200000 -0.000000 -0.000000
v 0.090660 -1.016054 -0.128855
v -0.196330 -1.998752 0.135213
v 0.017321 -2.944889 0.535860
v 0.186803 -3.977698 0.447351
v -0.186803 -3.953305 0.587570
v -0.017321 -3.015476 0.143664
v 0.196330 -1.987248 0.210620
v -0.090659 -0.983301 0.226181
vn -0.5225 -0.0415 -0.8516
vn -0.9607 -0.0432 -0.2741
vn 0.5315 -0.1503 -0.8336
vn 0.6690 0.1239 0.7329
vn -0.8985 0.0545 0.4356
s 0
f 41//61 48//61 40//61 39//61
f 37//62 38//62 45//62 44//62
f 44//63 45//63 46//63 43//63
f 43//64 46//64 47//64 42//64
f 42//65 47//65 48//65 41//65
o 平面.001
v 0.698453 -4.967095 0.808594
v 0.938576 -4.918935 1.124856
v 1.018514 -0.000000 0.213996
v 0.618514 -0.000000 0.213996
v 0.909174 -1.017923 0.091142
v 0.622185 -1.997655 0.369932
v 0.835835 -2.935741 0.789377
v 1.005318 -3.970439 0.722851
v 0.631711 -3.943189 0.862474
v 0.801193 -3.014611 0.398763
v 1.014844 -1.984790 0.445119
v 0.727855 -0.981265 0.445796
vn -0.5224 -0.0464 -0.8514
vn -0.9607 -0.0482 -0.2733
vn 0.5316 -0.1679 -0.8302
vn 0.6689 0.1385 0.7303
vn -0.8985 0.0610 0.4347
s 0
f 53//66 60//66 52//66 51//66
f 49//67 50//67 57//67 56//67
f 56//68 57//68 58//68 55//68
f 55//69 58//69 59//69 54//69
f 54//70 59//70 60//70 53//70
o 平面.002
v -1.037918 -4.368022 2.798029
v -0.797795 -4.203236 3.072230
v -0.717856 -0.000000 0.359593
v -1.117856 -0.000000 0.359593
v -0.827197 -1.059154 0.391703
v -1.114186 -1.901913 1.022994
v -0.900536 -2.550040 1.837869
v -0.731053 -3.501609 2.289355
v -1.104660 -3.412848 2.398645
v -0.935177 -2.807725 1.533899
v -0.721527 -1.857946 1.085328
v -1.008516 -0.927230 0.722943
vn -0.5165 -0.1672 -0.8398
vn -0.9603 -0.1621 -0.2271
vn 0.5338 -0.5460 -0.6457
vn 0.6688 0.4611 0.5831
vn -0.8972 0.2159 0.3853
s 0
f 65//71 72//71 64//71 63//71
f 61//72 62//72 69//72 68//72
f 68//73 69//73 70//73 67//73
f 67//74 70//74 71//74 66//74
f 66//75 71//75 72//75 65//75
o 平面.003
v 0.099369 -4.756843 0.496416
v 0.339492 -4.648139 0.797288
v 0.419431 -0.000000 -1.052142
v 0.019431 -0.000000 -1.052142
v 0.310090 -1.039759 -1.099738
v 0.023101 -1.967199 -0.642704
v 0.236751 -2.781321 -0.008794
v 0.406234 -3.804544 0.191102
v 0.032627 -3.744210 0.319068
v 0.202110 -2.956333 -0.366803
v 0.415760 -1.938149 -0.572172
v 0.128771 -0.955484 -0.753297
vn -0.5204 -0.1067 -0.8472
vn -0.9605 -0.1082 -0.2563
vn 0.5328 -0.3718 -0.7602
vn 0.6689 0.3096 0.6758
vn -0.8980 0.1394 0.4173
s 0
f 77//76 84//76 76//76 75//76
f 73//77 74//77 81//77 80//77
f 80//78 81//78 82//78 79//78
f 79//79 82//79 83//79 78//79
f 78//80 83//80 84//80 77//80
o 平面.004
v -0.024975 -4.694321 2.793374
v 0.215148 -4.574221 3.089881
v 0.295087 -0.000000 1.064520
v -0.104913 -0.000000 1.064520
v 0.185746 -1.043785 1.032148
v -0.101243 -1.957332 1.523703
v 0.112407 -2.742000 2.195925
v 0.281890 -3.755719 2.446726
v -0.091717 -3.689399 2.571533
v 0.077766 -2.934433 1.846971
v 0.291416 -1.925240 1.592903
v 0.004427 -0.950186 1.376187
vn -0.5198 -0.1185 -0.8460
vn -0.9605 -0.1193 -0.2515
vn 0.5330 -0.4086 -0.7409
vn 0.6689 0.3411 0.6605
vn -0.8979 0.1546 0.4122
s 0
f 89//81 96//81 88//81 87//81
f 85//82 86//82 93//82 92//82
f 92//83 93//83 94//83 91//83
f 91//84 94//84 95//84 90//84
f 90//85 95//85 96//85 89//85
o 平面.005
v -0.744595 -4.944926 0.256407
v -0.504472 -4.886420 0.570919
v -0.424534 -0.000000 -0.500752
v -0.824534 -0.000000 -0.500752
v -0.533874 -1.021703 -0.611287
v -0.820863 -1.994777 -0.302501
v -0.607213 -2.915401 0.154792
v -0.437730 -3.952607 0.133165
v -0.811337 -3.919583 0.271397
v -0.641854 -3.011025 -0.232062
v -0.428204 -1.979147 -0.227840
v -0.715193 -0.977078 -0.257547
vn -0.5222 -0.0565 -0.8510
vn -0.9607 -0.0586 -0.2714
vn 0.5318 -0.2036 -0.8220
vn 0.6689 0.1680 0.7241
vn -0.8984 0.0742 0.4328
s 0
f 101//86 108//86 100//86 99//86
f 97//87 98//87 105//87 104//87
f 104//88 105//88 106//88 103//88
f 103//89 106//89 107//89 102//89
f 102//90 107//90 108//90 101//90
o 平面.006
v 0.847684 -4.810153 0.912683
v 1.087807 -4.712493 1.217320
v 1.167746 -0.000000 -0.461367
v 0.767746 -0.000000 -0.461367
v 1.058405 -1.035829 -0.523343
v 0.771416 -1.975375 -0.099416
v 0.985067 -2.816128 0.496699
v 1.154549 -3.846262 0.647434
v 0.780942 -3.791815 0.778165
v 0.950425 -2.974012 0.130814
v 1.164075 -1.949278 -0.027739
v 0.877086 -0.960457 -0.174857
vn -0.5209 -0.0954 -0.8483
vn -0.9606 -0.0974 -0.2605
vn 0.5326 -0.3356 -0.7770
vn 0.6689 0.2788 0.6891
vn -0.8981 0.1249 0.4216
s 0
f 113//91 120//91 112//91 111//91
f 109//92 110//92 117//92 116//92
f 116//93 117//93 118//93 115//93
f 115//94 118//94 119//94 114//94
f 114//95 119//95 120//95 113//95
o 平面.007
v 0.139879 -4.354930 1.990246
v 0.380003 -4.188681 2.263562
v 0.459941 -0.000000 -0.471495
v 0.059941 -0.000000 -0.471495
v 0.350601 -1.059641 -0.437116
v 0.063611 -1.899567 0.198886
v 0.277262 -2.542607 1.018200
v 0.446744 -3.491424 1.476269
v 0.073138 -3.401960 1.584964
v 0.242620 -2.802331 0.715970
v 0.456271 -1.855214 0.260945
v 0.169282 -0.926404 -0.106403
vn -0.5163 -0.1689 -0.8396
vn -0.9603 -0.1634 -0.2261
vn 0.5339 -0.5503 -0.6420
vn 0.6688 0.4649 0.5801
vn -0.8972 0.2179 0.3842
s 0
f 125//96 132//96 124//96 123//96
f 121//97 122//97 129//97 128//97
f 128//98 129//98 130//98 127//98
f 127//99 130//99 131//99 126//99
f 126//100 131//100 132//100 125//100
o 平面.008
v -0.395757 -4.707430 2.146324
v -0.155634 -4.589606 2.443743
v -0.075695 -0.000000 0.453490
v -0.475695 -0.000000 0.453490
v -0.185036 -1.042984 0.418045
v -0.472025 -1.959425 0.902676
v -0.258374 -2.750137 1.567305
v -0.088892 -3.765950 1.807929
v -0.462498 -3.700818 1.933392
v -0.293016 -2.939114 1.216467
v -0.079365 -1.927940 0.972155
v -0.366355 -0.951259 0.762588
vn -0.5199 -0.1161 -0.8463
vn -0.9605 -0.1171 -0.2525
vn 0.5330 -0.4013 -0.7449
vn 0.6689 0.3348 0.6637
vn -0.8979 0.1515 0.4133
s 0
f 137//101 144//101 136//101 135//101
f 133//102 134//102 141//102 140//102
f 140//103 141//103 142//103 139//103
f 139//104 142//104 143//104 138//104
f 138//105 143//105 144//105 137//105
o 平面.009
v -0.687768 -4.976778 -0.623691
v -0.447645 -4.934182 -0.306632
v -0.367707 -0.000000 -1.130912
v -0.767707 -0.000000 -1.130912
v -0.477047 -1.015881 -1.260321
v -0.764036 -1.998843 -0.997618
v -0.550386 -2.945709 -0.598723
v -0.380903 -3.978322 -0.689269
v -0.754510 -3.954195 -0.548998
v -0.585028 -3.015527 -0.991057
v -0.371377 -1.987466 -0.922192
v -0.658366 -0.983489 -0.905252
vn -0.5225 -0.0410 -0.8517
vn -0.9607 -0.0427 -0.2742
vn 0.5315 -0.1487 -0.8339
vn 0.6690 0.1225 0.7331
vn -0.8985 0.0539 0.4356
s 0
f 149//106 156//106 148//106 147//106
f 145//107 146//107 153//107 152//107
f 152//108 153//108 154//108 151//108
f 151//109 154//109 155//109 150//109
f 150//110 155//110 156//110 149//110
o 平面.010
v 0.719852 -4.997978 1.043783
v 0.959975 -4.974081 1.362796
v 1.039913 -0.000000 0.829786
v 0.639913 -0.000000 0.829786
v 0.930573 -1.008968 0.678671
v 0.643584 -2.001052 0.887499
v 0.857234 -2.974301 1.216397
v 1.026717 -3.996194 1.045912
v 0.653110 -3.982617 1.187840
v 0.822593 -3.013555 0.819838
v 1.036243 -1.994670 0.963512
v 0.749254 -0.990837 1.034754
vn -0.5227 -0.0229 -0.8522
vn -0.9608 -0.0240 -0.2763
vn 0.5311 -0.0836 -0.8431
vn 0.6690 0.0688 0.7401
vn -0.8986 0.0302 0.4378
s 0
f 161//111 168//111 160//111 159//111
f 157//112 158//112 165//112 164//112
f 164//113 165//113 166//113 163//113
f 163//114 166//114 167//114 162//114
f 162//115 167//115 168//115 161//115
o 平面.011
v -1.308364 -4.835048 1.060897
v -1.068241 -4.743112 1.367310
v -0.988302 -0.000000 -0.222807
v -1.388302 -0.000000 -0.222807
v -1.097643 -1.033783 -0.292103
v -1.384632 -1.979114 0.114793
v -1.170981 -2.832939 0.691074
v -1.001499 -3.865785 0.816410
v -1.375105 -3.814419 0.948461
v -1.205623 -2.981862 0.321450
v -0.991972 -1.954547 0.187008
v -1.278962 -0.962979 0.057340
vn -0.5211 -0.0896 -0.8488
vn -0.9606 -0.0917 -0.2625
vn 0.5325 -0.3166 -0.7850
vn 0.6689 0.2627 0.6954
vn -0.8982 0.1174 0.4236
s 0
f 173//116 180//116 172//116 171//116
f 169//117 170//117 177//117 176//117
f 176//118 177//118 178//118 175//118
f 175//119 178//119 179//119 174//119
f 174//120 179//120 180//120 173//120
