# Blender 4.4.3
# www.blender.org
o ICO球
v -1.447215 -0.304170 -1.051451
v 0.552776 -0.304171 -1.701298
v 1.788852 -0.304164 -0.000000
v 0.552776 -0.304171 1.701298
v -1.447215 -0.304170 1.051451
v -0.552776 0.666966 -1.701298
v 1.447215 0.666965 -1.051451
v 1.447215 0.666965 1.051451
v -0.552776 0.666966 1.701298
v -1.788852 0.666960 -0.000000
v -0.000000 1.491360 -0.000000
v -0.525738 -0.421269 -1.618023
v -1.701296 -0.421266 -0.000000
v 1.376379 -0.421267 -0.999994
v 1.376379 -0.421267 0.999994
v -0.525738 -0.421269 1.618023
v -1.902116 -0.000000 -0.618025
v -1.902116 -0.000000 0.618025
v -0.000000 -0.000000 -2.000000
v -1.175571 -0.000000 -1.618033
v 1.902116 -0.000000 -0.618025
v 1.175571 -0.000000 -1.618033
v 1.175571 -0.000000 1.618033
v 1.902116 -0.000000 0.618025
v -1.175571 -0.000000 1.618033
v -0.000000 -0.000000 2.000000
v -1.376379 0.784062 -0.999994
v 0.525738 0.784064 -1.618023
v 1.701296 0.784062 -0.000000
v 0.525738 0.784064 1.618023
v -1.376379 0.784062 0.999994
v -0.324911 1.268632 -0.999991
v -1.051460 1.268628 -0.000000
v 0.850645 1.268632 -0.618023
v 0.850645 1.268632 0.618023
v -0.324911 1.268632 0.999991
vn -0.6882 -0.6838 -0.2425
vn 0.0179 -0.6838 -0.7295
vn 0.6993 -0.6838 -0.2084
vn 0.4143 -0.6838 0.6007
vn -0.4433 -0.6838 0.5796
vn -0.7582 -0.3490 -0.5508
vn 0.2896 -0.3490 -0.8913
vn 0.9371 -0.3490 -0.0000
vn 0.2896 -0.3490 0.8913
vn -0.7582 -0.3490 0.5508
vn -0.3520 0.7638 -0.5409
vn 0.4057 0.7638 -0.5019
vn 0.6027 0.7638 0.2307
vn -0.0332 0.7638 0.6445
vn -0.6233 0.7638 0.1676
vn -0.2049 0.9674 0.1489
vn -0.4004 0.8689 0.2909
vn -0.3520 0.7638 0.5409
vn 0.0783 0.9674 0.2409
vn 0.1530 0.8689 0.4707
vn 0.4057 0.7638 0.5019
vn 0.2533 0.9674 -0.0000
vn 0.4950 0.8689 -0.0000
vn 0.6027 0.7638 -0.2307
vn 0.0783 0.9674 -0.2409
vn 0.1530 0.8689 -0.4707
vn -0.0332 0.7638 -0.6445
vn -0.2049 0.9674 -0.1489
vn -0.4004 0.8689 -0.2909
vn -0.6233 0.7638 -0.1676
vn -0.8533 0.4249 0.3022
vn -0.7837 0.2481 0.5694
vn -0.5511 0.4249 0.7181
vn 0.0237 0.4249 0.9049
vn 0.2994 0.2481 0.9213
vn 0.5127 0.4249 0.7460
vn 0.8680 0.4249 0.2571
vn 0.9687 0.2481 -0.0000
vn 0.8680 0.4249 -0.2571
vn 0.5127 0.4249 -0.7460
vn 0.2994 0.2481 -0.9213
vn 0.0237 0.4249 -0.9049
vn -0.5511 0.4249 -0.7181
vn -0.7837 0.2481 -0.5694
vn -0.8533 0.4249 -0.3022
vn -0.3047 0.1674 0.9376
vn -0.2789 -0.4303 0.8585
vn 0.0179 -0.6838 0.7295
vn 0.7976 0.1674 0.5795
vn 0.7303 -0.4303 0.5306
vn 0.6993 -0.6838 0.2084
vn 0.7976 0.1674 -0.5795
vn 0.7303 -0.4303 -0.5306
vn 0.4143 -0.6838 -0.6007
vn -0.3047 0.1674 -0.9376
vn -0.2789 -0.4303 -0.8585
vn -0.4433 -0.6838 -0.5796
vn -0.9859 0.1674 -0.0000
vn -0.9027 -0.4303 -0.0000
vn -0.6882 -0.6838 0.2425
s 0
f 1//1 13//1 17//1
f 2//2 12//2 19//2
f 3//3 14//3 21//3
f 4//4 15//4 23//4
f 5//5 16//5 25//5
f 1//6 17//6 20//6
f 2//7 19//7 22//7
f 3//8 21//8 24//8
f 4//9 23//9 26//9
f 5//10 25//10 18//10
f 6//11 27//11 32//11
f 7//12 28//12 34//12
f 8//13 29//13 35//13
f 9//14 30//14 36//14
f 10//15 31//15 33//15
f 33//16 36//16 11//16
f 33//17 31//17 36//17
f 31//18 9//18 36//18
f 36//19 35//19 11//19
f 36//20 30//20 35//20
f 30//21 8//21 35//21
f 35//22 34//22 11//22
f 35//23 29//23 34//23
f 29//24 7//24 34//24
f 34//25 32//25 11//25
f 34//26 28//26 32//26
f 28//27 6//27 32//27
f 32//28 33//28 11//28
f 32//29 27//29 33//29
f 27//30 10//30 33//30
f 18//31 31//31 10//31
f 18//32 25//32 31//32
f 25//33 9//33 31//33
f 26//34 30//34 9//34
f 26//35 23//35 30//35
f 23//36 8//36 30//36
f 24//37 29//37 8//37
f 24//38 21//38 29//38
f 21//39 7//39 29//39
f 22//40 28//40 7//40
f 22//41 19//41 28//41
f 19//42 6//42 28//42
f 20//43 27//43 6//43
f 20//44 17//44 27//44
f 17//45 10//45 27//45
f 25//46 26//46 9//46
f 25//47 16//47 26//47
f 16//48 4//48 26//48
f 23//49 24//49 8//49
f 23//50 15//50 24//50
f 15//51 3//51 24//51
f 21//52 22//52 7//52
f 21//53 14//53 22//53
f 14//54 2//54 22//54
f 19//55 20//55 6//55
f 19//56 12//56 20//56
f 12//57 1//57 20//57
f 17//58 18//58 10//58
f 17//59 13//59 18//59
f 13//60 5//60 18//60
o 平面
v -0.120062 -4.979917 0.475405
v 0.120062 -4.939349 0.792730
v 0.200000 -0.000000 -0.000000
v -0.200000 -0.000000 -0.000000
v 0.090660 -1.015135 -0.131787
v -0.196330 -1.999215 0.125063
v 0.017321 -2.949173 0.516441
v 0.186803 -3.980899 0.417171
v -0.186803 -3.957911 0.557660
v -0.017321 -3.015688 0.123534
v 0.196330 -1.988379 0.200569
v -0.090659 -0.984295 0.223421
vn -0.5225 -0.0390 -0.8517
vn -0.9607 -0.0406 -0.2745
vn 0.5315 -0.1417 -0.8351
vn 0.6690 0.1167 0.7341
vn -0.8985 0.0513 0.4359
s 0
f 41//61 48//61 40//61 39//61
f 37//62 38//62 45//62 44//62
f 44//63 45//63 46//63 43//63
f 43//64 46//64 47//64 42//64
f 42//65 47//65 48//65 41//65
o 平面.001
v 0.698453 -4.965523 0.821585
v 0.938576 -4.916535 1.137720
v 1.018514 -0.000000 0.213996
v 0.618514 -0.000000 0.213996
v 0.909174 -1.018226 0.092121
v 0.622185 -1.997457 0.373304
v 0.835835 -2.934203 0.795793
v 1.005318 -3.969167 0.732844
v 0.631711 -3.941454 0.872366
v 0.801193 -3.014415 0.405452
v 1.014844 -1.984371 0.448453
v 0.727855 -0.980932 0.446709
vn -0.5224 -0.0472 -0.8514
vn -0.9607 -0.0491 -0.2732
vn 0.5316 -0.1708 -0.8296
vn 0.6689 0.1408 0.7298
vn -0.8985 0.0620 0.4346
s 0
f 53//66 60//66 52//66 51//66
f 49//67 50//67 57//67 56//67
f 56//68 57//68 58//68 55//68
f 55//69 58//69 59//69 54//69
f 54//70 59//70 60//70 53//70
o 平面.002
v -1.037918 -4.350142 2.829784
v -0.797795 -4.183363 3.102777
v -0.717856 -0.000000 0.359593
v -1.117856 -0.000000 0.359593
v -0.827197 -1.059817 0.394797
v -1.114186 -1.898706 1.032509
v -0.900536 -2.539892 1.853429
v -0.731053 -3.487698 2.313884
v -1.104660 -3.397980 2.422361
v -0.935177 -2.800354 1.551834
v -0.721527 -1.854213 1.094469
v -1.008516 -0.926103 0.725317
vn -0.5163 -0.1695 -0.8395
vn -0.9603 -0.1639 -0.2258
vn 0.5339 -0.5518 -0.6407
vn 0.6688 0.4663 0.5790
vn -0.8971 0.2187 0.3838
s 0
f 65//71 72//71 64//71 63//71
f 61//72 62//72 69//72 68//72
f 68//73 69//73 70//73 67//73
f 67//74 70//74 71//74 66//74
f 66//75 71//75 72//75 65//75
o 平面.003
v 0.099369 -4.765439 0.469756
v 0.339492 -4.658422 0.771233
v 0.419431 -0.000000 -1.052142
v 0.019431 -0.000000 -1.052142
v 0.310090 -1.039161 -1.101956
v 0.023101 -1.968532 -0.649998
v 0.236751 -2.786842 -0.021818
v 0.406234 -3.811265 0.170559
v 0.032627 -3.751825 0.298967
v 0.202110 -2.959254 -0.381087
v 0.415760 -1.939933 -0.579283
v 0.128771 -0.956253 -0.755185
vn -0.5205 -0.1050 -0.8474
vn -0.9605 -0.1065 -0.2570
vn 0.5328 -0.3663 -0.7629
vn 0.6689 0.3049 0.6780
vn -0.8980 0.1372 0.4180
s 0
f 77//76 84//76 76//76 75//76
f 73//77 74//77 81//77 80//77
f 80//78 81//78 82//78 79//78
f 79//79 82//79 83//79 78//79
f 78//80 83//80 84//80 77//80
o 平面.004
v -0.024975 -4.663173 2.875710
v 0.215148 -4.537873 3.170058
v 0.295087 -0.000000 1.064520
v -0.104913 -0.000000 1.064520
v 0.185746 -1.045610 1.039236
v -0.101243 -1.952314 1.546672
v 0.112407 -2.722859 2.236133
v 0.281890 -3.731421 2.510207
v -0.091717 -3.662402 2.633469
v 0.077766 -2.923147 1.891626
v 0.291416 -1.918834 1.615212
v 0.004427 -0.947707 1.382074
vn -0.5195 -0.1240 -0.8454
vn -0.9605 -0.1244 -0.2491
vn 0.5331 -0.4252 -0.7315
vn 0.6689 0.3553 0.6530
vn -0.8978 0.1616 0.4096
s 0
f 89//81 96//81 88//81 87//81
f 85//82 86//82 93//82 92//82
f 92//83 93//83 94//83 91//83
f 91//84 94//84 95//84 90//84
f 90//85 95//85 96//85 89//85
o 平面.005
v -0.744595 -4.939904 0.288512
v -0.504472 -4.879356 0.602638
v -0.424534 -0.000000 -0.500752
v -0.824534 -0.000000 -0.500752
v -0.533874 -1.022447 -0.608834
v -0.820863 -1.994104 -0.294110
v -0.607213 -2.911105 0.170597
v -0.437730 -3.948594 0.157867
v -0.811337 -3.914435 0.295796
v -0.641854 -3.010024 -0.215427
v -0.428204 -1.977928 -0.219565
v -0.715193 -0.976243 -0.255296
vn -0.5221 -0.0585 -0.8509
vn -0.9607 -0.0606 -0.2710
vn 0.5319 -0.2106 -0.8202
vn 0.6689 0.1738 0.7227
vn -0.8984 0.0768 0.4324
s 0
f 101//86 108//86 100//86 99//86
f 97//87 98//87 105//87 104//87
f 104//88 105//88 106//88 103//88
f 103//89 106//89 107//89 102//89
f 102//90 107//90 108//90 101//90
o 平面.006
v 0.847684 -4.799010 0.951111
v 1.087807 -4.698917 1.254956
v 1.167746 -0.000000 -0.461367
v 0.767746 -0.000000 -0.461367
v 1.058405 -1.036697 -0.520204
v 0.771416 -1.973685 -0.089011
v 0.985067 -2.808730 0.515486
v 1.154549 -3.837533 0.677034
v 0.780942 -3.781783 0.807181
v 0.950425 -2.970407 0.151260
v 1.164075 -1.946937 -0.017574
v 0.877086 -0.959374 -0.172146
vn -0.5208 -0.0979 -0.8481
vn -0.9605 -0.0998 -0.2596
vn 0.5326 -0.3436 -0.7735
vn 0.6689 0.2856 0.6863
vn -0.8981 0.1280 0.4207
s 0
f 113//91 120//91 112//91 111//91
f 109//92 110//92 117//92 116//92
f 116//93 117//93 118//93 115//93
f 115//94 118//94 119//94 114//94
f 114//95 119//95 120//95 113//95
o 平面.007
v 0.139879 -4.341344 2.014128
v 0.380003 -4.173596 2.286527
v 0.459941 -0.000000 -0.471495
v 0.059941 -0.000000 -0.471495
v 0.350601 -1.060139 -0.434780
v 0.063611 -1.897123 0.206059
v 0.277262 -2.534907 1.029904
v 0.446744 -3.480854 1.494717
v 0.073138 -3.390673 1.602795
v 0.242620 -2.796713 0.729475
v 0.456271 -1.852375 0.267835
v 0.169282 -0.925551 -0.104614
vn -0.5162 -0.1706 -0.8393
vn -0.9603 -0.1648 -0.2252
vn 0.5339 -0.5546 -0.6383
vn 0.6688 0.4688 0.5770
vn -0.8971 0.2201 0.3831
s 0
f 125//96 132//96 124//96 123//96
f 121//97 122//97 129//97 128//97
f 128//98 129//98 130//98 127//98
f 127//99 130//99 131//99 126//99
f 126//100 131//100 132//100 125//100
o 平面.008
v -0.395757 -4.705960 2.150407
v -0.155634 -4.587877 2.447724
v -0.075695 -0.000000 0.453490
v -0.475695 -0.000000 0.453490
v -0.185036 -1.043075 0.418392
v -0.472025 -1.959191 0.903808
v -0.258374 -2.749222 1.569299
v -0.088892 -3.764802 1.811076
v -0.462498 -3.699534 1.936465
v -0.293016 -2.938591 1.218672
v -0.079365 -1.927637 0.973255
v -0.366355 -0.951138 0.762879
vn -0.5199 -0.1164 -0.8463
vn -0.9605 -0.1173 -0.2524
vn 0.5330 -0.4021 -0.7445
vn 0.6689 0.3355 0.6634
vn -0.8979 0.1519 0.4131
s 0
f 137//101 144//101 136//101 135//101
f 133//102 134//102 141//102 140//102
f 140//103 141//103 142//103 139//103
f 139//104 142//104 143//104 138//104
f 138//105 143//105 144//105 137//105
o 平面.009
v -0.687768 -4.968834 -0.551023
v -0.447645 -4.921610 -0.234620
v -0.367707 -0.000000 -1.130912
v -0.767707 -0.000000 -1.130912
v -0.477047 -1.017580 -1.254874
v -0.764036 -1.997872 -0.978794
v -0.550386 -2.937467 -0.562797
v -0.380903 -3.971849 -0.633372
v -0.754510 -3.945124 -0.493635
v -0.585028 -3.014815 -0.953715
v -0.371377 -1.985258 -0.903564
v -0.658366 -0.981641 -0.900146
vn -0.5224 -0.0455 -0.8515
vn -0.9607 -0.0473 -0.2735
vn 0.5316 -0.1647 -0.8308
vn 0.6689 0.1358 0.7308
vn -0.8985 0.0598 0.4349
s 0
f 149//106 156//106 148//106 147//106
f 145//107 146//107 153//107 152//107
f 152//108 153//108 154//108 151//108
f 151//109 154//109 155//109 150//109
f 150//110 155//110 156//110 149//110
o 平面.010
v 0.719852 -5.000692 0.966413
v 0.959975 -4.981734 1.285758
v 1.039913 -0.000000 0.829786
v 0.639913 -0.000000 0.829786
v 0.930573 -1.007127 0.673008
v 0.643584 -2.001187 0.867631
v 0.857234 -2.980605 1.177801
v 1.026717 -3.998721 0.986412
v 0.653110 -3.987943 1.128646
v 0.822593 -3.011758 0.780523
v 1.036243 -1.996124 0.943742
v 0.749254 -0.992751 1.029261
vn -0.5228 -0.0182 -0.8523
vn -0.9608 -0.0190 -0.2766
vn 0.5310 -0.0664 -0.8447
vn 0.6690 0.0546 0.7413
vn -0.8986 0.0239 0.4382
s 0
f 161//111 168//111 160//111 159//111
f 157//112 158//112 165//112 164//112
f 164//113 165//113 166//113 163//113
f 163//114 166//114 167//114 162//114
f 162//115 167//115 168//115 161//115
o 平面.011
v -1.308364 -4.831284 1.074991
v -1.068241 -4.738455 1.381134
v -0.988302 -0.000000 -0.222807
v -1.388302 -0.000000 -0.222807
v -1.097643 -1.034102 -0.290966
v -1.384632 -1.978552 0.118582
v -1.170981 -2.830369 0.697968
v -1.001499 -3.862831 0.827263
v -1.375105 -3.810983 0.959113
v -1.205623 -2.980694 0.328912
v -0.991972 -1.953746 0.190715
v -1.278962 -0.962587 0.058332
vn -0.5211 -0.0905 -0.8487
vn -0.9606 -0.0926 -0.2622
vn 0.5325 -0.3196 -0.7838
vn 0.6689 0.2652 0.6944
vn -0.8982 0.1185 0.4233
s 0
f 173//116 180//116 172//116 171//116
f 169//117 170//117 177//117 176//117
f 176//118 177//118 178//118 175//118
f 175//119 178//119 179//119 174//119
f 174//120 179//120 180//120 173//120
