# Blender 4.4.3
# www.blender.org
o ICO球
v -1.447215 -0.304170 -1.051451
v 0.552776 -0.304171 -1.701298
v 1.788852 -0.304164 -0.000000
v 0.552776 -0.304171 1.701298
v -1.447215 -0.304170 1.051451
v -0.552776 0.666966 -1.701298
v 1.447215 0.666965 -1.051451
v 1.447215 0.666965 1.051451
v -0.552776 0.666966 1.701298
v -1.788852 0.666960 -0.000000
v -0.000000 1.491360 -0.000000
v -0.525738 -0.421269 -1.618023
v -1.701296 -0.421266 -0.000000
v 1.376379 -0.421267 -0.999994
v 1.376379 -0.421267 0.999994
v -0.525738 -0.421269 1.618023
v -1.902116 -0.000000 -0.618025
v -1.902116 -0.000000 0.618025
v -0.000000 -0.000000 -2.000000
v -1.175571 -0.000000 -1.618033
v 1.902116 -0.000000 -0.618025
v 1.175571 -0.000000 -1.618033
v 1.175571 -0.000000 1.618033
v 1.902116 -0.000000 0.618025
v -1.175571 -0.000000 1.618033
v -0.000000 -0.000000 2.000000
v -1.376379 0.784062 -0.999994
v 0.525738 0.784064 -1.618023
v 1.701296 0.784062 -0.000000
v 0.525738 0.784064 1.618023
v -1.376379 0.784062 0.999994
v -0.324911 1.268632 -0.999991
v -1.051460 1.268628 -0.000000
v 0.850645 1.268632 -0.618023
v 0.850645 1.268632 0.618023
v -0.324911 1.268632 0.999991
vn -0.6882 -0.6838 -0.2425
vn 0.0179 -0.6838 -0.7295
vn 0.6993 -0.6838 -0.2084
vn 0.4143 -0.6838 0.6007
vn -0.4433 -0.6838 0.5796
vn -0.7582 -0.3490 -0.5508
vn 0.2896 -0.3490 -0.8913
vn 0.9371 -0.3490 -0.0000
vn 0.2896 -0.3490 0.8913
vn -0.7582 -0.3490 0.5508
vn -0.3520 0.7638 -0.5409
vn 0.4057 0.7638 -0.5019
vn 0.6027 0.7638 0.2307
vn -0.0332 0.7638 0.6445
vn -0.6233 0.7638 0.1676
vn -0.2049 0.9674 0.1489
vn -0.4004 0.8689 0.2909
vn -0.3520 0.7638 0.5409
vn 0.0783 0.9674 0.2409
vn 0.1530 0.8689 0.4707
vn 0.4057 0.7638 0.5019
vn 0.2533 0.9674 -0.0000
vn 0.4950 0.8689 -0.0000
vn 0.6027 0.7638 -0.2307
vn 0.0783 0.9674 -0.2409
vn 0.1530 0.8689 -0.4707
vn -0.0332 0.7638 -0.6445
vn -0.2049 0.9674 -0.1489
vn -0.4004 0.8689 -0.2909
vn -0.6233 0.7638 -0.1676
vn -0.8533 0.4249 0.3022
vn -0.7837 0.2481 0.5694
vn -0.5511 0.4249 0.7181
vn 0.0237 0.4249 0.9049
vn 0.2994 0.2481 0.9213
vn 0.5127 0.4249 0.7460
vn 0.8680 0.4249 0.2571
vn 0.9687 0.2481 -0.0000
vn 0.8680 0.4249 -0.2571
vn 0.5127 0.4249 -0.7460
vn 0.2994 0.2481 -0.9213
vn 0.0237 0.4249 -0.9049
vn -0.5511 0.4249 -0.7181
vn -0.7837 0.2481 -0.5694
vn -0.8533 0.4249 -0.3022
vn -0.3047 0.1674 0.9376
vn -0.2789 -0.4303 0.8585
vn 0.0179 -0.6838 0.7295
vn 0.7976 0.1674 0.5795
vn 0.7303 -0.4303 0.5306
vn 0.6993 -0.6838 0.2084
vn 0.7976 0.1674 -0.5795
vn 0.7303 -0.4303 -0.5306
vn 0.4143 -0.6838 -0.6007
vn -0.3047 0.1674 -0.9376
vn -0.2789 -0.4303 -0.8585
vn -0.4433 -0.6838 -0.5796
vn -0.9859 0.1674 -0.0000
vn -0.9027 -0.4303 -0.0000
vn -0.6882 -0.6838 0.2425
s 0
f 1//1 13//1 17//1
f 2//2 12//2 19//2
f 3//3 14//3 21//3
f 4//4 15//4 23//4
f 5//5 16//5 25//5
f 1//6 17//6 20//6
f 2//7 19//7 22//7
f 3//8 21//8 24//8
f 4//9 23//9 26//9
f 5//10 25//10 18//10
f 6//11 27//11 32//11
f 7//12 28//12 34//12
f 8//13 29//13 35//13
f 9//14 30//14 36//14
f 10//15 31//15 33//15
f 33//16 36//16 11//16
f 33//17 31//17 36//17
f 31//18 9//18 36//18
f 36//19 35//19 11//19
f 36//20 30//20 35//20
f 30//21 8//21 35//21
f 35//22 34//22 11//22
f 35//23 29//23 34//23
f 29//24 7//24 34//24
f 34//25 32//25 11//25
f 34//26 28//26 32//26
f 28//27 6//27 32//27
f 32//28 33//28 11//28
f 32//29 27//29 33//29
f 27//30 10//30 33//30
f 18//31 31//31 10//31
f 18//32 25//32 31//32
f 25//33 9//33 31//33
f 26//34 30//34 9//34
f 26//35 23//35 30//35
f 23//36 8//36 30//36
f 24//37 29//37 8//37
f 24//38 21//38 29//38
f 21//39 7//39 29//39
f 22//40 28//40 7//40
f 22//41 19//41 28//41
f 19//42 6//42 28//42
f 20//43 27//43 6//43
f 20//44 17//44 27//44
f 17//45 10//45 27//45
f 25//46 26//46 9//46
f 25//47 16//47 26//47
f 16//48 4//48 26//48
f 23//49 24//49 8//49
f 23//50 15//50 24//50
f 15//51 3//51 24//51
f 21//52 22//52 7//52
f 21//53 14//53 22//53
f 14//54 2//54 22//54
f 19//55 20//55 6//55
f 19//56 12//56 20//56
f 12//57 1//57 20//57
f 17//58 18//58 10//58
f 17//59 13//59 18//59
f 13//60 5//60 18//60
o 平面
v -0.120062 -4.968040 0.586655
v 0.120062 -4.920385 0.902994
v 0.200000 -0.000000 -0.000000
v -0.200000 -0.000000 -0.000000
v 0.090659 -1.017738 -0.123451
v -0.196330 -1.997773 0.153875
v 0.017321 -2.936676 0.571459
v 0.186803 -3.971205 0.502745
v -0.186803 -3.944239 0.642430
v -0.017321 -3.014723 0.180679
v 0.196330 -1.985043 0.229085
v -0.090659 -0.981468 0.231243
vn -0.5224 -0.0459 -0.8515
vn -0.9607 -0.0477 -0.2734
vn 0.5316 -0.1662 -0.8305
vn 0.6689 0.1370 0.7306
vn -0.8985 0.0603 0.4348
s 0
f 41//61 48//61 40//61 39//61
f 37//62 38//62 45//62 44//62
f 44//63 45//63 46//63 43//63
f 43//64 46//64 47//64 42//64
f 42//65 47//65 48//65 41//65
o 平面.001
v 0.698453 -4.964209 0.832232
v 0.938576 -4.914543 1.148260
v 1.018514 -0.000000 0.213996
v 0.618514 -0.000000 0.213996
v 0.909174 -1.018474 0.092923
v 0.622185 -1.997291 0.376069
v 0.835835 -2.932930 0.801049
v 1.005318 -3.968103 0.741034
v 0.631711 -3.940012 0.880470
v 0.801193 -3.014243 0.410936
v 1.014844 -1.984024 0.451186
v 0.727855 -0.980660 0.447456
vn -0.5224 -0.0479 -0.8514
vn -0.9607 -0.0497 -0.2731
vn 0.5317 -0.1731 -0.8291
vn 0.6689 0.1428 0.7295
vn -0.8985 0.0629 0.4345
s 0
f 53//66 60//66 52//66 51//66
f 49//67 50//67 57//67 56//67
f 56//68 57//68 58//68 55//68
f 55//69 58//69 59//69 54//69
f 54//70 59//70 60//70 53//70
o 平面.002
v -1.037918 -4.392397 2.753843
v -0.797795 -4.230385 3.029692
v -0.717856 -0.000000 0.359593
v -1.117856 -0.000000 0.359593
v -0.827197 -1.058226 0.387432
v -1.114186 -1.906258 1.009814
v -0.900536 -2.563916 1.816226
v -0.731053 -3.520575 2.255226
v -1.104660 -3.433151 2.365632
v -0.935177 -2.817717 1.509004
v -0.721527 -1.863023 1.072658
v -1.008516 -0.928782 0.719649
vn -0.5167 -0.1640 -0.8403
vn -0.9603 -0.1595 -0.2289
vn 0.5338 -0.5378 -0.6526
vn 0.6688 0.4538 0.5888
vn -0.8972 0.2120 0.3873
s 0
f 65//71 72//71 64//71 63//71
f 61//72 62//72 69//72 68//72
f 68//73 69//73 70//73 67//73
f 67//74 70//74 71//74 66//74
f 66//75 71//75 72//75 65//75
o 平面.003
v 0.099369 -4.780109 0.423032
v 0.339492 -4.676048 0.725542
v 0.419431 -0.000000 -1.052142
v 0.019431 -0.000000 -1.052142
v 0.310090 -1.038111 -1.105825
v 0.023101 -1.970795 -0.662748
v 0.236751 -2.796339 -0.044648
v 0.406234 -3.822740 0.134559
v 0.032627 -3.764870 0.263723
v 0.202110 -2.964179 -0.406075
v 0.415760 -1.942986 -0.591718
v 0.128771 -0.957593 -0.758492
vn -0.5206 -0.1019 -0.8477
vn -0.9605 -0.1037 -0.2581
vn 0.5327 -0.3566 -0.7675
vn 0.6689 0.2966 0.6816
vn -0.8981 0.1333 0.4192
s 0
f 77//76 84//76 76//76 75//76
f 73//77 74//77 81//77 80//77
f 80//78 81//78 82//78 79//78
f 79//79 82//79 83//79 78//79
f 78//80 83//80 84//80 77//80
o 平面.004
v -0.024975 -4.735065 2.678442
v 0.215148 -4.622227 2.977789
v 0.295087 -0.000000 1.064520
v -0.104913 -0.000000 1.064520
v 0.185746 -1.041223 1.022399
v -0.101243 -1.963798 1.491910
v 0.112407 -2.767469 2.139796
v 0.281890 -3.787528 2.358136
v -0.091717 -3.725012 2.484993
v 0.077766 -2.948831 1.784961
v 0.291416 -1.933644 1.561977
v 0.004427 -0.953584 1.368004
vn -0.5202 -0.1110 -0.8468
vn -0.9605 -0.1122 -0.2546
vn 0.5329 -0.3852 -0.7534
vn 0.6689 0.3210 0.6705
vn -0.8980 0.1449 0.4155
s 0
f 89//81 96//81 88//81 87//81
f 85//82 86//82 93//82 92//82
f 92//83 93//83 94//83 91//83
f 91//84 94//84 95//84 90//84
f 90//85 95//85 96//85 89//85
o 平面.005
v -0.744595 -4.948840 0.230393
v -0.504472 -4.891988 0.545209
v -0.424534 -0.000000 -0.500752
v -0.824534 -0.000000 -0.500752
v -0.533874 -1.021100 -0.613270
v -0.820863 -1.995297 -0.309290
v -0.607213 -2.918815 0.141981
v -0.437730 -3.955740 0.113150
v -0.811337 -3.923637 0.251621
v -0.641854 -3.011766 -0.245524
v -0.428204 -1.980110 -0.234538
v -0.715193 -0.977753 -0.259371
vn -0.5222 -0.0549 -0.8511
vn -0.9607 -0.0569 -0.2717
vn 0.5318 -0.1979 -0.8234
vn 0.6689 0.1633 0.7252
vn -0.8984 0.0721 0.4331
s 0
f 101//86 108//86 100//86 99//86
f 97//87 98//87 105//87 104//87
f 104//88 105//88 106//88 103//88
f 103//89 106//89 107//89 102//89
f 102//90 107//90 108//90 101//90
o 平面.006
v 0.847684 -4.823250 0.865976
v 1.087807 -4.728549 1.171546
v 1.167746 -0.000000 -0.461367
v 0.767746 -0.000000 -0.461367
v 1.058405 -1.034772 -0.527138
v 0.771416 -1.977350 -0.112024
v 0.985067 -2.824921 0.473860
v 1.154549 -3.856530 0.611458
v 0.780942 -3.803673 0.742881
v 0.950425 -2.978180 0.106013
v 1.164075 -1.952043 -0.040065
v 0.877086 -0.961765 -0.178149
vn -0.5210 -0.0924 -0.8485
vn -0.9606 -0.0945 -0.2615
vn 0.5325 -0.3258 -0.7812
vn 0.6689 0.2705 0.6924
vn -0.8982 0.1210 0.4227
s 0
f 113//91 120//91 112//91 111//91
f 109//92 110//92 117//92 116//92
f 116//93 117//93 118//93 115//93
f 115//94 118//94 119//94 114//94
f 114//95 119//95 120//95 113//95
o 平面.007
v 0.139879 -4.416935 1.877180
v 0.380003 -4.257786 2.154691
v 0.459941 -0.000000 -0.471495
v 0.059941 -0.000000 -0.471495
v 0.350601 -1.057264 -0.448020
v 0.063611 -1.910599 0.165204
v 0.277262 -2.577938 0.962823
v 0.446744 -3.539667 1.388941
v 0.073138 -3.453634 1.500476
v 0.242620 -2.827703 0.652312
v 0.456271 -1.868121 0.228562
v 0.169282 -0.930362 -0.114824
vn -0.5170 -0.1608 -0.8407
vn -0.9603 -0.1568 -0.2307
vn 0.5337 -0.5293 -0.6595
vn 0.6688 0.4463 0.5945
vn -0.8973 0.2080 0.3894
s 0
f 125//96 132//96 124//96 123//96
f 121//97 122//97 129//97 128//97
f 128//98 129//98 130//98 127//98
f 127//99 130//99 131//99 126//99
f 126//100 131//100 132//100 125//100
o 平面.008
v -0.395757 -4.715753 2.123000
v -0.155634 -4.599401 2.420999
v -0.075695 -0.000000 0.453490
v -0.475695 -0.000000 0.453490
v -0.185036 -1.042464 0.416064
v -0.472025 -1.960748 0.896219
v -0.258374 -2.755330 1.555915
v -0.088892 -3.772447 1.789950
v -0.462498 -3.708085 1.915832
v -0.293016 -2.942062 1.203876
v -0.079365 -1.929656 0.965875
v -0.366355 -0.951950 0.760927
vn -0.5200 -0.1146 -0.8464
vn -0.9605 -0.1157 -0.2532
vn 0.5329 -0.3966 -0.7475
vn 0.6689 0.3307 0.6657
vn -0.8979 0.1496 0.4139
s 0
f 137//101 144//101 136//101 135//101
f 133//102 134//102 141//102 140//102
f 140//103 141//103 142//103 139//103
f 139//104 142//104 143//104 138//104
f 138//105 143//105 144//105 137//105
o 平面.009
v -0.687768 -4.980654 -0.663284
v -0.447645 -4.940580 -0.345896
v -0.367707 -0.000000 -1.130912
v -0.767707 -0.000000 -1.130912
v -0.477047 -1.014953 -1.263279
v -0.764036 -1.999301 -1.007860
v -0.550386 -2.950006 -0.618323
v -0.380903 -3.981506 -0.719723
v -0.754510 -3.958796 -0.579182
v -0.585028 -3.015713 -1.011365
v -0.371377 -1.988597 -0.932335
v -0.658366 -0.984492 -0.908039
vn -0.5225 -0.0386 -0.8518
vn -0.9607 -0.0402 -0.2745
vn 0.5315 -0.1400 -0.8354
vn 0.6690 0.1153 0.7343
vn -0.8985 0.0507 0.4360
s 0
f 149//106 156//106 148//106 147//106
f 145//107 146//107 153//107 152//107
f 152//108 153//108 154//108 151//108
f 151//109 154//109 155//109 150//109
f 150//110 155//110 156//110 149//110
o 平面.010
v 0.719852 -4.993510 1.130512
v 0.959975 -4.964079 1.449063
v 1.039913 -0.000000 0.829786
v 0.639913 -0.000000 0.829786
v 0.930573 -1.011022 0.685048
v 0.643584 -2.000680 0.909800
v 0.857234 -2.966620 1.259565
v 1.026717 -3.992278 1.112610
v 0.653110 -3.975569 1.254131
v 0.822593 -3.014940 0.864009
v 1.036243 -1.992819 0.985674
v 0.749254 -0.988680 1.040891
vn -0.5227 -0.0283 -0.8521
vn -0.9608 -0.0295 -0.2758
vn 0.5313 -0.1030 -0.8409
vn 0.6690 0.0847 0.7385
vn -0.8986 0.0372 0.4373
s 0
f 161//111 168//111 160//111 159//111
f 157//112 158//112 165//112 164//112
f 164//113 165//113 166//113 163//113
f 163//114 166//114 167//114 162//114
f 162//115 167//115 168//115 161//115
o 平面.011
v -1.308364 -4.855743 0.980250
v -1.068241 -4.768919 1.288150
v -0.988302 -0.000000 -0.222807
v -1.388302 -0.000000 -0.222807
v -1.097643 -1.031948 -0.298571
v -1.384632 -1.982178 0.093178
v -1.170981 -2.847266 0.651606
v -1.001499 -3.882040 0.754307
v -1.375105 -3.833441 0.887472
v -1.205623 -2.988139 0.278839
v -0.991972 -1.958977 0.165844
v -1.278962 -0.965200 0.051669
vn -0.5213 -0.0845 -0.8492
vn -0.9606 -0.0867 -0.2641
vn 0.5324 -0.2996 -0.7917
vn 0.6689 0.2483 0.7006
vn -0.8982 0.1107 0.4253
s 0
f 173//116 180//116 172//116 171//116
f 169//117 170//117 177//117 176//117
f 176//118 177//118 178//118 175//118
f 175//119 178//119 179//119 174//119
f 174//120 179//120 180//120 173//120
