# Blender 4.4.3
# www.blender.org
o ICO球
v -1.447215 -0.304170 -1.051451
v 0.552776 -0.304171 -1.701298
v 1.788852 -0.304164 -0.000000
v 0.552776 -0.304171 1.701298
v -1.447215 -0.304170 1.051451
v -0.552776 0.666966 -1.701298
v 1.447215 0.666965 -1.051451
v 1.447215 0.666965 1.051451
v -0.552776 0.666966 1.701298
v -1.788852 0.666960 -0.000000
v -0.000000 1.491360 -0.000000
v -0.525738 -0.421269 -1.618023
v -1.701296 -0.421266 -0.000000
v 1.376379 -0.421267 -0.999994
v 1.376379 -0.421267 0.999994
v -0.525738 -0.421269 1.618023
v -1.902116 -0.000000 -0.618025
v -1.902116 -0.000000 0.618025
v -0.000000 -0.000000 -2.000000
v -1.175571 -0.000000 -1.618033
v 1.902116 -0.000000 -0.618025
v 1.175571 -0.000000 -1.618033
v 1.175571 -0.000000 1.618033
v 1.902116 -0.000000 0.618025
v -1.175571 -0.000000 1.618033
v -0.000000 -0.000000 2.000000
v -1.376379 0.784062 -0.999994
v 0.525738 0.784064 -1.618023
v 1.701296 0.784062 -0.000000
v 0.525738 0.784064 1.618023
v -1.376379 0.784062 0.999994
v -0.324911 1.268632 -0.999991
v -1.051460 1.268628 -0.000000
v 0.850645 1.268632 -0.618023
v 0.850645 1.268632 0.618023
v -0.324911 1.268632 0.999991
vn -0.6882 -0.6838 -0.2425
vn 0.0179 -0.6838 -0.7295
vn 0.6993 -0.6838 -0.2084
vn 0.4143 -0.6838 0.6007
vn -0.4433 -0.6838 0.5796
vn -0.7582 -0.3490 -0.5508
vn 0.2896 -0.3490 -0.8913
vn 0.9371 -0.3490 -0.0000
vn 0.2896 -0.3490 0.8913
vn -0.7582 -0.3490 0.5508
vn -0.3520 0.7638 -0.5409
vn 0.4057 0.7638 -0.5019
vn 0.6027 0.7638 0.2307
vn -0.0332 0.7638 0.6445
vn -0.6233 0.7638 0.1676
vn -0.2049 0.9674 0.1489
vn -0.4004 0.8689 0.2909
vn -0.3520 0.7638 0.5409
vn 0.0783 0.9674 0.2409
vn 0.1530 0.8689 0.4707
vn 0.4057 0.7638 0.5019
vn 0.2533 0.9674 -0.0000
vn 0.4950 0.8689 -0.0000
vn 0.6027 0.7638 -0.2307
vn 0.0783 0.9674 -0.2409
vn 0.1530 0.8689 -0.4707
vn -0.0332 0.7638 -0.6445
vn -0.2049 0.9674 -0.1489
vn -0.4004 0.8689 -0.2909
vn -0.6233 0.7638 -0.1676
vn -0.8533 0.4249 0.3022
vn -0.7837 0.2481 0.5694
vn -0.5511 0.4249 0.7181
vn 0.0237 0.4249 0.9049
vn 0.2994 0.2481 0.9213
vn 0.5127 0.4249 0.7460
vn 0.8680 0.4249 0.2571
vn 0.9687 0.2481 -0.0000
vn 0.8680 0.4249 -0.2571
vn 0.5127 0.4249 -0.7460
vn 0.2994 0.2481 -0.9213
vn 0.0237 0.4249 -0.9049
vn -0.5511 0.4249 -0.7181
vn -0.7837 0.2481 -0.5694
vn -0.8533 0.4249 -0.3022
vn -0.3047 0.1674 0.9376
vn -0.2789 -0.4303 0.8585
vn 0.0179 -0.6838 0.7295
vn 0.7976 0.1674 0.5795
vn 0.7303 -0.4303 0.5306
vn 0.6993 -0.6838 0.2084
vn 0.7976 0.1674 -0.5795
vn 0.7303 -0.4303 -0.5306
vn 0.4143 -0.6838 -0.6007
vn -0.3047 0.1674 -0.9376
vn -0.2789 -0.4303 -0.8585
vn -0.4433 -0.6838 -0.5796
vn -0.9859 0.1674 -0.0000
vn -0.9027 -0.4303 -0.0000
vn -0.6882 -0.6838 0.2425
s 0
f 1//1 13//1 17//1
f 2//2 12//2 19//2
f 3//3 14//3 21//3
f 4//4 15//4 23//4
f 5//5 16//5 25//5
f 1//6 17//6 20//6
f 2//7 19//7 22//7
f 3//8 21//8 24//8
f 4//9 23//9 26//9
f 5//10 25//10 18//10
f 6//11 27//11 32//11
f 7//12 28//12 34//12
f 8//13 29//13 35//13
f 9//14 30//14 36//14
f 10//15 31//15 33//15
f 33//16 36//16 11//16
f 33//17 31//17 36//17
f 31//18 9//18 36//18
f 36//19 35//19 11//19
f 36//20 30//20 35//20
f 30//21 8//21 35//21
f 35//22 34//22 11//22
f 35//23 29//23 34//23
f 29//24 7//24 34//24
f 34//25 32//25 11//25
f 34//26 28//26 32//26
f 28//27 6//27 32//27
f 32//28 33//28 11//28
f 32//29 27//29 33//29
f 27//30 10//30 33//30
f 18//31 31//31 10//31
f 18//32 25//32 31//32
f 25//33 9//33 31//33
f 26//34 30//34 9//34
f 26//35 23//35 30//35
f 23//36 8//36 30//36
f 24//37 29//37 8//37
f 24//38 21//38 29//38
f 21//39 7//39 29//39
f 22//40 28//40 7//40
f 22//41 19//41 28//41
f 19//42 6//42 28//42
f 20//43 27//43 6//43
f 20//44 17//44 27//44
f 17//45 10//45 27//45
f 25//46 26//46 9//46
f 25//47 16//47 26//47
f 16//48 4//48 26//48
f 23//49 24//49 8//49
f 23//50 15//50 24//50
f 15//51 3//51 24//51
f 21//52 22//52 7//52
f 21//53 14//53 22//53
f 14//54 2//54 22//54
f 19//55 20//55 6//55
f 19//56 12//56 20//56
f 12//57 1//57 20//57
f 17//58 18//58 10//58
f 17//59 13//59 18//59
f 13//60 5//60 18//60
o 平面
v -0.120062 -4.925734 0.873344
v 0.120062 -4.859841 1.186392
v 0.200000 -0.000000 -0.000000
v -0.200000 -0.000000 -0.000000
v 0.090659 -1.024391 -0.101623
v -0.196330 -1.992176 0.228672
v 0.017321 -2.899414 0.712702
v 0.186803 -3.937311 0.723318
v -0.186803 -3.900189 0.860407
v -0.017321 -3.006938 0.328985
v 0.196330 -1.974571 0.302892
v -0.090659 -0.974044 0.251348
vn -0.5220 -0.0637 -0.8506
vn -0.9607 -0.0659 -0.2698
vn 0.5320 -0.2288 -0.8153
vn 0.6689 0.1891 0.7189
vn -0.8984 0.0836 0.4312
s 0
f 41//61 48//61 40//61 39//61
f 37//62 38//62 45//62 44//62
f 44//63 45//63 46//63 43//63
f 43//64 46//64 47//64 42//64
f 42//65 47//65 48//65 41//65
o 平面.001
v 0.698453 -4.930320 1.061064
v 0.938576 -4.866098 1.374459
v 1.018514 -0.000000 0.213996
v 0.618514 -0.000000 0.213996
v 0.909174 -1.023784 0.110349
v 0.622185 -1.992804 0.435774
v 0.835835 -2.903136 0.913780
v 1.005318 -3.940957 0.917094
v 0.631711 -3.904760 1.054452
v 0.801193 -3.007975 0.529321
v 1.014844 -1.975646 0.510099
v 0.727855 -0.974733 0.463503
vn -0.5220 -0.0621 -0.8507
vn -0.9607 -0.0643 -0.2702
vn 0.5319 -0.2231 -0.8169
vn 0.6689 0.1843 0.7201
vn -0.8984 0.0815 0.4315
s 0
f 53//66 60//66 52//66 51//66
f 49//67 50//67 57//67 56//67
f 56//68 57//68 58//68 55//68
f 55//69 58//69 59//69 54//69
f 54//70 59//70 60//70 53//70
o 平面.002
v -1.037918 -4.472919 2.599813
v -0.797795 -4.320586 2.881124
v -0.717856 -0.000000 0.359593
v -1.117856 -0.000000 0.359593
v -0.827197 -1.054955 0.372840
v -1.114186 -1.920384 0.964397
v -0.900536 -2.610152 1.740842
v -0.731053 -3.583234 2.136291
v -1.104660 -3.500543 2.250425
v -0.935177 -2.850207 1.422764
v -0.721527 -1.879712 1.028929
v -1.008516 -0.934047 0.708257
vn -0.5176 -0.1532 -0.8418
vn -0.9603 -0.1503 -0.2348
vn 0.5336 -0.5089 -0.6755
vn 0.6688 0.4283 0.6076
vn -0.8974 0.1985 0.3940
s 0
f 65//71 72//71 64//71 63//71
f 61//72 62//72 69//72 68//72
f 68//73 69//73 70//73 67//73
f 67//74 70//74 71//74 66//74
f 66//75 71//75 72//75 65//75
o 平面.003
v 0.099369 -4.916633 -0.128935
v 0.339492 -4.847571 0.183429
v 0.419431 -0.000000 -1.052142
v 0.019431 -0.000000 -1.052142
v 0.310090 -1.025540 -1.149910
v 0.023101 -1.990915 -0.810364
v 0.236752 -2.892176 -0.314941
v 0.406234 -3.930085 -0.290452
v 0.032627 -3.891212 -0.153892
v 0.202110 -3.004784 -0.697197
v 0.415760 -1.972463 -0.736350
v 0.128771 -0.972729 -0.797299
vn -0.5219 -0.0668 -0.8504
vn -0.9607 -0.0691 -0.2690
vn 0.5320 -0.2396 -0.8121
vn 0.6689 0.1981 0.7164
vn -0.8984 0.0877 0.4304
s 0
f 77//76 84//76 76//76 75//76
f 73//77 74//77 81//77 80//77
f 80//78 81//78 82//78 79//78
f 79//79 82//79 83//79 78//79
f 78//80 83//80 84//80 77//80
o 平面.004
v -0.024975 -4.853729 2.275677
v 0.215148 -4.766392 2.583432
v 0.295087 -0.000000 1.064520
v -0.104913 -0.000000 1.064520
v 0.185746 -1.032133 0.989403
v -0.101243 -1.981882 1.382670
v 0.112407 -2.845855 1.942897
v 0.281890 -3.880456 2.047872
v -0.091717 -3.831579 2.180927
v 0.077766 -2.987539 1.570438
v 0.291416 -1.958544 1.455292
v 0.004427 -0.964978 1.339565
vn -0.5213 -0.0850 -0.8491
vn -0.9606 -0.0872 -0.2639
vn 0.5324 -0.3013 -0.7911
vn 0.6689 0.2498 0.7001
vn -0.8982 0.1114 0.4252
s 0
f 89//81 96//81 88//81 87//81
f 85//82 86//82 93//82 92//82
f 92//83 93//83 94//83 91//83
f 91//84 94//84 95//84 90//84
f 90//85 95//85 96//85 89//85
o 平面.005
v -0.744595 -4.945357 0.253588
v -0.504472 -4.887031 0.568133
v -0.424534 -0.000000 -0.500752
v -0.824534 -0.000000 -0.500752
v -0.533874 -1.021638 -0.611502
v -0.820863 -1.994834 -0.303236
v -0.607213 -2.915774 0.153405
v -0.437730 -3.952951 0.130996
v -0.811337 -3.920027 0.269254
v -0.641854 -3.011109 -0.233520
v -0.428204 -1.979252 -0.228565
v -0.715193 -0.977151 -0.257744
vn -0.5222 -0.0563 -0.8510
vn -0.9607 -0.0584 -0.2714
vn 0.5318 -0.2029 -0.8222
vn 0.6689 0.1675 0.7242
vn -0.8984 0.0739 0.4328
s 0
f 101//86 108//86 100//86 99//86
f 97//87 98//87 105//87 104//87
f 104//88 105//88 106//88 103//88
f 103//89 106//89 107//89 102//89
f 102//90 107//90 108//90 101//90
o 平面.006
v 0.847684 -4.861241 0.719277
v 1.087807 -4.775839 1.027574
v 1.167746 -0.000000 -0.461367
v 0.767746 -0.000000 -0.461367
v 1.058405 -1.031438 -0.538918
v 0.771416 -1.982985 -0.151370
v 0.985067 -2.851136 0.402071
v 1.154549 -3.886363 0.498490
v 0.780942 -3.838537 0.631952
v 0.950425 -2.989764 0.028464
v 1.164075 -1.960165 -0.078584
v 0.877086 -0.965814 -0.188466
vn -0.5214 -0.0831 -0.8493
vn -0.9606 -0.0853 -0.2645
vn 0.5324 -0.2948 -0.7935
vn 0.6689 0.2443 0.7020
vn -0.8983 0.1088 0.4258
s 0
f 113//91 120//91 112//91 111//91
f 109//92 110//92 117//92 116//92
f 116//93 117//93 118//93 115//93
f 115//94 118//94 119//94 114//94
f 114//95 119//95 120//95 113//95
o 平面.007
v 0.139880 -4.571458 1.560095
v 0.380003 -4.432260 1.848131
v 0.459941 -0.000000 -0.471495
v 0.059941 -0.000000 -0.471495
v 0.350601 -1.050449 -0.477343
v 0.063611 -1.937186 0.073006
v 0.277262 -2.667776 0.807768
v 0.446744 -3.659951 1.144189
v 0.073138 -3.583822 1.262988
v 0.242620 -2.888750 0.476150
v 0.456271 -1.900002 0.139609
v 0.169282 -0.940856 -0.138060
vn -0.5186 -0.1388 -0.8437
vn -0.9604 -0.1378 -0.2422
vn 0.5334 -0.4688 -0.7041
vn 0.6689 0.3931 0.6309
vn -0.8976 0.1804 0.4022
s 0
f 125//96 132//96 124//96 123//96
f 121//97 122//97 129//97 128//97
f 128//98 129//98 130//98 127//98
f 127//99 130//99 131//99 126//99
f 126//100 131//100 132//100 125//100
o 平面.008
v -0.395757 -4.757163 2.001065
v -0.155634 -4.648521 2.301960
v -0.075695 -0.000000 0.453490
v -0.475695 -0.000000 0.453490
v -0.185036 -1.039737 0.405813
v -0.472025 -1.967249 0.862659
v -0.258374 -2.781525 1.496357
v -0.088892 -3.804794 1.695975
v -0.462498 -3.744493 1.823958
v -0.293016 -2.956442 1.138301
v -0.079365 -1.938216 0.933198
v -0.366355 -0.955513 0.752266
vn -0.5204 -0.1066 -0.8472
vn -0.9605 -0.1081 -0.2564
vn 0.5328 -0.3716 -0.7603
vn 0.6689 0.3094 0.6759
vn -0.8980 0.1393 0.4173
s 0
f 137//101 144//101 136//101 135//101
f 133//102 134//102 141//102 140//102
f 140//103 141//103 142//103 139//103
f 139//104 142//104 143//104 138//104
f 138//105 143//105 144//105 137//105
o 平面.009
v -0.687768 -4.953609 -0.432815
v -0.447645 -4.898861 -0.117627
v -0.367707 -0.000000 -1.130912
v -0.767707 -0.000000 -1.130912
v -0.477047 -1.020332 -1.245943
v -0.764036 -1.995924 -0.948066
v -0.550386 -2.923063 -0.504465
v -0.380903 -3.959564 -0.542436
v -0.754510 -3.928633 -0.403670
v -0.585028 -3.012614 -0.892770
v -0.371377 -1.981299 -0.873202
v -0.658366 -0.978607 -0.891849
vn -0.5222 -0.0528 -0.8512
vn -0.9607 -0.0548 -0.2721
vn 0.5318 -0.1907 -0.8252
vn 0.6689 0.1573 0.7265
vn -0.8985 0.0694 0.4335
s 0
f 149//106 156//106 148//106 147//106
f 145//107 146//107 153//107 152//107
f 152//108 153//108 154//108 151//108
f 151//109 154//109 155//109 150//109
f 150//110 155//110 156//110 149//110
o 平面.010
v 0.719852 -4.971905 1.382727
v 0.959975 -4.926397 1.699381
v 1.039913 -0.000000 0.829786
v 0.639913 -0.000000 0.829786
v 0.930573 -1.016950 0.703801
v 0.643584 -1.998252 0.974919
v 0.857234 -2.940577 1.384585
v 1.026717 -3.974345 1.306596
v 0.653110 -3.948582 1.446537
v 0.822593 -3.015135 0.993125
v 1.036243 -1.986096 1.050224
v 0.749254 -0.982327 1.058660
vn -0.5224 -0.0438 -0.8516
vn -0.9607 -0.0456 -0.2737
vn 0.5316 -0.1588 -0.8320
vn 0.6689 0.1309 0.7317
vn -0.8985 0.0576 0.4352
s 0
f 161//111 168//111 160//111 159//111
f 157//112 158//112 165//112 164//112
f 164//113 165//113 166//113 163//113
f 163//114 166//114 167//114 162//114
f 162//115 167//115 168//115 161//115
o 平面.011
v -1.308364 -4.941577 0.555910
v -1.068241 -4.881701 0.870164
v -0.988302 -0.000000 -0.222807
v -1.388302 -0.000000 -0.222807
v -1.097643 -1.022203 -0.331695
v -1.384632 -1.994329 -0.018923
v -1.170981 -2.912527 0.443351
v -1.001499 -3.949930 0.427697
v -1.375105 -3.916144 0.565726
v -1.205623 -3.010364 0.057051
v -0.991972 -1.978333 0.055661
v -1.278962 -0.976518 0.021910
vn -0.5221 -0.0578 -0.8509
vn -0.9607 -0.0599 -0.2711
vn 0.5319 -0.2083 -0.8208
vn 0.6689 0.1719 0.7232
vn -0.8984 0.0759 0.4325
s 0
f 173//116 180//116 172//116 171//116
f 169//117 170//117 177//117 176//117
f 176//118 177//118 178//118 175//118
f 175//119 178//119 179//119 174//119
f 174//120 179//120 180//120 173//120
