# Blender 4.4.3
# www.blender.org
o ICO球
v -1.447215 -0.304170 -1.051451
v 0.552776 -0.304171 -1.701298
v 1.788852 -0.304164 -0.000000
v 0.552776 -0.304171 1.701298
v -1.447215 -0.304170 1.051451
v -0.552776 0.666966 -1.701298
v 1.447215 0.666965 -1.051451
v 1.447215 0.666965 1.051451
v -0.552776 0.666966 1.701298
v -1.788852 0.666960 -0.000000
v -0.000000 1.491360 -0.000000
v -0.525738 -0.421269 -1.618023
v -1.701296 -0.421266 -0.000000
v 1.376379 -0.421267 -0.999994
v 1.376379 -0.421267 0.999994
v -0.525738 -0.421269 1.618023
v -1.902116 -0.000000 -0.618025
v -1.902116 -0.000000 0.618025
v -0.000000 -0.000000 -2.000000
v -1.175571 -0.000000 -1.618033
v 1.902116 -0.000000 -0.618025
v 1.175571 -0.000000 -1.618033
v 1.175571 -0.000000 1.618033
v 1.902116 -0.000000 0.618025
v -1.175571 -0.000000 1.618033
v -0.000000 -0.000000 2.000000
v -1.376379 0.784062 -0.999994
v 0.525738 0.784064 -1.618023
v 1.701296 0.784062 -0.000000
v 0.525738 0.784064 1.618023
v -1.376379 0.784062 0.999994
v -0.324911 1.268632 -0.999991
v -1.051460 1.268628 -0.000000
v 0.850645 1.268632 -0.618023
v 0.850645 1.268632 0.618023
v -0.324911 1.268632 0.999991
vn -0.6882 -0.6838 -0.2425
vn 0.0179 -0.6838 -0.7295
vn 0.6993 -0.6838 -0.2084
vn 0.4143 -0.6838 0.6007
vn -0.4433 -0.6838 0.5796
vn -0.7582 -0.3490 -0.5508
vn 0.2896 -0.3490 -0.8913
vn 0.9371 -0.3490 -0.0000
vn 0.2896 -0.3490 0.8913
vn -0.7582 -0.3490 0.5508
vn -0.3520 0.7638 -0.5409
vn 0.4057 0.7638 -0.5019
vn 0.6027 0.7638 0.2307
vn -0.0332 0.7638 0.6445
vn -0.6233 0.7638 0.1676
vn -0.2049 0.9674 0.1489
vn -0.4004 0.8689 0.2909
vn -0.3520 0.7638 0.5409
vn 0.0783 0.9674 0.2409
vn 0.1530 0.8689 0.4707
vn 0.4057 0.7638 0.5019
vn 0.2533 0.9674 -0.0000
vn 0.4950 0.8689 -0.0000
vn 0.6027 0.7638 -0.2307
vn 0.0783 0.9674 -0.2409
vn 0.1530 0.8689 -0.4707
vn -0.0332 0.7638 -0.6445
vn -0.2049 0.9674 -0.1489
vn -0.4004 0.8689 -0.2909
vn -0.6233 0.7638 -0.1676
vn -0.8533 0.4249 0.3022
vn -0.7837 0.2481 0.5694
vn -0.5511 0.4249 0.7181
vn 0.0237 0.4249 0.9049
vn 0.2994 0.2481 0.9213
vn 0.5127 0.4249 0.7460
vn 0.8680 0.4249 0.2571
vn 0.9687 0.2481 -0.0000
vn 0.8680 0.4249 -0.2571
vn 0.5127 0.4249 -0.7460
vn 0.2994 0.2481 -0.9213
vn 0.0237 0.4249 -0.9049
vn -0.5511 0.4249 -0.7181
vn -0.7837 0.2481 -0.5694
vn -0.8533 0.4249 -0.3022
vn -0.3047 0.1674 0.9376
vn -0.2789 -0.4303 0.8585
vn 0.0179 -0.6838 0.7295
vn 0.7976 0.1674 0.5795
vn 0.7303 -0.4303 0.5306
vn 0.6993 -0.6838 0.2084
vn 0.7976 0.1674 -0.5795
vn 0.7303 -0.4303 -0.5306
vn 0.4143 -0.6838 -0.6007
vn -0.3047 0.1674 -0.9376
vn -0.2789 -0.4303 -0.8585
vn -0.4433 -0.6838 -0.5796
vn -0.9859 0.1674 -0.0000
vn -0.9027 -0.4303 -0.0000
vn -0.6882 -0.6838 0.2425
s 0
f 1//1 13//1 17//1
f 2//2 12//2 19//2
f 3//3 14//3 21//3
f 4//4 15//4 23//4
f 5//5 16//5 25//5
f 1//6 17//6 20//6
f 2//7 19//7 22//7
f 3//8 21//8 24//8
f 4//9 23//9 26//9
f 5//10 25//10 18//10
f 6//11 27//11 32//11
f 7//12 28//12 34//12
f 8//13 29//13 35//13
f 9//14 30//14 36//14
f 10//15 31//15 33//15
f 33//16 36//16 11//16
f 33//17 31//17 36//17
f 31//18 9//18 36//18
f 36//19 35//19 11//19
f 36//20 30//20 35//20
f 30//21 8//21 35//21
f 35//22 34//22 11//22
f 35//23 29//23 34//23
f 29//24 7//24 34//24
f 34//25 32//25 11//25
f 34//26 28//26 32//26
f 28//27 6//27 32//27
f 32//28 33//28 11//28
f 32//29 27//29 33//29
f 27//30 10//30 33//30
f 18//31 31//31 10//31
f 18//32 25//32 31//32
f 25//33 9//33 31//33
f 26//34 30//34 9//34
f 26//35 23//35 30//35
f 23//36 8//36 30//36
f 24//37 29//37 8//37
f 24//38 21//38 29//38
f 21//39 7//39 29//39
f 22//40 28//40 7//40
f 22//41 19//41 28//41
f 19//42 6//42 28//42
f 20//43 27//43 6//43
f 20//44 17//44 27//44
f 17//45 10//45 27//45
f 25//46 26//46 9//46
f 25//47 16//47 26//47
f 16//48 4//48 26//48
f 23//49 24//49 8//49
f 23//50 15//50 24//50
f 15//51 3//51 24//51
f 21//52 22//52 7//52
f 21//53 14//53 22//53
f 14//54 2//54 22//54
f 19//55 20//55 6//55
f 19//56 12//56 20//56
f 12//57 1//57 20//57
f 17//58 18//58 10//58
f 17//59 13//59 18//59
f 13//60 5//60 18//60
o 平面
v -0.120062 -4.977255 0.502508
v 0.120062 -4.934960 0.819608
v 0.200000 -0.000000 -0.000000
v -0.200000 -0.000000 -0.000000
v 0.090659 -1.015770 -0.129762
v -0.196330 -1.998900 0.132073
v 0.017321 -2.946229 0.529857
v 0.186803 -3.978715 0.438018
v -0.186803 -3.954756 0.578322
v -0.017321 -3.015558 0.137437
v 0.196330 -1.987603 0.207512
v -0.090659 -0.983609 0.225328
vn -0.5225 -0.0407 -0.8517
vn -0.9607 -0.0424 -0.2742
vn 0.5315 -0.1477 -0.8341
vn 0.6690 0.1217 0.7333
vn -0.8985 0.0535 0.4357
s 0
f 41//61 48//61 40//61 39//61
f 37//62 38//62 45//62 44//62
f 44//63 45//63 46//63 43//63
f 43//64 46//64 47//64 42//64
f 42//65 47//65 48//65 41//65
o 平面.001
v 0.698453 -4.959378 0.869859
v 0.938576 -4.907317 1.185502
v 1.018514 -0.000000 0.213996
v 0.618514 -0.000000 0.213996
v 0.909174 -1.019351 0.095766
v 0.622185 -1.996673 0.385849
v 0.835835 -2.928351 0.819618
v 1.005318 -3.964204 0.769980
v 0.631711 -3.934774 0.909108
v 0.801193 -3.013549 0.430335
v 1.014844 -1.982766 0.460850
v 0.727855 -0.979695 0.450097
vn -0.5223 -0.0502 -0.8513
vn -0.9607 -0.0521 -0.2726
vn 0.5317 -0.1814 -0.8273
vn 0.6689 0.1496 0.7281
vn -0.8985 0.0659 0.4340
s 0
f 53//66 60//66 52//66 51//66
f 49//67 50//67 57//67 56//67
f 56//68 57//68 58//68 55//68
f 55//69 58//69 59//69 54//69
f 54//70 59//70 60//70 53//70
o 平面.002
v -1.037918 -4.344744 2.839267
v -0.797795 -4.177370 3.111896
v -0.717856 -0.000000 0.359593
v -1.117856 -0.000000 0.359593
v -0.827197 -1.060015 0.395725
v -1.114186 -1.897735 1.035358
v -0.900536 -2.536832 1.858076
v -0.731053 -3.483498 2.321209
v -1.104660 -3.393495 2.429441
v -0.935177 -2.798120 1.557196
v -0.721527 -1.853085 1.097205
v -1.008516 -0.925764 0.726028
vn -0.5162 -0.1702 -0.8394
vn -0.9603 -0.1645 -0.2254
vn 0.5339 -0.5535 -0.6392
vn 0.6688 0.4678 0.5778
vn -0.8971 0.2195 0.3833
s 0
f 65//71 72//71 64//71 63//71
f 61//72 62//72 69//72 68//72
f 68//73 69//73 70//73 67//73
f 67//74 70//74 71//74 66//74
f 66//75 71//75 72//75 65//75
o 平面.003
v 0.099369 -4.796628 0.368401
v 0.339492 -4.696025 0.672078
v 0.419431 -0.000000 -1.052142
v 0.019431 -0.000000 -1.052142
v 0.310090 -1.036879 -1.110319
v 0.023101 -1.973322 -0.677599
v 0.236751 -2.807158 -0.071348
v 0.406234 -3.835669 0.092472
v 0.032627 -3.779645 0.222494
v 0.202110 -2.969630 -0.435220
v 0.415760 -1.946438 -0.606214
v 0.128771 -0.959146 -0.762352
vn -0.5208 -0.0984 -0.8480
vn -0.9605 -0.1003 -0.2594
vn 0.5326 -0.3453 -0.7727
vn 0.6689 0.2870 0.6857
vn -0.8981 0.1287 0.4205
s 0
f 77//76 84//76 76//76 75//76
f 73//77 74//77 81//77 80//77
f 80//78 81//78 82//78 79//78
f 79//79 82//79 83//79 78//79
f 78//80 83//80 84//80 77//80
o 平面.004
v -0.024975 -4.653567 2.900250
v 0.215148 -4.526719 3.193934
v 0.295087 -0.000000 1.064520
v -0.104913 -0.000000 1.064520
v 0.185746 -1.046152 1.041366
v -0.101243 -1.950754 1.553551
v 0.112407 -2.717007 2.248116
v 0.281890 -3.723932 2.529130
v -0.091717 -3.654113 2.651918
v 0.077766 -2.919623 1.904974
v 0.291416 -1.916861 1.621887
v 0.004427 -0.946960 1.383834
vn -0.5194 -0.1256 -0.8453
vn -0.9604 -0.1259 -0.2484
vn 0.5331 -0.4301 -0.7286
vn 0.6689 0.3596 0.6506
vn -0.8978 0.1636 0.4089
s 0
f 89//81 96//81 88//81 87//81
f 85//82 86//82 93//82 92//82
f 92//83 93//83 94//83 91//83
f 91//84 94//84 95//84 90//84
f 90//85 95//85 96//85 89//85
o 平面.005
v -0.744595 -4.933946 0.324937
v -0.504472 -4.871083 0.638608
v -0.424534 -0.000000 -0.500752
v -0.824534 -0.000000 -0.500752
v -0.533874 -1.023290 -0.606041
v -0.820863 -1.993298 -0.284577
v -0.607213 -2.906120 0.188519
v -0.437730 -3.943844 0.185895
v -0.811337 -3.908400 0.323468
v -0.641854 -3.008771 -0.196530
v -0.428204 -1.976504 -0.210169
v -0.715193 -0.975293 -0.252743
vn -0.5221 -0.0608 -0.8507
vn -0.9607 -0.0629 -0.2705
vn 0.5319 -0.2185 -0.8181
vn 0.6689 0.1804 0.7211
vn -0.8984 0.0798 0.4318
s 0
f 101//86 108//86 100//86 99//86
f 97//87 98//87 105//87 104//87
f 104//88 105//88 106//88 103//88
f 103//89 106//89 107//89 102//89
f 102//90 107//90 108//90 101//90
o 平面.006
v 0.847684 -4.790709 0.979012
v 1.087807 -4.688850 1.282270
v 1.167746 -0.000000 -0.461367
v 0.767746 -0.000000 -0.461367
v 1.058405 -1.037327 -0.517916
v 0.771416 -1.972419 -0.081439
v 0.985067 -2.803265 0.529123
v 1.154549 -3.831034 0.698527
v 0.780942 -3.774339 0.828242
v 0.950425 -2.967689 0.166128
v 1.164075 -1.945199 -0.010181
v 0.877086 -0.958584 -0.170176
vn -0.5207 -0.0997 -0.8479
vn -0.9605 -0.1015 -0.2590
vn 0.5327 -0.3494 -0.7708
vn 0.6689 0.2905 0.6842
vn -0.8981 0.1304 0.4200
s 0
f 113//91 120//91 112//91 111//91
f 109//92 110//92 117//92 116//92
f 116//93 117//93 118//93 115//93
f 115//94 118//94 119//94 114//94
f 114//95 119//95 120//95 113//95
o 平面.007
v 0.139879 -4.370089 1.963236
v 0.380003 -4.205534 2.237576
v 0.459941 -0.000000 -0.471495
v 0.059941 -0.000000 -0.471495
v 0.350601 -1.059076 -0.439745
v 0.063611 -1.902282 0.190798
v 0.277262 -2.551213 1.004966
v 0.446744 -3.503217 1.455404
v 0.073138 -3.414567 1.564790
v 0.242620 -2.808574 0.700720
v 0.456271 -1.858377 0.253175
v 0.169282 -0.927361 -0.108422
vn -0.5165 -0.1669 -0.8399
vn -0.9603 -0.1618 -0.2273
vn 0.5338 -0.5453 -0.6463
vn 0.6688 0.4605 0.5836
vn -0.8972 0.2156 0.3855
s 0
f 125//96 132//96 124//96 123//96
f 121//97 122//97 129//97 128//97
f 128//98 129//98 130//98 127//98
f 127//99 130//99 131//99 126//99
f 126//100 131//100 132//100 125//100
o 平面.008
v -0.395757 -4.714016 2.127895
v -0.155634 -4.597356 2.425773
v -0.075695 -0.000000 0.453490
v -0.475695 -0.000000 0.453490
v -0.185036 -1.042573 0.416479
v -0.472025 -1.960473 0.897573
v -0.258374 -2.754245 1.558305
v -0.088892 -3.771091 1.793723
v -0.462498 -3.706568 1.919517
v -0.293016 -2.941449 1.206517
v -0.079365 -1.929298 0.967192
v -0.366355 -0.951805 0.761275
vn -0.5200 -0.1149 -0.8464
vn -0.9605 -0.1160 -0.2530
vn 0.5329 -0.3975 -0.7469
vn 0.6689 0.3316 0.6653
vn -0.8979 0.1500 0.4138
s 0
f 137//101 144//101 136//101 135//101
f 133//102 134//102 141//102 140//102
f 140//103 141//103 142//103 139//103
f 139//104 142//104 143//104 138//104
f 138//105 143//105 144//105 137//105
o 平面.009
v -0.687768 -4.953424 -0.431499
v -0.447645 -4.898592 -0.116326
v -0.367707 -0.000000 -1.130912
v -0.767707 -0.000000 -1.130912
v -0.477047 -1.020363 -1.245842
v -0.764036 -1.995900 -0.947722
v -0.550386 -2.922896 -0.503816
v -0.380903 -3.959415 -0.541424
v -0.754510 -3.928437 -0.402670
v -0.585028 -3.012582 -0.892090
v -0.371377 -1.981252 -0.872862
v -0.658366 -0.978573 -0.891756
vn -0.5222 -0.0529 -0.8512
vn -0.9607 -0.0549 -0.2721
vn 0.5318 -0.1909 -0.8251
vn 0.6689 0.1575 0.7264
vn -0.8985 0.0695 0.4335
s 0
f 149//106 156//106 148//106 147//106
f 145//107 146//107 153//107 152//107
f 152//108 153//108 154//108 151//108
f 151//109 154//109 155//109 150//109
f 150//110 155//110 156//110 149//110
o 平面.010
v 0.719852 -5.002144 0.894142
v 0.959975 -4.987803 1.213728
v 1.039913 -0.000000 0.829786
v 0.639913 -0.000000 0.829786
v 0.930573 -1.005401 0.667744
v 0.643584 -2.001146 0.849100
v 0.857234 -2.986029 1.141676
v 1.026717 -4.000261 0.930836
v 0.653110 -3.992104 1.073305
v 0.822593 -3.009602 0.743877
v 1.036243 -1.997316 0.925284
v 0.749254 -0.994528 1.024122
vn -0.5228 -0.0138 -0.8523
vn -0.9608 -0.0144 -0.2769
vn 0.5310 -0.0502 -0.8459
vn 0.6690 0.0413 0.7421
vn -0.8986 0.0181 0.4384
s 0
f 161//111 168//111 160//111 159//111
f 157//112 158//112 165//112 164//112
f 164//113 165//113 166//113 163//113
f 163//114 166//114 167//114 162//114
f 162//115 167//115 168//115 161//115
o 平面.011
v -1.308364 -4.851513 0.997194
v -1.068241 -4.763616 1.304789
v -0.988302 -0.000000 -0.222807
v -1.388302 -0.000000 -0.222807
v -1.097643 -1.032334 -0.297217
v -1.384632 -1.981555 0.097709
v -1.170981 -2.844309 0.659900
v -1.001499 -3.878716 0.767354
v -1.375105 -3.829535 0.900290
v -1.205623 -2.986877 0.287778
v -0.991972 -1.958068 0.170283
v -1.278962 -0.964736 0.052860
vn -0.5213 -0.0856 -0.8491
vn -0.9606 -0.0877 -0.2638
vn 0.5324 -0.3031 -0.7904
vn 0.6689 0.2514 0.6996
vn -0.8982 0.1121 0.4250
s 0
f 173//116 180//116 172//116 171//116
f 169//117 170//117 177//117 176//117
f 176//118 177//118 178//118 175//118
f 175//119 178//119 179//119 174//119
f 174//120 179//120 180//120 173//120
