# Blender 4.4.3
# www.blender.org
o ICO球
v -1.447215 -0.304170 -1.051451
v 0.552776 -0.304171 -1.701298
v 1.788852 -0.304164 -0.000000
v 0.552776 -0.304171 1.701298
v -1.447215 -0.304170 1.051451
v -0.552776 0.666966 -1.701298
v 1.447215 0.666965 -1.051451
v 1.447215 0.666965 1.051451
v -0.552776 0.666966 1.701298
v -1.788852 0.666960 -0.000000
v -0.000000 1.491360 -0.000000
v -0.525738 -0.421269 -1.618023
v -1.701296 -0.421266 -0.000000
v 1.376379 -0.421267 -0.999994
v 1.376379 -0.421267 0.999994
v -0.525738 -0.421269 1.618023
v -1.902116 -0.000000 -0.618025
v -1.902116 -0.000000 0.618025
v -0.000000 -0.000000 -2.000000
v -1.175571 -0.000000 -1.618033
v 1.902116 -0.000000 -0.618025
v 1.175571 -0.000000 -1.618033
v 1.175571 -0.000000 1.618033
v 1.902116 -0.000000 0.618025
v -1.175571 -0.000000 1.618033
v -0.000000 -0.000000 2.000000
v -1.376379 0.784062 -0.999994
v 0.525738 0.784064 -1.618023
v 1.701296 0.784062 -0.000000
v 0.525738 0.784064 1.618023
v -1.376379 0.784062 0.999994
v -0.324911 1.268632 -0.999991
v -1.051460 1.268628 -0.000000
v 0.850645 1.268632 -0.618023
v 0.850645 1.268632 0.618023
v -0.324911 1.268632 0.999991
vn -0.6882 -0.6838 -0.2425
vn 0.0179 -0.6838 -0.7295
vn 0.6993 -0.6838 -0.2084
vn 0.4143 -0.6838 0.6007
vn -0.4433 -0.6838 0.5796
vn -0.7582 -0.3490 -0.5508
vn 0.2896 -0.3490 -0.8913
vn 0.9371 -0.3490 -0.0000
vn 0.2896 -0.3490 0.8913
vn -0.7582 -0.3490 0.5508
vn -0.3520 0.7638 -0.5409
vn 0.4057 0.7638 -0.5019
vn 0.6027 0.7638 0.2307
vn -0.0332 0.7638 0.6445
vn -0.6233 0.7638 0.1676
vn -0.2049 0.9674 0.1489
vn -0.4004 0.8689 0.2909
vn -0.3520 0.7638 0.5409
vn 0.0783 0.9674 0.2409
vn 0.1530 0.8689 0.4707
vn 0.4057 0.7638 0.5019
vn 0.2533 0.9674 -0.0000
vn 0.4950 0.8689 -0.0000
vn 0.6027 0.7638 -0.2307
vn 0.0783 0.9674 -0.2409
vn 0.1530 0.8689 -0.4707
vn -0.0332 0.7638 -0.6445
vn -0.2049 0.9674 -0.1489
vn -0.4004 0.8689 -0.2909
vn -0.6233 0.7638 -0.1676
vn -0.8533 0.4249 0.3022
vn -0.7837 0.2481 0.5694
vn -0.5511 0.4249 0.7181
vn 0.0237 0.4249 0.9049
vn 0.2994 0.2481 0.9213
vn 0.5127 0.4249 0.7460
vn 0.8680 0.4249 0.2571
vn 0.9687 0.2481 -0.0000
vn 0.8680 0.4249 -0.2571
vn 0.5127 0.4249 -0.7460
vn 0.2994 0.2481 -0.9213
vn 0.0237 0.4249 -0.9049
vn -0.5511 0.4249 -0.7181
vn -0.7837 0.2481 -0.5694
vn -0.8533 0.4249 -0.3022
vn -0.3047 0.1674 0.9376
vn -0.2789 -0.4303 0.8585
vn 0.0179 -0.6838 0.7295
vn 0.7976 0.1674 0.5795
vn 0.7303 -0.4303 0.5306
vn 0.6993 -0.6838 0.2084
vn 0.7976 0.1674 -0.5795
vn 0.7303 -0.4303 -0.5306
vn 0.4143 -0.6838 -0.6007
vn -0.3047 0.1674 -0.9376
vn -0.2789 -0.4303 -0.8585
vn -0.4433 -0.6838 -0.5796
vn -0.9859 0.1674 -0.0000
vn -0.9027 -0.4303 -0.0000
vn -0.6882 -0.6838 0.2425
s 0
f 1//1 13//1 17//1
f 2//2 12//2 19//2
f 3//3 14//3 21//3
f 4//4 15//4 23//4
f 5//5 16//5 25//5
f 1//6 17//6 20//6
f 2//7 19//7 22//7
f 3//8 21//8 24//8
f 4//9 23//9 26//9
f 5//10 25//10 18//10
f 6//11 27//11 32//11
f 7//12 28//12 34//12
f 8//13 29//13 35//13
f 9//14 30//14 36//14
f 10//15 31//15 33//15
f 33//16 36//16 11//16
f 33//17 31//17 36//17
f 31//18 9//18 36//18
f 36//19 35//19 11//19
f 36//20 30//20 35//20
f 30//21 8//21 35//21
f 35//22 34//22 11//22
f 35//23 29//23 34//23
f 29//24 7//24 34//24
f 34//25 32//25 11//25
f 34//26 28//26 32//26
f 28//27 6//27 32//27
f 32//28 33//28 11//28
f 32//29 27//29 33//29
f 27//30 10//30 33//30
f 18//31 31//31 10//31
f 18//32 25//32 31//32
f 25//33 9//33 31//33
f 26//34 30//34 9//34
f 26//35 23//35 30//35
f 23//36 8//36 30//36
f 24//37 29//37 8//37
f 24//38 21//38 29//38
f 21//39 7//39 29//39
f 22//40 28//40 7//40
f 22//41 19//41 28//41
f 19//42 6//42 28//42
f 20//43 27//43 6//43
f 20//44 17//44 27//44
f 17//45 10//45 27//45
f 25//46 26//46 9//46
f 25//47 16//47 26//47
f 16//48 4//48 26//48
f 23//49 24//49 8//49
f 23//50 15//50 24//50
f 15//51 3//51 24//51
f 21//52 22//52 7//52
f 21//53 14//53 22//53
f 14//54 2//54 22//54
f 19//55 20//55 6//55
f 19//56 12//56 20//56
f 12//57 1//57 20//57
f 17//58 18//58 10//58
f 17//59 13//59 18//59
f 13//60 5//60 18//60
o 平面
v -0.120062 -4.930415 0.846516
v 0.120062 -4.866228 1.159919
v 0.200000 -0.000000 -0.000000
v -0.200000 -0.000000 -0.000000
v 0.090659 -1.023771 -0.103689
v -0.196330 -1.992817 0.221633
v 0.017321 -2.903214 0.699513
v 0.186803 -3.941033 0.702673
v -0.186803 -3.904855 0.840037
v -0.017321 -3.007996 0.315039
v 0.196330 -1.975669 0.295961
v -0.090660 -0.974747 0.249469
vn -0.5220 -0.0621 -0.8507
vn -0.9607 -0.0642 -0.2702
vn 0.5319 -0.2230 -0.8169
vn 0.6689 0.1842 0.7201
vn -0.8984 0.0815 0.4315
s 0
f 41//61 48//61 40//61 39//61
f 37//62 38//62 45//62 44//62
f 44//63 45//63 46//63 43//63
f 43//64 46//64 47//64 42//64
f 42//65 47//65 48//65 41//65
o 平面.001
v 0.698453 -4.932035 1.051022
v 0.938576 -4.868451 1.364547
v 1.018514 -0.000000 0.213996
v 0.618514 -0.000000 0.213996
v 0.909174 -1.023552 0.109577
v 0.622185 -1.993038 0.433141
v 0.835835 -2.904543 0.908842
v 1.005318 -3.942322 0.909366
v 0.631711 -3.906478 1.046826
v 0.801193 -3.008354 0.524104
v 1.014844 -1.976051 0.507506
v 0.727855 -0.974996 0.462799
vn -0.5220 -0.0615 -0.8507
vn -0.9607 -0.0636 -0.2703
vn 0.5319 -0.2209 -0.8175
vn 0.6689 0.1825 0.7206
vn -0.8984 0.0807 0.4317
s 0
f 53//66 60//66 52//66 51//66
f 49//67 50//67 57//67 56//67
f 56//68 57//68 58//68 55//68
f 55//69 58//69 59//69 54//69
f 54//70 59//70 60//70 53//70
o 平面.002
v -1.037918 -4.462190 2.621108
v -0.797795 -4.308518 2.901689
v -0.717856 -0.000000 0.359593
v -1.117856 -0.000000 0.359593
v -0.827197 -1.055410 0.374832
v -1.114186 -1.918521 0.970629
v -0.900536 -2.603952 1.751258
v -0.731053 -3.574884 2.152730
v -1.104660 -3.491532 2.266363
v -0.935177 -2.845926 1.434637
v -0.721527 -1.877494 1.034936
v -1.008516 -0.933331 0.709824
vn -0.5175 -0.1547 -0.8416
vn -0.9603 -0.1516 -0.2340
vn 0.5336 -0.5129 -0.6724
vn 0.6688 0.4319 0.6051
vn -0.8974 0.2003 0.3931
s 0
f 65//71 72//71 64//71 63//71
f 61//72 62//72 69//72 68//72
f 68//73 69//73 70//73 67//73
f 67//74 70//74 71//74 66//74
f 66//75 71//75 72//75 65//75
o 平面.003
v 0.099369 -4.903889 -0.063475
v 0.339492 -4.830669 0.247941
v 0.419431 -0.000000 -1.052142
v 0.019431 -0.000000 -1.052142
v 0.310090 -1.027045 -1.144820
v 0.023101 -1.989127 -0.793108
v 0.236752 -2.882329 -0.282804
v 0.406234 -3.919994 -0.240071
v 0.032627 -3.878831 -0.104240
v 0.202110 -3.001591 -0.663036
v 0.415760 -1.969564 -0.719380
v 0.128771 -0.970991 -0.792710
vn -0.5218 -0.0710 -0.8501
vn -0.9606 -0.0732 -0.2680
vn 0.5321 -0.2537 -0.8078
vn 0.6689 0.2099 0.7131
vn -0.8983 0.0931 0.4293
s 0
f 77//76 84//76 76//76 75//76
f 73//77 74//77 81//77 80//77
f 80//78 81//78 82//78 79//78
f 79//79 82//79 83//79 78//79
f 78//80 83//80 84//80 77//80
o 平面.004
v -0.024975 -4.839466 2.331469
v 0.215148 -4.748592 2.638198
v 0.295087 -0.000000 1.064520
v -0.104913 -0.000000 1.064520
v 0.185746 -1.033402 0.993876
v -0.101243 -1.979772 1.397620
v 0.112407 -2.835968 1.970203
v 0.281890 -3.869252 2.090834
v -0.091717 -3.818460 2.223121
v 0.077766 -2.983222 1.599911
v 0.291416 -1.955488 1.469931
v 0.004427 -0.963442 1.343488
vn -0.5212 -0.0886 -0.8488
vn -0.9606 -0.0907 -0.2628
vn 0.5325 -0.3131 -0.7864
vn 0.6689 0.2597 0.6965
vn -0.8982 0.1160 0.4240
s 0
f 89//81 96//81 88//81 87//81
f 85//82 86//82 93//82 92//82
f 92//83 93//83 94//83 91//83
f 91//84 94//84 95//84 90//84
f 90//85 95//85 96//85 89//85
o 平面.005
v -0.744595 -4.939131 0.293334
v -0.504472 -4.878277 0.607400
v -0.424534 -0.000000 -0.500752
v -0.824534 -0.000000 -0.500752
v -0.533874 -1.022559 -0.608465
v -0.820863 -1.994001 -0.292850
v -0.607213 -2.910453 0.172970
v -0.437730 -3.947978 0.161577
v -0.811337 -3.913649 0.299459
v -0.641854 -3.009867 -0.212927
v -0.428204 -1.977744 -0.218323
v -0.715193 -0.976118 -0.254959
vn -0.5221 -0.0588 -0.8509
vn -0.9607 -0.0609 -0.2709
vn 0.5319 -0.2116 -0.8200
vn 0.6689 0.1747 0.7225
vn -0.8984 0.0772 0.4323
s 0
f 101//86 108//86 100//86 99//86
f 97//87 98//87 105//87 104//87
f 104//88 105//88 106//88 103//88
f 103//89 106//89 107//89 102//89
f 102//90 107//90 108//90 101//90
o 平面.006
v 0.847684 -4.853898 0.749115
v 1.087807 -4.766603 1.056882
v 1.167746 -0.000000 -0.461367
v 0.767746 -0.000000 -0.461367
v 1.058405 -1.032118 -0.536538
v 0.771416 -1.981907 -0.143397
v 0.985067 -2.845974 0.416680
v 1.154549 -3.880589 0.521464
v 0.780942 -3.831735 0.654528
v 0.950425 -2.987590 0.044195
v 1.164075 -1.958581 -0.070772
v 0.877086 -0.964997 -0.186370
vn -0.5213 -0.0850 -0.8491
vn -0.9606 -0.0871 -0.2640
vn 0.5324 -0.3011 -0.7911
vn 0.6689 0.2497 0.7002
vn -0.8982 0.1113 0.4252
s 0
f 113//91 120//91 112//91 111//91
f 109//92 110//92 117//92 116//92
f 116//93 117//93 118//93 115//93
f 115//94 118//94 119//94 114//94
f 114//95 119//95 120//95 113//95
o 平面.007
v 0.139880 -4.539173 1.631240
v 0.380003 -4.395493 1.917067
v 0.459941 -0.000000 -0.471495
v 0.059941 -0.000000 -0.471495
v 0.350601 -1.051995 -0.470912
v 0.063611 -1.931742 0.093422
v 0.277262 -2.648747 0.842534
v 0.446744 -3.634810 1.199086
v 0.073138 -3.556424 1.316344
v 0.242620 -2.876285 0.515385
v 0.456271 -1.893367 0.159346
v 0.169282 -0.938573 -0.132890
vn -0.5183 -0.1437 -0.8431
vn -0.9604 -0.1421 -0.2398
vn 0.5335 -0.4826 -0.6947
vn 0.6688 0.4052 0.6233
vn -0.8976 0.1865 0.3995
s 0
f 125//96 132//96 124//96 123//96
f 121//97 122//97 129//97 128//97
f 128//98 129//98 130//98 127//98
f 127//99 130//99 131//99 126//99
f 126//100 131//100 132//100 125//100
o 平面.008
v -0.395757 -4.754583 2.008972
v -0.155634 -4.645441 2.309686
v -0.075695 -0.000000 0.453490
v -0.475695 -0.000000 0.453490
v -0.185036 -1.039915 0.406472
v -0.472025 -1.966848 0.864826
v -0.258374 -2.779876 1.500221
v -0.088892 -3.802779 1.702070
v -0.462498 -3.742213 1.829921
v -0.293016 -2.955562 1.142542
v -0.079365 -1.937682 0.935309
v -0.366355 -0.955284 0.752826
vn -0.5204 -0.1071 -0.8472
vn -0.9605 -0.1086 -0.2562
vn 0.5328 -0.3732 -0.7595
vn 0.6689 0.3108 0.6753
vn -0.8980 0.1400 0.4171
s 0
f 137//101 144//101 136//101 135//101
f 133//102 134//102 141//102 140//102
f 140//103 141//103 142//103 139//103
f 139//104 142//104 143//104 138//104
f 138//105 143//105 144//105 137//105
o 平面.009
v -0.687768 -4.931169 -0.288799
v -0.447645 -4.867261 0.024660
v -0.367707 -0.000000 -1.130912
v -0.767707 -0.000000 -1.130912
v -0.477047 -1.023669 -1.234939
v -0.764036 -1.992920 -0.910432
v -0.550386 -2.903831 -0.433564
v -0.380903 -3.941633 -0.431627
v -0.754510 -3.905610 -0.294219
v -0.585028 -3.008163 -0.818161
v -0.371377 -1.975846 -0.836088
v -0.658366 -0.974863 -0.881752
vn -0.5220 -0.0618 -0.8507
vn -0.9607 -0.0639 -0.2702
vn 0.5319 -0.2221 -0.8172
vn 0.6689 0.1834 0.7203
vn -0.8984 0.0811 0.4316
s 0
f 149//106 156//106 148//106 147//106
f 145//107 146//107 153//107 152//107
f 152//108 153//108 154//108 151//108
f 151//109 154//109 155//109 150//109
f 150//110 155//110 156//110 149//110
o 平面.010
v 0.719852 -4.979882 1.305562
v 0.959975 -4.939290 1.622884
v 1.039913 -0.000000 0.829786
v 0.639913 -0.000000 0.829786
v 0.930573 -1.015144 0.698028
v 0.643584 -1.999210 0.954946
v 0.857234 -2.949134 1.346411
v 1.026717 -3.980870 1.247242
v 0.653110 -3.957869 1.387729
v 0.822593 -3.015687 0.953511
v 1.036243 -1.988368 1.030452
v 0.749254 -0.984285 1.053234
vn -0.5225 -0.0391 -0.8517
vn -0.9607 -0.0407 -0.2745
vn 0.5315 -0.1418 -0.8351
vn 0.6690 0.1168 0.7341
vn -0.8985 0.0513 0.4359
s 0
f 161//111 168//111 160//111 159//111
f 157//112 158//112 165//112 164//112
f 164//113 165//113 166//113 163//113
f 163//114 166//114 167//114 162//114
f 162//115 167//115 168//115 161//115
o 平面.011
v -1.308364 -4.937148 0.583517
v -1.068240 -4.875515 0.897431
v -0.988302 -0.000000 -0.222807
v -1.388302 -0.000000 -0.222807
v -1.097643 -1.022842 -0.329581
v -1.384632 -1.993732 -0.011701
v -1.170981 -2.908785 0.456938
v -1.001499 -3.946396 0.448939
v -1.375105 -3.911635 0.586703
v -1.205623 -3.009453 0.071366
v -0.991972 -1.977267 0.062780
v -1.278962 -0.975798 0.023845
vn -0.5221 -0.0595 -0.8508
vn -0.9607 -0.0617 -0.2707
vn 0.5319 -0.2143 -0.8193
vn 0.6689 0.1769 0.7220
vn -0.8984 0.0782 0.4321
s 0
f 173//116 180//116 172//116 171//116
f 169//117 170//117 177//117 176//117
f 176//118 177//118 178//118 175//118
f 175//119 178//119 179//119 174//119
f 174//120 179//120 180//120 173//120
