# Blender 4.4.3
# www.blender.org
o ICO球
v -1.447215 -0.304170 -1.051451
v 0.552776 -0.304171 -1.701298
v 1.788852 -0.304164 -0.000000
v 0.552776 -0.304171 1.701298
v -1.447215 -0.304170 1.051451
v -0.552776 0.666966 -1.701298
v 1.447215 0.666965 -1.051451
v 1.447215 0.666965 1.051451
v -0.552776 0.666966 1.701298
v -1.788852 0.666960 -0.000000
v -0.000000 1.491360 -0.000000
v -0.525738 -0.421269 -1.618023
v -1.701296 -0.421266 -0.000000
v 1.376379 -0.421267 -0.999994
v 1.376379 -0.421267 0.999994
v -0.525738 -0.421269 1.618023
v -1.902116 -0.000000 -0.618025
v -1.902116 -0.000000 0.618025
v -0.000000 -0.000000 -2.000000
v -1.175571 -0.000000 -1.618033
v 1.902116 -0.000000 -0.618025
v 1.175571 -0.000000 -1.618033
v 1.175571 -0.000000 1.618033
v 1.902116 -0.000000 0.618025
v -1.175571 -0.000000 1.618033
v -0.000000 -0.000000 2.000000
v -1.376379 0.784062 -0.999994
v 0.525738 0.784064 -1.618023
v 1.701296 0.784062 -0.000000
v 0.525738 0.784064 1.618023
v -1.376379 0.784062 0.999994
v -0.324911 1.268632 -0.999991
v -1.051460 1.268628 -0.000000
v 0.850645 1.268632 -0.618023
v 0.850645 1.268632 0.618023
v -0.324911 1.268632 0.999991
vn -0.6882 -0.6838 -0.2425
vn 0.0179 -0.6838 -0.7295
vn 0.6993 -0.6838 -0.2084
vn 0.4143 -0.6838 0.6007
vn -0.4433 -0.6838 0.5796
vn -0.7582 -0.3490 -0.5508
vn 0.2896 -0.3490 -0.8913
vn 0.9371 -0.3490 -0.0000
vn 0.2896 -0.3490 0.8913
vn -0.7582 -0.3490 0.5508
vn -0.3520 0.7638 -0.5409
vn 0.4057 0.7638 -0.5019
vn 0.6027 0.7638 0.2307
vn -0.0332 0.7638 0.6445
vn -0.6233 0.7638 0.1676
vn -0.2049 0.9674 0.1489
vn -0.4004 0.8689 0.2909
vn -0.3520 0.7638 0.5409
vn 0.0783 0.9674 0.2409
vn 0.1530 0.8689 0.4707
vn 0.4057 0.7638 0.5019
vn 0.2533 0.9674 -0.0000
vn 0.4950 0.8689 -0.0000
vn 0.6027 0.7638 -0.2307
vn 0.0783 0.9674 -0.2409
vn 0.1530 0.8689 -0.4707
vn -0.0332 0.7638 -0.6445
vn -0.2049 0.9674 -0.1489
vn -0.4004 0.8689 -0.2909
vn -0.6233 0.7638 -0.1676
vn -0.8533 0.4249 0.3022
vn -0.7837 0.2481 0.5694
vn -0.5511 0.4249 0.7181
vn 0.0237 0.4249 0.9049
vn 0.2994 0.2481 0.9213
vn 0.5127 0.4249 0.7460
vn 0.8680 0.4249 0.2571
vn 0.9687 0.2481 -0.0000
vn 0.8680 0.4249 -0.2571
vn 0.5127 0.4249 -0.7460
vn 0.2994 0.2481 -0.9213
vn 0.0237 0.4249 -0.9049
vn -0.5511 0.4249 -0.7181
vn -0.7837 0.2481 -0.5694
vn -0.8533 0.4249 -0.3022
vn -0.3047 0.1674 0.9376
vn -0.2789 -0.4303 0.8585
vn 0.0179 -0.6838 0.7295
vn 0.7976 0.1674 0.5795
vn 0.7303 -0.4303 0.5306
vn 0.6993 -0.6838 0.2084
vn 0.7976 0.1674 -0.5795
vn 0.7303 -0.4303 -0.5306
vn 0.4143 -0.6838 -0.6007
vn -0.3047 0.1674 -0.9376
vn -0.2789 -0.4303 -0.8585
vn -0.4433 -0.6838 -0.5796
vn -0.9859 0.1674 -0.0000
vn -0.9027 -0.4303 -0.0000
vn -0.6882 -0.6838 0.2425
s 0
f 1//1 13//1 17//1
f 2//2 12//2 19//2
f 3//3 14//3 21//3
f 4//4 15//4 23//4
f 5//5 16//5 25//5
f 1//6 17//6 20//6
f 2//7 19//7 22//7
f 3//8 21//8 24//8
f 4//9 23//9 26//9
f 5//10 25//10 18//10
f 6//11 27//11 32//11
f 7//12 28//12 34//12
f 8//13 29//13 35//13
f 9//14 30//14 36//14
f 10//15 31//15 33//15
f 33//16 36//16 11//16
f 33//17 31//17 36//17
f 31//18 9//18 36//18
f 36//19 35//19 11//19
f 36//20 30//20 35//20
f 30//21 8//21 35//21
f 35//22 34//22 11//22
f 35//23 29//23 34//23
f 29//24 7//24 34//24
f 34//25 32//25 11//25
f 34//26 28//26 32//26
f 28//27 6//27 32//27
f 32//28 33//28 11//28
f 32//29 27//29 33//29
f 27//30 10//30 33//30
f 18//31 31//31 10//31
f 18//32 25//32 31//32
f 25//33 9//33 31//33
f 26//34 30//34 9//34
f 26//35 23//35 30//35
f 23//36 8//36 30//36
f 24//37 29//37 8//37
f 24//38 21//38 29//38
f 21//39 7//39 29//39
f 22//40 28//40 7//40
f 22//41 19//41 28//41
f 19//42 6//42 28//42
f 20//43 27//43 6//43
f 20//44 17//44 27//44
f 17//45 10//45 27//45
f 25//46 26//46 9//46
f 25//47 16//47 26//47
f 16//48 4//48 26//48
f 23//49 24//49 8//49
f 23//50 15//50 24//50
f 15//51 3//51 24//51
f 21//52 22//52 7//52
f 21//53 14//53 22//53
f 14//54 2//54 22//54
f 19//55 20//55 6//55
f 19//56 12//56 20//56
f 12//57 1//57 20//57
f 17//58 18//58 10//58
f 17//59 13//59 18//59
f 13//60 5//60 18//60
o 平面
v -0.120062 -4.979852 0.476081
v 0.120062 -4.939241 0.793401
v 0.200000 -0.000000 -0.000000
v -0.200000 -0.000000 -0.000000
v 0.090659 -1.015151 -0.131736
v -0.196330 -1.999207 0.125238
v 0.017321 -2.949100 0.516776
v 0.186803 -3.980847 0.417691
v -0.186803 -3.957834 0.558176
v -0.017321 -3.015685 0.123881
v 0.196330 -1.988359 0.200743
v -0.090659 -0.984278 0.223469
vn -0.5225 -0.0391 -0.8517
vn -0.9607 -0.0407 -0.2745
vn 0.5315 -0.1418 -0.8351
vn 0.6690 0.1168 0.7341
vn -0.8985 0.0514 0.4359
s 0
f 41//61 48//61 40//61 39//61
f 37//62 38//62 45//62 44//62
f 44//63 45//63 46//63 43//63
f 43//64 46//64 47//64 42//64
f 42//65 47//65 48//65 41//65
o 平面.001
v 0.698453 -4.962949 0.842267
v 0.938576 -4.912644 1.158195
v 1.018514 -0.000000 0.213996
v 0.618514 -0.000000 0.213996
v 0.909174 -1.018708 0.093680
v 0.622185 -1.997131 0.378676
v 0.835835 -2.931720 0.806003
v 1.005318 -3.967085 0.748754
v 0.631711 -3.938636 0.888109
v 0.801193 -3.014070 0.416107
v 1.014844 -1.983693 0.453763
v 0.727855 -0.980403 0.448160
vn -0.5223 -0.0485 -0.8514
vn -0.9607 -0.0504 -0.2730
vn 0.5317 -0.1753 -0.8286
vn 0.6689 0.1446 0.7291
vn -0.8985 0.0637 0.4344
s 0
f 53//66 60//66 52//66 51//66
f 49//67 50//67 57//67 56//67
f 56//68 57//68 58//68 55//68
f 55//69 58//69 59//69 54//69
f 54//70 59//70 60//70 53//70
o 平面.002
v -1.037918 -4.344029 2.840520
v -0.797795 -4.176575 3.113101
v -0.717856 -0.000000 0.359593
v -1.117856 -0.000000 0.359593
v -0.827197 -1.060041 0.395847
v -1.114186 -1.897607 1.035735
v -0.900536 -2.536428 1.858691
v -0.731053 -3.482942 2.322178
v -1.104660 -3.392902 2.430377
v -0.935177 -2.797825 1.557906
v -0.721527 -1.852936 1.097566
v -1.008516 -0.925720 0.726122
vn -0.5162 -0.1703 -0.8394
vn -0.9603 -0.1646 -0.2253
vn 0.5339 -0.5538 -0.6390
vn 0.6688 0.4680 0.5776
vn -0.8971 0.2196 0.3833
s 0
f 65//71 72//71 64//71 63//71
f 61//72 62//72 69//72 68//72
f 68//73 69//73 70//73 67//73
f 67//74 70//74 71//74 66//74
f 66//75 71//75 72//75 65//75
o 平面.003
v 0.099369 -4.778963 0.426741
v 0.339492 -4.674667 0.729169
v 0.419431 -0.000000 -1.052142
v 0.019431 -0.000000 -1.052142
v 0.310090 -1.038194 -1.105519
v 0.023101 -1.970618 -0.661738
v 0.236751 -2.795593 -0.042837
v 0.406234 -3.821843 0.137416
v 0.032627 -3.763848 0.266521
v 0.202110 -2.963797 -0.404095
v 0.415760 -1.942747 -0.590733
v 0.128771 -0.957487 -0.758230
vn -0.5206 -0.1022 -0.8477
vn -0.9605 -0.1039 -0.2580
vn 0.5327 -0.3574 -0.7671
vn 0.6689 0.2973 0.6813
vn -0.8981 0.1336 0.4191
s 0
f 77//76 84//76 76//76 75//76
f 73//77 74//77 81//77 80//77
f 80//78 81//78 82//78 79//78
f 79//79 82//79 83//79 78//79
f 78//80 83//80 84//80 77//80
o 平面.004
v -0.024975 -4.652287 2.903490
v 0.215148 -4.525235 3.197086
v 0.295087 -0.000000 1.064520
v -0.104913 -0.000000 1.064520
v 0.185746 -1.046224 1.041647
v -0.101243 -1.950546 1.554460
v 0.112407 -2.716228 2.249698
v 0.281890 -3.722934 2.531629
v -0.091717 -3.653009 2.654354
v 0.077766 -2.919152 1.906738
v 0.291416 -1.916598 1.622769
v 0.004427 -0.946861 1.384066
vn -0.5194 -0.1258 -0.8452
vn -0.9604 -0.1261 -0.2483
vn 0.5331 -0.4307 -0.7282
vn 0.6689 0.3601 0.6503
vn -0.8978 0.1639 0.4088
s 0
f 89//81 96//81 88//81 87//81
f 85//82 86//82 93//82 92//82
f 92//83 93//83 94//83 91//83
f 91//84 94//84 95//84 90//84
f 90//85 95//85 96//85 89//85
o 平面.005
v -0.744595 -4.936625 0.308767
v -0.504472 -4.874790 0.622641
v -0.424534 -0.000000 -0.500752
v -0.824534 -0.000000 -0.500752
v -0.533874 -1.022916 -0.607283
v -0.820863 -1.993662 -0.288812
v -0.607213 -2.908347 0.180564
v -0.437730 -3.945979 0.173452
v -0.811337 -3.911105 0.311184
v -0.641854 -3.009343 -0.204923
v -0.428204 -1.977142 -0.214342
v -0.715193 -0.975715 -0.253877
vn -0.5221 -0.0597 -0.8508
vn -0.9607 -0.0619 -0.2707
vn 0.5319 -0.2150 -0.8191
vn 0.6689 0.1775 0.7218
vn -0.8984 0.0784 0.4321
s 0
f 101//86 108//86 100//86 99//86
f 97//87 98//87 105//87 104//87
f 104//88 105//88 106//88 103//88
f 103//89 106//89 107//89 102//89
f 102//90 107//90 108//90 101//90
o 平面.006
v 0.847684 -4.793666 0.969139
v 1.087807 -4.692432 1.272607
v 1.167746 -0.000000 -0.461367
v 0.767746 -0.000000 -0.461367
v 1.058405 -1.037104 -0.518726
v 0.771416 -1.972870 -0.084120
v 0.985067 -2.805207 0.524297
v 1.154549 -3.833350 0.690922
v 0.780942 -3.776989 0.820790
v 0.950425 -2.968660 0.160865
v 1.164075 -1.945817 -0.012798
v 0.877086 -0.958864 -0.170873
vn -0.5207 -0.0990 -0.8480
vn -0.9605 -0.1009 -0.2592
vn 0.5327 -0.3474 -0.7718
vn 0.6689 0.2888 0.6850
vn -0.8981 0.1295 0.4203
s 0
f 113//91 120//91 112//91 111//91
f 109//92 110//92 117//92 116//92
f 116//93 117//93 118//93 115//93
f 115//94 118//94 119//94 114//94
f 114//95 119//95 120//95 113//95
o 平面.007
v 0.139879 -4.351588 1.996149
v 0.380003 -4.184968 2.269240
v 0.459941 -0.000000 -0.471495
v 0.059941 -0.000000 -0.471495
v 0.350601 -1.059764 -0.436540
v 0.063611 -1.898966 0.200656
v 0.277262 -2.540710 1.021092
v 0.446744 -3.488822 1.480828
v 0.073138 -3.399181 1.589371
v 0.242620 -2.800950 0.719305
v 0.456271 -1.854515 0.262646
v 0.169282 -0.926194 -0.105961
vn -0.5163 -0.1693 -0.8395
vn -0.9603 -0.1638 -0.2259
vn 0.5339 -0.5513 -0.6411
vn 0.6688 0.4659 0.5793
vn -0.8972 0.2185 0.3839
s 0
f 125//96 132//96 124//96 123//96
f 121//97 122//97 129//97 128//97
f 128//98 129//98 130//98 127//98
f 127//99 130//99 131//99 126//99
f 126//100 131//100 132//100 125//100
o 平面.008
v -0.395757 -4.708865 2.142329
v -0.155634 -4.591292 2.439848
v -0.075695 -0.000000 0.453490
v -0.475695 -0.000000 0.453490
v -0.185036 -1.042895 0.417705
v -0.472025 -1.959653 0.901569
v -0.258374 -2.751030 1.565353
v -0.088892 -3.767070 1.804849
v -0.462498 -3.702069 1.930384
v -0.293016 -2.939623 1.214308
v -0.079365 -1.928235 0.971078
v -0.366355 -0.951378 0.762303
vn -0.5199 -0.1159 -0.8463
vn -0.9605 -0.1169 -0.2526
vn 0.5330 -0.4005 -0.7454
vn 0.6689 0.3341 0.6641
vn -0.8979 0.1512 0.4134
s 0
f 137//101 144//101 136//101 135//101
f 133//102 134//102 141//102 140//102
f 140//103 141//103 142//103 139//103
f 139//104 142//104 143//104 138//104
f 138//105 143//105 144//105 137//105
o 平面.009
v -0.687768 -4.961647 -0.492440
v -0.447645 -4.910693 -0.176616
v -0.367707 -0.000000 -1.130912
v -0.767707 -0.000000 -1.130912
v -0.477047 -1.018946 -1.250458
v -0.764036 -1.996965 -0.963582
v -0.550386 -2.930483 -0.533872
v -0.380903 -3.966034 -0.588306
v -0.754510 -3.937222 -0.449034
v -0.585028 -3.013886 -0.923543
v -0.371377 -1.983354 -0.888527
v -0.658366 -0.980142 -0.896033
vn -0.5223 -0.0491 -0.8513
vn -0.9607 -0.0510 -0.2728
vn 0.5317 -0.1776 -0.8281
vn 0.6689 0.1464 0.7287
vn -0.8985 0.0645 0.4343
s 0
f 149//106 156//106 148//106 147//106
f 145//107 146//107 153//107 152//107
f 152//108 153//108 154//108 151//108
f 151//109 154//109 155//109 150//109
f 150//110 155//110 156//110 149//110
o 平面.010
v 0.719852 -5.001657 0.924700
v 0.959975 -4.985364 1.244193
v 1.039913 -0.000000 0.829786
v 0.639913 -0.000000 0.829786
v 0.930573 -1.006132 0.669969
v 0.643584 -2.001183 0.856936
v 0.857234 -2.983791 1.156961
v 1.026717 -3.999707 0.954335
v 0.653110 -3.990442 1.096711
v 0.822593 -3.010569 0.759365
v 1.036243 -1.996832 0.933091
v 0.749254 -0.993777 1.026299
vn -0.5228 -0.0156 -0.8523
vn -0.9608 -0.0163 -0.2768
vn 0.5310 -0.0571 -0.8455
vn 0.6690 0.0469 0.7418
vn -0.8986 0.0206 0.4383
s 0
f 161//111 168//111 160//111 159//111
f 157//112 158//112 165//112 164//112
f 164//113 165//113 166//113 163//113
f 163//114 166//114 167//114 162//114
f 162//115 167//115 168//115 161//115
o 平面.011
v -1.308364 -4.838691 1.047098
v -1.068241 -4.747630 1.353771
v -0.988302 -0.000000 -0.222807
v -1.388302 -0.000000 -0.222807
v -1.097643 -1.033470 -0.293214
v -1.384632 -1.979657 0.111086
v -1.170981 -2.835436 0.684322
v -1.001499 -3.868645 0.805783
v -1.375105 -3.817751 0.938029
v -1.205623 -2.982985 0.314148
v -0.991972 -1.955324 0.183380
v -1.278962 -0.963361 0.056369
vn -0.5212 -0.0887 -0.8488
vn -0.9606 -0.0909 -0.2627
vn 0.5325 -0.3137 -0.7862
vn 0.6689 0.2603 0.6963
vn -0.8982 0.1162 0.4239
s 0
f 173//116 180//116 172//116 171//116
f 169//117 170//117 177//117 176//117
f 176//118 177//118 178//118 175//118
f 175//119 178//119 179//119 174//119
f 174//120 179//120 180//120 173//120
