# Blender 4.4.3
# www.blender.org
o ICO球
v -1.447215 -0.304170 -1.051451
v 0.552776 -0.304171 -1.701298
v 1.788852 -0.304164 -0.000000
v 0.552776 -0.304171 1.701298
v -1.447215 -0.304170 1.051451
v -0.552776 0.666966 -1.701298
v 1.447215 0.666965 -1.051451
v 1.447215 0.666965 1.051451
v -0.552776 0.666966 1.701298
v -1.788852 0.666960 -0.000000
v -0.000000 1.491360 -0.000000
v -0.525738 -0.421269 -1.618023
v -1.701296 -0.421266 -0.000000
v 1.376379 -0.421267 -0.999994
v 1.376379 -0.421267 0.999994
v -0.525738 -0.421269 1.618023
v -1.902116 -0.000000 -0.618025
v -1.902116 -0.000000 0.618025
v -0.000000 -0.000000 -2.000000
v -1.175571 -0.000000 -1.618033
v 1.902116 -0.000000 -0.618025
v 1.175571 -0.000000 -1.618033
v 1.175571 -0.000000 1.618033
v 1.902116 -0.000000 0.618025
v -1.175571 -0.000000 1.618033
v -0.000000 -0.000000 2.000000
v -1.376379 0.784062 -0.999994
v 0.525738 0.784064 -1.618023
v 1.701296 0.784062 -0.000000
v 0.525738 0.784064 1.618023
v -1.376379 0.784062 0.999994
v -0.324911 1.268632 -0.999991
v -1.051460 1.268628 -0.000000
v 0.850645 1.268632 -0.618023
v 0.850645 1.268632 0.618023
v -0.324911 1.268632 0.999991
vn -0.6882 -0.6838 -0.2425
vn 0.0179 -0.6838 -0.7295
vn 0.6993 -0.6838 -0.2084
vn 0.4143 -0.6838 0.6007
vn -0.4433 -0.6838 0.5796
vn -0.7582 -0.3490 -0.5508
vn 0.2896 -0.3490 -0.8913
vn 0.9371 -0.3490 -0.0000
vn 0.2896 -0.3490 0.8913
vn -0.7582 -0.3490 0.5508
vn -0.3520 0.7638 -0.5409
vn 0.4057 0.7638 -0.5019
vn 0.6027 0.7638 0.2307
vn -0.0332 0.7638 0.6445
vn -0.6233 0.7638 0.1676
vn -0.2049 0.9674 0.1489
vn -0.4004 0.8689 0.2909
vn -0.3520 0.7638 0.5409
vn 0.0783 0.9674 0.2409
vn 0.1530 0.8689 0.4707
vn 0.4057 0.7638 0.5019
vn 0.2533 0.9674 -0.0000
vn 0.4950 0.8689 -0.0000
vn 0.6027 0.7638 -0.2307
vn 0.0783 0.9674 -0.2409
vn 0.1530 0.8689 -0.4707
vn -0.0332 0.7638 -0.6445
vn -0.2049 0.9674 -0.1489
vn -0.4004 0.8689 -0.2909
vn -0.6233 0.7638 -0.1676
vn -0.8533 0.4249 0.3022
vn -0.7837 0.2481 0.5694
vn -0.5511 0.4249 0.7181
vn 0.0237 0.4249 0.9049
vn 0.2994 0.2481 0.9213
vn 0.5127 0.4249 0.7460
vn 0.8680 0.4249 0.2571
vn 0.9687 0.2481 -0.0000
vn 0.8680 0.4249 -0.2571
vn 0.5127 0.4249 -0.7460
vn 0.2994 0.2481 -0.9213
vn 0.0237 0.4249 -0.9049
vn -0.5511 0.4249 -0.7181
vn -0.7837 0.2481 -0.5694
vn -0.8533 0.4249 -0.3022
vn -0.3047 0.1674 0.9376
vn -0.2789 -0.4303 0.8585
vn 0.0179 -0.6838 0.7295
vn 0.7976 0.1674 0.5795
vn 0.7303 -0.4303 0.5306
vn 0.6993 -0.6838 0.2084
vn 0.7976 0.1674 -0.5795
vn 0.7303 -0.4303 -0.5306
vn 0.4143 -0.6838 -0.6007
vn -0.3047 0.1674 -0.9376
vn -0.2789 -0.4303 -0.8585
vn -0.4433 -0.6838 -0.5796
vn -0.9859 0.1674 -0.0000
vn -0.9027 -0.4303 -0.0000
vn -0.6882 -0.6838 0.2425
s 0
f 1//1 13//1 17//1
f 2//2 12//2 19//2
f 3//3 14//3 21//3
f 4//4 15//4 23//4
f 5//5 16//5 25//5
f 1//6 17//6 20//6
f 2//7 19//7 22//7
f 3//8 21//8 24//8
f 4//9 23//9 26//9
f 5//10 25//10 18//10
f 6//11 27//11 32//11
f 7//12 28//12 34//12
f 8//13 29//13 35//13
f 9//14 30//14 36//14
f 10//15 31//15 33//15
f 33//16 36//16 11//16
f 33//17 31//17 36//17
f 31//18 9//18 36//18
f 36//19 35//19 11//19
f 36//20 30//20 35//20
f 30//21 8//21 35//21
f 35//22 34//22 11//22
f 35//23 29//23 34//23
f 29//24 7//24 34//24
f 34//25 32//25 11//25
f 34//26 28//26 32//26
f 28//27 6//27 32//27
f 32//28 33//28 11//28
f 32//29 27//29 33//29
f 27//30 10//30 33//30
f 18//31 31//31 10//31
f 18//32 25//32 31//32
f 25//33 9//33 31//33
f 26//34 30//34 9//34
f 26//35 23//35 30//35
f 23//36 8//36 30//36
f 24//37 29//37 8//37
f 24//38 21//38 29//38
f 21//39 7//39 29//39
f 22//40 28//40 7//40
f 22//41 19//41 28//41
f 19//42 6//42 28//42
f 20//43 27//43 6//43
f 20//44 17//44 27//44
f 17//45 10//45 27//45
f 25//46 26//46 9//46
f 25//47 16//47 26//47
f 16//48 4//48 26//48
f 23//49 24//49 8//49
f 23//50 15//50 24//50
f 15//51 3//51 24//51
f 21//52 22//52 7//52
f 21//53 14//53 22//53
f 14//54 2//54 22//54
f 19//55 20//55 6//55
f 19//56 12//56 20//56
f 12//57 1//57 20//57
f 17//58 18//58 10//58
f 17//59 13//59 18//59
f 13//60 5//60 18//60
o 平面
v -0.120062 -4.975076 0.523642
v 0.120062 -4.931434 0.840559
v 0.200000 -0.000000 -0.000000
v -0.200000 -0.000000 -0.000000
v 0.090659 -1.016265 -0.128181
v -0.196330 -1.998639 0.137543
v 0.017321 -2.943888 0.540312
v 0.186803 -3.976932 0.454274
v -0.186803 -3.952216 0.594428
v -0.017321 -3.015409 0.148285
v 0.196330 -1.986982 0.212927
v -0.090659 -0.983072 0.226814
vn -0.5225 -0.0420 -0.8516
vn -0.9607 -0.0437 -0.2740
vn 0.5315 -0.1523 -0.8332
vn 0.6690 0.1255 0.7326
vn -0.8985 0.0552 0.4355
s 0
f 41//61 48//61 40//61 39//61
f 37//62 38//62 45//62 44//62
f 44//63 45//63 46//63 43//63
f 43//64 46//64 47//64 42//64
f 42//65 47//65 48//65 41//65
o 平面.001
v 0.698453 -4.957282 0.885521
v 0.938576 -4.904224 1.200998
v 1.018514 -0.000000 0.213996
v 0.618514 -0.000000 0.213996
v 0.909174 -1.019715 0.096950
v 0.622185 -1.996403 0.389922
v 0.835835 -2.926409 0.827342
v 1.005318 -3.962516 0.782029
v 0.631711 -3.932528 0.921025
v 0.801193 -3.013222 0.438416
v 1.014844 -1.982229 0.464874
v 0.727855 -0.979292 0.451195
vn -0.5223 -0.0512 -0.8512
vn -0.9607 -0.0531 -0.2725
vn 0.5317 -0.1848 -0.8265
vn 0.6689 0.1525 0.7275
vn -0.8985 0.0672 0.4339
s 0
f 53//66 60//66 52//66 51//66
f 49//67 50//67 57//67 56//67
f 56//68 57//68 58//68 55//68
f 55//69 58//69 59//69 54//69
f 54//70 59//70 60//70 53//70
o 平面.002
v -1.037918 -4.349085 2.831645
v -0.797795 -4.182189 3.104567
v -0.717856 -0.000000 0.359593
v -1.117856 -0.000000 0.359593
v -0.827197 -1.059856 0.394979
v -1.114186 -1.898516 1.033068
v -0.900536 -2.539293 1.854341
v -0.731053 -3.486876 2.315321
v -1.104660 -3.397102 2.423750
v -0.935177 -2.799917 1.552886
v -0.721527 -1.853993 1.095006
v -1.008516 -0.926036 0.725457
vn -0.5163 -0.1696 -0.8395
vn -0.9603 -0.1640 -0.2257
vn 0.5339 -0.5521 -0.6404
vn 0.6688 0.4666 0.5788
vn -0.8971 0.2189 0.3837
s 0
f 65//71 72//71 64//71 63//71
f 61//72 62//72 69//72 68//72
f 68//73 69//73 70//73 67//73
f 67//74 70//74 71//74 66//74
f 66//75 71//75 72//75 65//75
o 平面.003
v 0.099369 -4.806453 0.334793
v 0.339492 -4.707978 0.639167
v 0.419431 -0.000000 -1.052142
v 0.019431 -0.000000 -1.052142
v 0.310090 -1.036121 -1.113067
v 0.023101 -1.974815 -0.686705
v 0.236751 -2.813664 -0.087776
v 0.406234 -3.843365 0.066583
v 0.032627 -3.788480 0.197120
v 0.202110 -2.972821 -0.453110
v 0.415760 -1.948500 -0.615108
v 0.128771 -0.960095 -0.764723
vn -0.5209 -0.0962 -0.8482
vn -0.9606 -0.0982 -0.2602
vn 0.5326 -0.3383 -0.7758
vn 0.6689 0.2811 0.6882
vn -0.8981 0.1259 0.4213
s 0
f 77//76 84//76 76//76 75//76
f 73//77 74//77 81//77 80//77
f 80//78 81//78 82//78 79//78
f 79//79 82//79 83//79 78//79
f 78//80 83//80 84//80 77//80
o 平面.004
v -0.024975 -4.661298 2.880528
v 0.215148 -4.535695 3.174747
v 0.295087 -0.000000 1.064520
v -0.104913 -0.000000 1.064520
v 0.185746 -1.045717 1.039653
v -0.101243 -1.952011 1.548021
v 0.112407 -2.721716 2.238485
v 0.281890 -3.729960 2.513922
v -0.091717 -3.660783 2.637091
v 0.077766 -2.922462 1.894246
v 0.291416 -1.918449 1.616521
v 0.004427 -0.947560 1.382420
vn -0.5195 -0.1243 -0.8454
vn -0.9605 -0.1247 -0.2490
vn 0.5331 -0.4261 -0.7309
vn 0.6689 0.3562 0.6525
vn -0.8978 0.1620 0.4095
s 0
f 89//81 96//81 88//81 87//81
f 85//82 86//82 93//82 92//82
f 92//83 93//83 94//83 91//83
f 91//84 94//84 95//84 90//84
f 90//85 95//85 96//85 89//85
o 平面.005
v -0.744595 -4.932987 0.330646
v -0.504472 -4.869761 0.644243
v -0.424534 -0.000000 -0.500752
v -0.824534 -0.000000 -0.500752
v -0.533874 -1.023422 -0.605603
v -0.820863 -1.993168 -0.283081
v -0.607213 -2.905327 0.191327
v -0.437730 -3.943080 0.190287
v -0.811337 -3.907435 0.327803
v -0.641854 -3.008562 -0.193566
v -0.428204 -1.976277 -0.208695
v -0.715193 -0.975143 -0.252343
vn -0.5220 -0.0611 -0.8507
vn -0.9607 -0.0633 -0.2704
vn 0.5319 -0.2197 -0.8178
vn 0.6689 0.1815 0.7208
vn -0.8984 0.0802 0.4318
s 0
f 101//86 108//86 100//86 99//86
f 97//87 98//87 105//87 104//87
f 104//88 105//88 106//88 103//88
f 103//89 106//89 107//89 102//89
f 102//90 107//90 108//90 101//90
o 平面.006
v 0.847684 -4.790313 0.980331
v 1.087807 -4.688370 1.283561
v 1.167746 -0.000000 -0.461367
v 0.767746 -0.000000 -0.461367
v 1.058405 -1.037357 -0.517807
v 0.771416 -1.972358 -0.081080
v 0.985067 -2.803005 0.529768
v 1.154549 -3.830724 0.699543
v 0.780942 -3.773984 0.829237
v 0.950425 -2.967558 0.166832
v 1.164075 -1.945116 -0.009831
v 0.877086 -0.958546 -0.170083
vn -0.5207 -0.0998 -0.8479
vn -0.9605 -0.1016 -0.2589
vn 0.5327 -0.3497 -0.7707
vn 0.6689 0.2907 0.6841
vn -0.8981 0.1305 0.4200
s 0
f 113//91 120//91 112//91 111//91
f 109//92 110//92 117//92 116//92
f 116//93 117//93 118//93 115//93
f 115//94 118//94 119//94 114//94
f 114//95 119//95 120//95 113//95
o 平面.007
v 0.139879 -4.381764 1.942160
v 0.380003 -4.218534 2.217290
v 0.459941 -0.000000 -0.471495
v 0.059941 -0.000000 -0.471495
v 0.350601 -1.058634 -0.441785
v 0.063611 -1.904366 0.184506
v 0.277262 -2.557857 0.994642
v 0.446744 -3.512301 1.439125
v 0.073138 -3.424289 1.549044
v 0.242620 -2.813367 0.688840
v 0.456271 -1.860809 0.247127
v 0.169282 -0.928103 -0.109994
vn -0.5166 -0.1654 -0.8401
vn -0.9603 -0.1606 -0.2281
vn 0.5338 -0.5414 -0.6496
vn 0.6688 0.4570 0.5863
vn -0.8972 0.2137 0.3864
s 0
f 125//96 132//96 124//96 123//96
f 121//97 122//97 129//97 128//97
f 128//98 129//98 130//98 127//98
f 127//99 130//99 131//99 126//99
f 126//100 131//100 132//100 125//100
o 平面.008
v -0.395757 -4.717217 2.118857
v -0.155634 -4.601129 2.416958
v -0.075695 -0.000000 0.453490
v -0.475695 -0.000000 0.453490
v -0.185036 -1.042372 0.415712
v -0.472025 -1.960980 0.895073
v -0.258374 -2.756246 1.553891
v -0.088892 -3.773590 1.786757
v -0.462498 -3.709365 1.912712
v -0.293016 -2.942579 1.201641
v -0.079365 -1.929958 0.964760
v -0.366355 -0.952072 0.760632
vn -0.5200 -0.1143 -0.8465
vn -0.9605 -0.1154 -0.2533
vn 0.5329 -0.3957 -0.7479
vn 0.6689 0.3300 0.6661
vn -0.8979 0.1492 0.4140
s 0
f 137//101 144//101 136//101 135//101
f 133//102 134//102 141//102 140//102
f 140//103 141//103 142//103 139//103
f 139//104 142//104 143//104 138//104
f 138//105 143//105 144//105 137//105
o 平面.009
v -0.687768 -4.949121 -0.401679
v -0.447645 -4.892392 -0.086842
v -0.367707 -0.000000 -1.130912
v -0.767707 -0.000000 -1.130912
v -0.477047 -1.021056 -1.243575
v -0.764036 -1.995335 -0.939948
v -0.550386 -2.919063 -0.489121
v -0.380903 -3.955965 -0.518481
v -0.754510 -3.923930 -0.379993
v -0.585028 -3.011818 -0.876673
v -0.371377 -1.980180 -0.865189
v -0.658366 -0.977802 -0.889665
vn -0.5222 -0.0547 -0.8511
vn -0.9607 -0.0568 -0.2718
vn 0.5318 -0.1975 -0.8235
vn 0.6689 0.1629 0.7252
vn -0.8984 0.0719 0.4332
s 0
f 149//106 156//106 148//106 147//106
f 145//107 146//107 153//107 152//107
f 152//108 153//108 154//108 151//108
f 151//109 154//109 155//109 150//109
f 150//110 155//110 156//110 149//110
o 平面.010
v 0.719852 -5.002265 0.883918
v 0.959975 -4.988577 1.203532
v 1.039913 -0.000000 0.829786
v 0.639913 -0.000000 0.829786
v 0.930573 -1.005157 0.666998
v 0.643584 -2.001128 0.846475
v 0.857234 -2.986761 1.136557
v 1.026717 -4.000415 0.922973
v 0.653110 -3.992629 1.065472
v 0.822593 -3.009261 0.738695
v 1.036243 -1.997472 0.922667
v 0.749254 -0.994780 1.023390
vn -0.5228 -0.0131 -0.8524
vn -0.9608 -0.0137 -0.2769
vn 0.5309 -0.0480 -0.8461
vn 0.6690 0.0394 0.7422
vn -0.8986 0.0173 0.4384
s 0
f 161//111 168//111 160//111 159//111
f 157//112 158//112 165//112 164//112
f 164//113 165//113 166//113 163//113
f 163//114 166//114 167//114 162//114
f 162//115 167//115 168//115 161//115
o 平面.011
v -1.308364 -4.859276 0.965901
v -1.068241 -4.773362 1.274056
v -0.988302 -0.000000 -0.222807
v -1.388302 -0.000000 -0.222807
v -1.097643 -1.031622 -0.299715
v -1.384632 -1.982697 0.089343
v -1.170981 -2.849750 0.644580
v -1.001499 -3.884818 0.743259
v -1.375105 -3.836714 0.876615
v -1.205623 -2.989186 0.271274
v -0.991972 -1.959740 0.162086
v -1.278962 -0.965593 0.050661
vn -0.5214 -0.0836 -0.8492
vn -0.9606 -0.0858 -0.2644
vn 0.5324 -0.2965 -0.7929
vn 0.6689 0.2458 0.7015
vn -0.8982 0.1095 0.4256
s 0
f 173//116 180//116 172//116 171//116
f 169//117 170//117 177//117 176//117
f 176//118 177//118 178//118 175//118
f 175//119 178//119 179//119 174//119
f 174//120 179//120 180//120 173//120
