# Blender 4.4.3
# www.blender.org
o ICO球
v -1.447215 -0.304170 -1.051451
v 0.552776 -0.304171 -1.701298
v 1.788852 -0.304164 -0.000000
v 0.552776 -0.304171 1.701298
v -1.447215 -0.304170 1.051451
v -0.552776 0.666966 -1.701298
v 1.447215 0.666965 -1.051451
v 1.447215 0.666965 1.051451
v -0.552776 0.666966 1.701298
v -1.788852 0.666960 -0.000000
v -0.000000 1.491360 -0.000000
v -0.525738 -0.421269 -1.618023
v -1.701296 -0.421266 -0.000000
v 1.376379 -0.421267 -0.999994
v 1.376379 -0.421267 0.999994
v -0.525738 -0.421269 1.618023
v -1.902116 -0.000000 -0.618025
v -1.902116 -0.000000 0.618025
v -0.000000 -0.000000 -2.000000
v -1.175571 -0.000000 -1.618033
v 1.902116 -0.000000 -0.618025
v 1.175571 -0.000000 -1.618033
v 1.175571 -0.000000 1.618033
v 1.902116 -0.000000 0.618025
v -1.175571 -0.000000 1.618033
v -0.000000 -0.000000 2.000000
v -1.376379 0.784062 -0.999994
v 0.525738 0.784064 -1.618023
v 1.701296 0.784062 -0.000000
v 0.525738 0.784064 1.618023
v -1.376379 0.784062 0.999994
v -0.324911 1.268632 -0.999991
v -1.051460 1.268628 -0.000000
v 0.850645 1.268632 -0.618023
v 0.850645 1.268632 0.618023
v -0.324911 1.268632 0.999991
vn -0.6882 -0.6838 -0.2425
vn 0.0179 -0.6838 -0.7295
vn 0.6993 -0.6838 -0.2084
vn 0.4143 -0.6838 0.6007
vn -0.4433 -0.6838 0.5796
vn -0.7582 -0.3490 -0.5508
vn 0.2896 -0.3490 -0.8913
vn 0.9371 -0.3490 -0.0000
vn 0.2896 -0.3490 0.8913
vn -0.7582 -0.3490 0.5508
vn -0.3520 0.7638 -0.5409
vn 0.4057 0.7638 -0.5019
vn 0.6027 0.7638 0.2307
vn -0.0332 0.7638 0.6445
vn -0.6233 0.7638 0.1676
vn -0.2049 0.9674 0.1489
vn -0.4004 0.8689 0.2909
vn -0.3520 0.7638 0.5409
vn 0.0783 0.9674 0.2409
vn 0.1530 0.8689 0.4707
vn 0.4057 0.7638 0.5019
vn 0.2533 0.9674 -0.0000
vn 0.4950 0.8689 -0.0000
vn 0.6027 0.7638 -0.2307
vn 0.0783 0.9674 -0.2409
vn 0.1530 0.8689 -0.4707
vn -0.0332 0.7638 -0.6445
vn -0.2049 0.9674 -0.1489
vn -0.4004 0.8689 -0.2909
vn -0.6233 0.7638 -0.1676
vn -0.8533 0.4249 0.3022
vn -0.7837 0.2481 0.5694
vn -0.5511 0.4249 0.7181
vn 0.0237 0.4249 0.9049
vn 0.2994 0.2481 0.9213
vn 0.5127 0.4249 0.7460
vn 0.8680 0.4249 0.2571
vn 0.9687 0.2481 -0.0000
vn 0.8680 0.4249 -0.2571
vn 0.5127 0.4249 -0.7460
vn 0.2994 0.2481 -0.9213
vn 0.0237 0.4249 -0.9049
vn -0.5511 0.4249 -0.7181
vn -0.7837 0.2481 -0.5694
vn -0.8533 0.4249 -0.3022
vn -0.3047 0.1674 0.9376
vn -0.2789 -0.4303 0.8585
vn 0.0179 -0.6838 0.7295
vn 0.7976 0.1674 0.5795
vn 0.7303 -0.4303 0.5306
vn 0.6993 -0.6838 0.2084
vn 0.7976 0.1674 -0.5795
vn 0.7303 -0.4303 -0.5306
vn 0.4143 -0.6838 -0.6007
vn -0.3047 0.1674 -0.9376
vn -0.2789 -0.4303 -0.8585
vn -0.4433 -0.6838 -0.5796
vn -0.9859 0.1674 -0.0000
vn -0.9027 -0.4303 -0.0000
vn -0.6882 -0.6838 0.2425
s 0
f 1//1 13//1 17//1
f 2//2 12//2 19//2
f 3//3 14//3 21//3
f 4//4 15//4 23//4
f 5//5 16//5 25//5
f 1//6 17//6 20//6
f 2//7 19//7 22//7
f 3//8 21//8 24//8
f 4//9 23//9 26//9
f 5//10 25//10 18//10
f 6//11 27//11 32//11
f 7//12 28//12 34//12
f 8//13 29//13 35//13
f 9//14 30//14 36//14
f 10//15 31//15 33//15
f 33//16 36//16 11//16
f 33//17 31//17 36//17
f 31//18 9//18 36//18
f 36//19 35//19 11//19
f 36//20 30//20 35//20
f 30//21 8//21 35//21
f 35//22 34//22 11//22
f 35//23 29//23 34//23
f 29//24 7//24 34//24
f 34//25 32//25 11//25
f 34//26 28//26 32//26
f 28//27 6//27 32//27
f 32//28 33//28 11//28
f 32//29 27//29 33//29
f 27//30 10//30 33//30
f 18//31 31//31 10//31
f 18//32 25//32 31//32
f 25//33 9//33 31//33
f 26//34 30//34 9//34
f 26//35 23//35 30//35
f 23//36 8//36 30//36
f 24//37 29//37 8//37
f 24//38 21//38 29//38
f 21//39 7//39 29//39
f 22//40 28//40 7//40
f 22//41 19//41 28//41
f 19//42 6//42 28//42
f 20//43 27//43 6//43
f 20//44 17//44 27//44
f 17//45 10//45 27//45
f 25//46 26//46 9//46
f 25//47 16//47 26//47
f 16//48 4//48 26//48
f 23//49 24//49 8//49
f 23//50 15//50 24//50
f 15//51 3//51 24//51
f 21//52 22//52 7//52
f 21//53 14//53 22//53
f 14//54 2//54 22//54
f 19//55 20//55 6//55
f 19//56 12//56 20//56
f 12//57 1//57 20//57
f 17//58 18//58 10//58
f 17//59 13//59 18//59
f 13//60 5//60 18//60
o 平面
v -0.120062 -4.935973 0.813487
v 0.120062 -4.873885 1.127312
v 0.200000 -0.000000 -0.000000
v -0.200000 -0.000000 -0.000000
v 0.090659 -1.023008 -0.106226
v -0.196330 -1.993573 0.212980
v 0.017321 -2.907803 0.683268
v 0.186803 -3.945459 0.677258
v -0.186803 -3.910445 0.814951
v -0.017321 -3.009204 0.297889
v 0.196330 -1.976986 0.287434
v -0.090659 -0.975611 0.247154
vn -0.5221 -0.0600 -0.8508
vn -0.9607 -0.0621 -0.2706
vn 0.5319 -0.2158 -0.8188
vn 0.6689 0.1782 0.7216
vn -0.8984 0.0788 0.4320
s 0
f 41//61 48//61 40//61 39//61
f 37//62 38//62 45//62 44//62
f 44//63 45//63 46//63 43//63
f 43//64 46//64 47//64 42//64
f 42//65 47//65 48//65 41//65
o 平面.001
v 0.698453 -4.939644 1.004881
v 0.938576 -4.878994 1.318987
v 1.018514 -0.000000 0.213996
v 0.618514 -0.000000 0.213996
v 0.909174 -1.022485 0.106039
v 0.622185 -1.994069 0.421062
v 0.835835 -2.910886 0.886143
v 1.005318 -3.948388 0.873863
v 0.631711 -3.914171 1.011775
v 0.801193 -3.009971 0.500161
v 1.014844 -1.977866 0.495601
v 0.727855 -0.976201 0.459565
vn -0.5221 -0.0586 -0.8509
vn -0.9607 -0.0607 -0.2710
vn 0.5319 -0.2109 -0.8201
vn 0.6689 0.1741 0.7226
vn -0.8984 0.0769 0.4323
s 0
f 53//66 60//66 52//66 51//66
f 49//67 50//67 57//67 56//67
f 56//68 57//68 58//68 55//68
f 55//69 58//69 59//69 54//69
f 54//70 59//70 60//70 53//70
o 平面.002
v -1.037918 -4.457283 2.630765
v -0.797795 -4.303004 2.911013
v -0.717856 -0.000000 0.359593
v -1.117856 -0.000000 0.359593
v -0.827197 -1.055617 0.375737
v -1.114186 -1.917668 0.973460
v -0.900536 -2.601121 1.755983
v -0.731053 -3.571065 2.160186
v -1.104660 -3.487414 2.273590
v -0.935177 -2.843963 1.440027
v -0.721527 -1.876479 1.037663
v -1.008516 -0.933006 0.710536
vn -0.5174 -0.1553 -0.8415
vn -0.9603 -0.1521 -0.2337
vn 0.5336 -0.5148 -0.6710
vn 0.6688 0.4335 0.6040
vn -0.8974 0.2012 0.3927
s 0
f 65//71 72//71 64//71 63//71
f 61//72 62//72 69//72 68//72
f 68//73 69//73 70//73 67//73
f 67//74 70//74 71//74 66//74
f 66//75 71//75 72//75 65//75
o 平面.003
v 0.099369 -4.903120 -0.059670
v 0.339492 -4.829659 0.251689
v 0.419431 -0.000000 -1.052142
v 0.019431 -0.000000 -1.052142
v 0.310090 -1.027133 -1.144523
v 0.023101 -1.989018 -0.792103
v 0.236751 -2.881743 -0.280938
v 0.406234 -3.919385 -0.237143
v 0.032627 -3.878089 -0.101356
v 0.202110 -3.001392 -0.661048
v 0.415760 -1.969391 -0.718392
v 0.128771 -0.970890 -0.792443
vn -0.5218 -0.0712 -0.8501
vn -0.9606 -0.0734 -0.2679
vn 0.5321 -0.2546 -0.8075
vn 0.6689 0.2106 0.7129
vn -0.8983 0.0934 0.4293
s 0
f 77//76 84//76 76//76 75//76
f 73//77 74//77 81//77 80//77
f 80//78 81//78 82//78 79//78
f 79//79 82//79 83//79 78//79
f 78//80 83//80 84//80 77//80
o 平面.004
v -0.024975 -4.832772 2.356767
v 0.215148 -4.740295 2.663016
v 0.295087 -0.000000 1.064520
v -0.104913 -0.000000 1.064520
v 0.185746 -1.033976 0.995913
v -0.101243 -1.978774 1.404416
v 0.112407 -2.831383 1.982580
v 0.281890 -3.863999 2.110316
v -0.091717 -3.812340 2.242245
v 0.077766 -2.981156 1.613300
v 0.291416 -1.954062 1.476582
v 0.004427 -0.962741 1.345268
vn -0.5211 -0.0902 -0.8487
vn -0.9606 -0.0923 -0.2623
vn 0.5325 -0.3184 -0.7843
vn 0.6689 0.2642 0.6948
vn -0.8982 0.1181 0.4235
s 0
f 89//81 96//81 88//81 87//81
f 85//82 86//82 93//82 92//82
f 92//83 93//83 94//83 91//83
f 91//84 94//84 95//84 90//84
f 90//85 95//85 96//85 89//85
o 平面.005
v -0.744595 -4.947840 0.237125
v -0.504472 -4.890561 0.551862
v -0.424534 -0.000000 -0.500752
v -0.824534 -0.000000 -0.500752
v -0.533874 -1.021257 -0.612757
v -0.820863 -1.995165 -0.307534
v -0.607213 -2.917938 0.145296
v -0.437730 -3.954939 0.118329
v -0.811337 -3.922597 0.256739
v -0.641854 -3.011581 -0.242042
v -0.428204 -1.979863 -0.232805
v -0.715193 -0.977579 -0.258899
vn -0.5222 -0.0553 -0.8510
vn -0.9607 -0.0573 -0.2716
vn 0.5318 -0.1993 -0.8231
vn 0.6689 0.1645 0.7249
vn -0.8984 0.0726 0.4330
s 0
f 101//86 108//86 100//86 99//86
f 97//87 98//87 105//87 104//87
f 104//88 105//88 106//88 103//88
f 103//89 106//89 107//89 102//89
f 102//90 107//90 108//90 101//90
o 平面.006
v 0.847684 -4.854289 0.747544
v 1.087807 -4.767094 1.055339
v 1.167746 -0.000000 -0.461367
v 0.767746 -0.000000 -0.461367
v 1.058405 -1.032082 -0.536664
v 0.771416 -1.981964 -0.143818
v 0.985067 -2.846247 0.415911
v 1.154549 -3.880897 0.520255
v 0.780942 -3.832097 0.653340
v 0.950425 -2.987706 0.043367
v 1.164075 -1.958664 -0.071184
v 0.877086 -0.965040 -0.186480
vn -0.5213 -0.0849 -0.8491
vn -0.9606 -0.0870 -0.2640
vn 0.5324 -0.3008 -0.7913
vn 0.6689 0.2494 0.7003
vn -0.8982 0.1112 0.4252
s 0
f 113//91 120//91 112//91 111//91
f 109//92 110//92 117//92 116//92
f 116//93 117//93 118//93 115//93
f 115//94 118//94 119//94 114//94
f 114//95 119//95 120//95 113//95
o 平面.007
v 0.139879 -4.582020 1.536161
v 0.380003 -4.444329 1.824921
v 0.459941 -0.000000 -0.471495
v 0.059941 -0.000000 -0.471495
v 0.350601 -1.049927 -0.479488
v 0.063611 -1.938954 0.066171
v 0.277262 -2.674038 0.796074
v 0.446744 -3.668177 1.125723
v 0.073138 -3.592812 1.245030
v 0.242620 -2.892791 0.462987
v 0.456271 -1.902172 0.132996
v 0.169282 -0.941616 -0.139794
vn -0.5187 -0.1372 -0.8439
vn -0.9604 -0.1363 -0.2430
vn 0.5333 -0.4641 -0.7072
vn 0.6689 0.3891 0.6335
vn -0.8976 0.1783 0.4030
s 0
f 125//96 132//96 124//96 123//96
f 121//97 122//97 129//97 128//97
f 128//98 129//98 130//98 127//98
f 127//99 130//99 131//99 126//99
f 126//100 131//100 132//100 125//100
o 平面.008
v -0.395757 -4.748163 2.028461
v -0.155634 -4.637788 2.328725
v -0.075695 -0.000000 0.453490
v -0.475695 -0.000000 0.453490
v -0.185036 -1.040352 0.408101
v -0.472025 -1.965848 0.870172
v -0.258374 -2.775779 1.509741
v -0.088892 -3.797761 1.717088
v -0.462498 -3.736544 1.844611
v -0.293016 -2.953361 1.153000
v -0.079365 -1.936352 0.940518
v -0.366355 -0.954719 0.754209
vn -0.5203 -0.1084 -0.8471
vn -0.9605 -0.1098 -0.2557
vn 0.5328 -0.3772 -0.7575
vn 0.6689 0.3142 0.6737
vn -0.8980 0.1416 0.4166
s 0
f 137//101 144//101 136//101 135//101
f 133//102 134//102 141//102 140//102
f 140//103 141//103 142//103 139//103
f 139//104 142//104 143//104 138//104
f 138//105 143//105 144//105 137//105
o 平面.009
v -0.687768 -4.964815 -0.517560
v -0.447645 -4.915460 -0.201482
v -0.367707 -0.000000 -1.130912
v -0.767707 -0.000000 -1.130912
v -0.477047 -1.018360 -1.252354
v -0.764036 -1.997368 -0.970108
v -0.550386 -2.933515 -0.546270
v -0.380903 -3.968593 -0.607630
v -0.754510 -3.940675 -0.468155
v -0.585028 -3.014323 -0.936488
v -0.371377 -1.984184 -0.894976
v -0.658366 -0.980785 -0.897795
vn -0.5224 -0.0476 -0.8514
vn -0.9607 -0.0494 -0.2731
vn 0.5316 -0.1721 -0.8293
vn 0.6689 0.1419 0.7296
vn -0.8985 0.0625 0.4345
s 0
f 149//106 156//106 148//106 147//106
f 145//107 146//107 153//107 152//107
f 152//108 153//108 154//108 151//108
f 151//109 154//109 155//109 150//109
f 150//110 155//110 156//110 149//110
o 平面.010
v 0.719852 -4.976899 1.335814
v 0.959975 -4.934379 1.652884
v 1.039913 -0.000000 0.829786
v 0.639913 -0.000000 0.829786
v 0.930573 -1.015853 0.700287
v 0.643584 -1.998857 0.962771
v 0.857234 -2.945842 1.361385
v 1.026717 -3.978422 1.270512
v 0.653110 -3.954337 1.410791
v 0.822593 -3.015535 0.969029
v 1.036243 -1.987500 1.038200
v 0.749254 -0.983519 1.055362
vn -0.5225 -0.0409 -0.8517
vn -0.9607 -0.0426 -0.2742
vn 0.5315 -0.1484 -0.8339
vn 0.6690 0.1223 0.7332
vn -0.8985 0.0538 0.4356
s 0
f 161//111 168//111 160//111 159//111
f 157//112 158//112 165//112 164//112
f 164//113 165//113 166//113 163//113
f 163//114 166//114 167//114 162//114
f 162//115 167//115 168//115 161//115
o 平面.011
v -1.308364 -4.925559 0.651525
v -1.068241 -4.859603 0.964559
v -0.988302 -0.000000 -0.222807
v -1.388302 -0.000000 -0.222807
v -1.097643 -1.024413 -0.324353
v -1.384632 -1.992151 0.006124
v -1.170981 -2.899273 0.490380
v -1.001499 -3.937172 0.501271
v -1.375105 -3.900015 0.638349
v -1.205623 -3.006897 0.106692
v -0.991972 -1.974530 0.080340
v -1.278962 -0.974018 0.028611
vn -0.5220 -0.0638 -0.8506
vn -0.9607 -0.0660 -0.2698
vn 0.5320 -0.2290 -0.8152
vn 0.6689 0.1892 0.7188
vn -0.8984 0.0837 0.4311
s 0
f 173//116 180//116 172//116 171//116
f 169//117 170//117 177//117 176//117
f 176//118 177//118 178//118 175//118
f 175//119 178//119 179//119 174//119
f 174//120 179//120 180//120 173//120
