# Blender 4.4.3
# www.blender.org
o ICO球
v -1.447215 -0.304170 -1.051451
v 0.552776 -0.304171 -1.701298
v 1.788852 -0.304164 -0.000000
v 0.552776 -0.304171 1.701298
v -1.447215 -0.304170 1.051451
v -0.552776 0.666966 -1.701298
v 1.447215 0.666965 -1.051451
v 1.447215 0.666965 1.051451
v -0.552776 0.666966 1.701298
v -1.788852 0.666960 -0.000000
v -0.000000 1.491360 -0.000000
v -0.525738 -0.421269 -1.618023
v -1.701296 -0.421266 -0.000000
v 1.376379 -0.421267 -0.999994
v 1.376379 -0.421267 0.999994
v -0.525738 -0.421269 1.618023
v -1.902116 -0.000000 -0.618025
v -1.902116 -0.000000 0.618025
v -0.000000 -0.000000 -2.000000
v -1.175571 -0.000000 -1.618033
v 1.902116 -0.000000 -0.618025
v 1.175571 -0.000000 -1.618033
v 1.175571 -0.000000 1.618033
v 1.902116 -0.000000 0.618025
v -1.175571 -0.000000 1.618033
v -0.000000 -0.000000 2.000000
v -1.376379 0.784062 -0.999994
v 0.525738 0.784064 -1.618023
v 1.701296 0.784062 -0.000000
v 0.525738 0.784064 1.618023
v -1.376379 0.784062 0.999994
v -0.324911 1.268632 -0.999991
v -1.051460 1.268628 -0.000000
v 0.850645 1.268632 -0.618023
v 0.850645 1.268632 0.618023
v -0.324911 1.268632 0.999991
vn -0.6882 -0.6838 -0.2425
vn 0.0179 -0.6838 -0.7295
vn 0.6993 -0.6838 -0.2084
vn 0.4143 -0.6838 0.6007
vn -0.4433 -0.6838 0.5796
vn -0.7582 -0.3490 -0.5508
vn 0.2896 -0.3490 -0.8913
vn 0.9371 -0.3490 -0.0000
vn 0.2896 -0.3490 0.8913
vn -0.7582 -0.3490 0.5508
vn -0.3520 0.7638 -0.5409
vn 0.4057 0.7638 -0.5019
vn 0.6027 0.7638 0.2307
vn -0.0332 0.7638 0.6445
vn -0.6233 0.7638 0.1676
vn -0.2049 0.9674 0.1489
vn -0.4004 0.8689 0.2909
vn -0.3520 0.7638 0.5409
vn 0.0783 0.9674 0.2409
vn 0.1530 0.8689 0.4707
vn 0.4057 0.7638 0.5019
vn 0.2533 0.9674 -0.0000
vn 0.4950 0.8689 -0.0000
vn 0.6027 0.7638 -0.2307
vn 0.0783 0.9674 -0.2409
vn 0.1530 0.8689 -0.4707
vn -0.0332 0.7638 -0.6445
vn -0.2049 0.9674 -0.1489
vn -0.4004 0.8689 -0.2909
vn -0.6233 0.7638 -0.1676
vn -0.8533 0.4249 0.3022
vn -0.7837 0.2481 0.5694
vn -0.5511 0.4249 0.7181
vn 0.0237 0.4249 0.9049
vn 0.2994 0.2481 0.9213
vn 0.5127 0.4249 0.7460
vn 0.8680 0.4249 0.2571
vn 0.9687 0.2481 -0.0000
vn 0.8680 0.4249 -0.2571
vn 0.5127 0.4249 -0.7460
vn 0.2994 0.2481 -0.9213
vn 0.0237 0.4249 -0.9049
vn -0.5511 0.4249 -0.7181
vn -0.7837 0.2481 -0.5694
vn -0.8533 0.4249 -0.3022
vn -0.3047 0.1674 0.9376
vn -0.2789 -0.4303 0.8585
vn 0.0179 -0.6838 0.7295
vn 0.7976 0.1674 0.5795
vn 0.7303 -0.4303 0.5306
vn 0.6993 -0.6838 0.2084
vn 0.7976 0.1674 -0.5795
vn 0.7303 -0.4303 -0.5306
vn 0.4143 -0.6838 -0.6007
vn -0.3047 0.1674 -0.9376
vn -0.2789 -0.4303 -0.8585
vn -0.4433 -0.6838 -0.5796
vn -0.9859 0.1674 -0.0000
vn -0.9027 -0.4303 -0.0000
vn -0.6882 -0.6838 0.2425
s 0
f 1//1 13//1 17//1
f 2//2 12//2 19//2
f 3//3 14//3 21//3
f 4//4 15//4 23//4
f 5//5 16//5 25//5
f 1//6 17//6 20//6
f 2//7 19//7 22//7
f 3//8 21//8 24//8
f 4//9 23//9 26//9
f 5//10 25//10 18//10
f 6//11 27//11 32//11
f 7//12 28//12 34//12
f 8//13 29//13 35//13
f 9//14 30//14 36//14
f 10//15 31//15 33//15
f 33//16 36//16 11//16
f 33//17 31//17 36//17
f 31//18 9//18 36//18
f 36//19 35//19 11//19
f 36//20 30//20 35//20
f 30//21 8//21 35//21
f 35//22 34//22 11//22
f 35//23 29//23 34//23
f 29//24 7//24 34//24
f 34//25 32//25 11//25
f 34//26 28//26 32//26
f 28//27 6//27 32//27
f 32//28 33//28 11//28
f 32//29 27//29 33//29
f 27//30 10//30 33//30
f 18//31 31//31 10//31
f 18//32 25//32 31//32
f 25//33 9//33 31//33
f 26//34 30//34 9//34
f 26//35 23//35 30//35
f 23//36 8//36 30//36
f 24//37 29//37 8//37
f 24//38 21//38 29//38
f 21//39 7//39 29//39
f 22//40 28//40 7//40
f 22//41 19//41 28//41
f 19//42 6//42 28//42
f 20//43 27//43 6//43
f 20//44 17//44 27//44
f 17//45 10//45 27//45
f 25//46 26//46 9//46
f 25//47 16//47 26//47
f 16//48 4//48 26//48
f 23//49 24//49 8//49
f 23//50 15//50 24//50
f 15//51 3//51 24//51
f 21//52 22//52 7//52
f 21//53 14//53 22//53
f 14//54 2//54 22//54
f 19//55 20//55 6//55
f 19//56 12//56 20//56
f 12//57 1//57 20//57
f 17//58 18//58 10//58
f 17//59 13//59 18//59
f 13//60 5//60 18//60
o 平面
v -0.120062 -4.927203 0.865017
v 0.120062 -4.861840 1.178176
v 0.200000 -0.000000 -0.000000
v -0.200000 -0.000000 -0.000000
v 0.090659 -1.024198 -0.102264
v -0.196330 -1.992377 0.226487
v 0.017321 -2.900601 0.708609
v 0.186803 -3.938478 0.716910
v -0.186803 -3.901649 0.854084
v -0.017321 -3.007274 0.324655
v 0.196330 -1.974914 0.300741
v -0.090659 -0.974262 0.250766
vn -0.5220 -0.0632 -0.8506
vn -0.9607 -0.0654 -0.2699
vn 0.5320 -0.2270 -0.8158
vn 0.6689 0.1876 0.7193
vn -0.8984 0.0830 0.4313
s 0
f 41//61 48//61 40//61 39//61
f 37//62 38//62 45//62 44//62
f 44//63 45//63 46//63 43//63
f 43//64 46//64 47//64 42//64
f 42//65 47//65 48//65 41//65
o 平面.001
v 0.698453 -4.931701 1.052992
v 0.938576 -4.867991 1.366492
v 1.018514 -0.000000 0.213996
v 0.618514 -0.000000 0.213996
v 0.909174 -1.023597 0.109729
v 0.622185 -1.992993 0.433658
v 0.835835 -2.904268 0.909811
v 1.005318 -3.942056 0.910882
v 0.631711 -3.906142 1.048322
v 0.801193 -3.008281 0.525128
v 1.014844 -1.975972 0.508015
v 0.727855 -0.974944 0.462937
vn -0.5220 -0.0616 -0.8507
vn -0.9607 -0.0637 -0.2703
vn 0.5319 -0.2214 -0.8173
vn 0.6689 0.1829 0.7205
vn -0.8984 0.0808 0.4317
s 0
f 53//66 60//66 52//66 51//66
f 49//67 50//67 57//67 56//67
f 56//68 57//68 58//68 55//68
f 55//69 58//69 59//69 54//69
f 54//70 59//70 60//70 53//70
o 平面.002
v -1.037918 -4.470778 2.604082
v -0.797795 -4.318178 2.885248
v -0.717856 -0.000000 0.359593
v -1.117856 -0.000000 0.359593
v -0.827197 -1.055047 0.373239
v -1.114186 -1.920013 0.965646
v -0.900536 -2.608914 1.742930
v -0.731053 -3.581568 2.139587
v -1.104660 -3.498744 2.253621
v -0.935177 -2.849354 1.425144
v -0.721527 -1.879269 1.030133
v -1.008516 -0.933903 0.708572
vn -0.5176 -0.1535 -0.8418
vn -0.9603 -0.1506 -0.2347
vn 0.5336 -0.5097 -0.6749
vn 0.6688 0.4290 0.6071
vn -0.8974 0.1988 0.3939
s 0
f 65//71 72//71 64//71 63//71
f 61//72 62//72 69//72 68//72
f 68//73 69//73 70//73 67//73
f 67//74 70//74 71//74 66//74
f 66//75 71//75 72//75 65//75
o 平面.003
v 0.099369 -4.917812 -0.135239
v 0.339492 -4.849151 0.177214
v 0.419431 -0.000000 -1.052142
v 0.019431 -0.000000 -1.052142
v 0.310090 -1.025395 -1.150397
v 0.023101 -1.991080 -0.812022
v 0.236751 -2.893106 -0.318037
v 0.406234 -3.931022 -0.295303
v 0.032627 -3.892370 -0.158675
v 0.202110 -3.005071 -0.700481
v 0.415760 -1.972736 -0.737981
v 0.128771 -0.972896 -0.797740
vn -0.5219 -0.0665 -0.8504
vn -0.9607 -0.0687 -0.2691
vn 0.5320 -0.2383 -0.8125
vn 0.6689 0.1969 0.7168
vn -0.8984 0.0872 0.4305
s 0
f 77//76 84//76 76//76 75//76
f 73//77 74//77 81//77 80//77
f 80//78 81//78 82//78 79//78
f 79//79 82//79 83//79 78//79
f 78//80 83//80 84//80 77//80
o 平面.004
v -0.024975 -4.850924 2.286864
v 0.215148 -4.762877 2.594416
v 0.295087 -0.000000 1.064520
v -0.104913 -0.000000 1.064520
v 0.185746 -1.032388 0.990297
v -0.101243 -1.981469 1.385663
v 0.112407 -2.843898 1.948373
v 0.281890 -3.878252 2.056485
v -0.091717 -3.828990 2.189389
v 0.077766 -2.986700 1.576342
v 0.291416 -1.957941 1.458224
v 0.004427 -0.964671 1.340351
vn -0.5213 -0.0857 -0.8491
vn -0.9606 -0.0879 -0.2637
vn 0.5324 -0.3036 -0.7902
vn 0.6689 0.2518 0.6994
vn -0.8982 0.1123 0.4249
s 0
f 89//81 96//81 88//81 87//81
f 85//82 86//82 93//82 92//82
f 92//83 93//83 94//83 91//83
f 91//84 94//84 95//84 90//84
f 90//85 95//85 96//85 89//85
o 平面.005
v -0.744595 -4.945761 0.250938
v -0.504472 -4.887603 0.565514
v -0.424534 -0.000000 -0.500752
v -0.824534 -0.000000 -0.500752
v -0.533874 -1.021577 -0.611705
v -0.820863 -1.994889 -0.303929
v -0.607213 -2.916124 0.152099
v -0.437730 -3.953275 0.128957
v -0.811337 -3.920444 0.267240
v -0.641854 -3.011187 -0.234893
v -0.428204 -1.979352 -0.229248
v -0.715193 -0.977221 -0.257931
vn -0.5222 -0.0561 -0.8510
vn -0.9607 -0.0582 -0.2715
vn 0.5318 -0.2024 -0.8223
vn 0.6689 0.1670 0.7243
vn -0.8984 0.0737 0.4329
s 0
f 101//86 108//86 100//86 99//86
f 97//87 98//87 105//87 104//87
f 104//88 105//88 106//88 103//88
f 103//89 106//89 107//89 102//89
f 102//90 107//90 108//90 101//90
o 平面.006
v 0.847684 -4.860302 0.723137
v 1.087807 -4.774655 1.031366
v 1.167746 -0.000000 -0.461367
v 0.767746 -0.000000 -0.461367
v 1.058405 -1.031526 -0.538611
v 0.771416 -1.982848 -0.150339
v 0.985067 -2.850474 0.403962
v 1.154549 -3.885626 0.501462
v 0.780942 -3.837667 0.634874
v 0.950425 -2.989489 0.030499
v 1.164075 -1.959962 -0.077574
v 0.877086 -0.965708 -0.188194
vn -0.5214 -0.0833 -0.8493
vn -0.9606 -0.0855 -0.2645
vn 0.5324 -0.2956 -0.7932
vn 0.6689 0.2450 0.7018
vn -0.8983 0.1092 0.4257
s 0
f 113//91 120//91 112//91 111//91
f 109//92 110//92 117//92 116//92
f 116//93 117//93 118//93 115//93
f 115//94 118//94 119//94 114//94
f 114//95 119//95 120//95 113//95
o 平面.007
v 0.139880 -4.577086 1.547385
v 0.380003 -4.438688 1.835806
v 0.459941 -0.000000 -0.471495
v 0.059941 -0.000000 -0.471495
v 0.350601 -1.050172 -0.478483
v 0.063611 -1.938129 0.069374
v 0.277262 -2.671109 0.801557
v 0.446744 -3.664333 1.134382
v 0.073138 -3.588609 1.253452
v 0.242620 -2.890905 0.469157
v 0.456271 -1.901158 0.136096
v 0.169282 -0.941260 -0.138981
vn -0.5186 -0.1379 -0.8438
vn -0.9604 -0.1370 -0.2426
vn 0.5334 -0.4663 -0.7058
vn 0.6689 0.3910 0.6323
vn -0.8976 0.1793 0.4026
s 0
f 125//96 132//96 124//96 123//96
f 121//97 122//97 129//97 128//97
f 128//98 129//98 130//98 127//98
f 127//99 130//99 131//99 126//99
f 126//100 131//100 132//100 125//100
o 平面.008
v -0.395757 -4.755901 2.004937
v -0.155634 -4.647015 2.305743
v -0.075695 -0.000000 0.453490
v -0.475695 -0.000000 0.453490
v -0.185036 -1.039824 0.406135
v -0.472025 -1.967053 0.863720
v -0.258374 -2.780718 1.498249
v -0.088892 -3.803808 1.698960
v -0.462498 -3.743377 1.826878
v -0.293016 -2.956012 1.140377
v -0.079365 -1.937955 0.934231
v -0.366355 -0.955401 0.752540
vn -0.5204 -0.1069 -0.8472
vn -0.9605 -0.1084 -0.2563
vn 0.5328 -0.3724 -0.7599
vn 0.6689 0.3101 0.6756
vn -0.8980 0.1397 0.4172
s 0
f 137//101 144//101 136//101 135//101
f 133//102 134//102 141//102 140//102
f 140//103 141//103 142//103 139//103
f 139//104 142//104 143//104 138//104
f 138//105 143//105 144//105 137//105
o 平面.009
v -0.687768 -4.955413 -0.445734
v -0.447645 -4.901486 -0.130405
v -0.367707 -0.000000 -1.130912
v -0.767707 -0.000000 -1.130912
v -0.477047 -1.020032 -1.246922
v -0.764036 -1.996159 -0.951430
v -0.550386 -2.924697 -0.510833
v -0.380903 -3.961014 -0.552375
v -0.754510 -3.930541 -0.413497
v -0.585028 -3.012917 -0.899443
v -0.371377 -1.981754 -0.876523
v -0.658366 -0.978940 -0.892754
vn -0.5223 -0.0520 -0.8512
vn -0.9607 -0.0540 -0.2723
vn 0.5317 -0.1878 -0.8258
vn 0.6689 0.1549 0.7270
vn -0.8985 0.0683 0.4337
s 0
f 149//106 156//106 148//106 147//106
f 145//107 146//107 153//107 152//107
f 152//108 153//108 154//108 151//108
f 151//109 154//109 155//109 150//109
f 150//110 155//110 156//110 149//110
o 平面.010
v 0.719852 -4.972607 1.376375
v 0.959975 -4.927504 1.693087
v 1.039913 -0.000000 0.829786
v 0.639913 -0.000000 0.829786
v 0.930573 -1.016802 0.703324
v 0.643584 -1.998339 0.973271
v 0.857234 -2.941302 1.381444
v 1.026717 -3.974917 1.301710
v 0.653110 -3.949382 1.441698
v 0.822593 -3.015202 0.989859
v 1.036243 -1.986291 1.048594
v 0.749254 -0.982489 1.058212
vn -0.5224 -0.0434 -0.8516
vn -0.9607 -0.0452 -0.2738
vn 0.5316 -0.1574 -0.8323
vn 0.6690 0.1297 0.7319
vn -0.8985 0.0571 0.4352
s 0
f 161//111 168//111 160//111 159//111
f 157//112 158//112 165//112 164//112
f 164//113 165//113 166//113 163//113
f 163//114 166//114 167//114 162//114
f 162//115 167//115 168//115 161//115
o 平面.011
v -1.308364 -4.939428 0.569429
v -1.068241 -4.878691 0.883518
v -0.988302 -0.000000 -0.222807
v -1.388302 -0.000000 -0.222807
v -1.097643 -1.022516 -0.330660
v -1.384632 -1.994040 -0.015387
v -1.170981 -2.910703 0.450006
v -1.001499 -3.948215 0.438099
v -1.375105 -3.913951 0.575999
v -1.205623 -3.009927 0.064059
v -0.991972 -1.977814 0.059147
v -1.278962 -0.976166 0.022858
vn -0.5221 -0.0587 -0.8509
vn -0.9607 -0.0608 -0.2709
vn 0.5319 -0.2112 -0.8201
vn 0.6689 0.1744 0.7226
vn -0.8984 0.0770 0.4323
s 0
f 173//116 180//116 172//116 171//116
f 169//117 170//117 177//117 176//117
f 176//118 177//118 178//118 175//118
f 175//119 178//119 179//119 174//119
f 174//120 179//120 180//120 173//120
