# Blender 4.4.3
# www.blender.org
o ICO球
v -1.447215 -0.304170 -1.051451
v 0.552776 -0.304171 -1.701298
v 1.788852 -0.304164 -0.000000
v 0.552776 -0.304171 1.701298
v -1.447215 -0.304170 1.051451
v -0.552776 0.666966 -1.701298
v 1.447215 0.666965 -1.051451
v 1.447215 0.666965 1.051451
v -0.552776 0.666966 1.701298
v -1.788852 0.666960 -0.000000
v -0.000000 1.491360 -0.000000
v -0.525738 -0.421269 -1.618023
v -1.701296 -0.421266 -0.000000
v 1.376379 -0.421267 -0.999994
v 1.376379 -0.421267 0.999994
v -0.525738 -0.421269 1.618023
v -1.902116 -0.000000 -0.618025
v -1.902116 -0.000000 0.618025
v -0.000000 -0.000000 -2.000000
v -1.175571 -0.000000 -1.618033
v 1.902116 -0.000000 -0.618025
v 1.175571 -0.000000 -1.618033
v 1.175571 -0.000000 1.618033
v 1.902116 -0.000000 0.618025
v -1.175571 -0.000000 1.618033
v -0.000000 -0.000000 2.000000
v -1.376379 0.784062 -0.999994
v 0.525738 0.784064 -1.618023
v 1.701296 0.784062 -0.000000
v 0.525738 0.784064 1.618023
v -1.376379 0.784062 0.999994
v -0.324911 1.268632 -0.999991
v -1.051460 1.268628 -0.000000
v 0.850645 1.268632 -0.618023
v 0.850645 1.268632 0.618023
v -0.324911 1.268632 0.999991
vn -0.6882 -0.6838 -0.2425
vn 0.0179 -0.6838 -0.7295
vn 0.6993 -0.6838 -0.2084
vn 0.4143 -0.6838 0.6007
vn -0.4433 -0.6838 0.5796
vn -0.7582 -0.3490 -0.5508
vn 0.2896 -0.3490 -0.8913
vn 0.9371 -0.3490 -0.0000
vn 0.2896 -0.3490 0.8913
vn -0.7582 -0.3490 0.5508
vn -0.3520 0.7638 -0.5409
vn 0.4057 0.7638 -0.5019
vn 0.6027 0.7638 0.2307
vn -0.0332 0.7638 0.6445
vn -0.6233 0.7638 0.1676
vn -0.2049 0.9674 0.1489
vn -0.4004 0.8689 0.2909
vn -0.3520 0.7638 0.5409
vn 0.0783 0.9674 0.2409
vn 0.1530 0.8689 0.4707
vn 0.4057 0.7638 0.5019
vn 0.2533 0.9674 -0.0000
vn 0.4950 0.8689 -0.0000
vn 0.6027 0.7638 -0.2307
vn 0.0783 0.9674 -0.2409
vn 0.1530 0.8689 -0.4707
vn -0.0332 0.7638 -0.6445
vn -0.2049 0.9674 -0.1489
vn -0.4004 0.8689 -0.2909
vn -0.6233 0.7638 -0.1676
vn -0.8533 0.4249 0.3022
vn -0.7837 0.2481 0.5694
vn -0.5511 0.4249 0.7181
vn 0.0237 0.4249 0.9049
vn 0.2994 0.2481 0.9213
vn 0.5127 0.4249 0.7460
vn 0.8680 0.4249 0.2571
vn 0.9687 0.2481 -0.0000
vn 0.8680 0.4249 -0.2571
vn 0.5127 0.4249 -0.7460
vn 0.2994 0.2481 -0.9213
vn 0.0237 0.4249 -0.9049
vn -0.5511 0.4249 -0.7181
vn -0.7837 0.2481 -0.5694
vn -0.8533 0.4249 -0.3022
vn -0.3047 0.1674 0.9376
vn -0.2789 -0.4303 0.8585
vn 0.0179 -0.6838 0.7295
vn 0.7976 0.1674 0.5795
vn 0.7303 -0.4303 0.5306
vn 0.6993 -0.6838 0.2084
vn 0.7976 0.1674 -0.5795
vn 0.7303 -0.4303 -0.5306
vn 0.4143 -0.6838 -0.6007
vn -0.3047 0.1674 -0.9376
vn -0.2789 -0.4303 -0.8585
vn -0.4433 -0.6838 -0.5796
vn -0.9859 0.1674 -0.0000
vn -0.9027 -0.4303 -0.0000
vn -0.6882 -0.6838 0.2425
s 0
f 1//1 13//1 17//1
f 2//2 12//2 19//2
f 3//3 14//3 21//3
f 4//4 15//4 23//4
f 5//5 16//5 25//5
f 1//6 17//6 20//6
f 2//7 19//7 22//7
f 3//8 21//8 24//8
f 4//9 23//9 26//9
f 5//10 25//10 18//10
f 6//11 27//11 32//11
f 7//12 28//12 34//12
f 8//13 29//13 35//13
f 9//14 30//14 36//14
f 10//15 31//15 33//15
f 33//16 36//16 11//16
f 33//17 31//17 36//17
f 31//18 9//18 36//18
f 36//19 35//19 11//19
f 36//20 30//20 35//20
f 30//21 8//21 35//21
f 35//22 34//22 11//22
f 35//23 29//23 34//23
f 29//24 7//24 34//24
f 34//25 32//25 11//25
f 34//26 28//26 32//26
f 28//27 6//27 32//27
f 32//28 33//28 11//28
f 32//29 27//29 33//29
f 27//30 10//30 33//30
f 18//31 31//31 10//31
f 18//32 25//32 31//32
f 25//33 9//33 31//33
f 26//34 30//34 9//34
f 26//35 23//35 30//35
f 23//36 8//36 30//36
f 24//37 29//37 8//37
f 24//38 21//38 29//38
f 21//39 7//39 29//39
f 22//40 28//40 7//40
f 22//41 19//41 28//41
f 19//42 6//42 28//42
f 20//43 27//43 6//43
f 20//44 17//44 27//44
f 17//45 10//45 27//45
f 25//46 26//46 9//46
f 25//47 16//47 26//47
f 16//48 4//48 26//48
f 23//49 24//49 8//49
f 23//50 15//50 24//50
f 15//51 3//51 24//51
f 21//52 22//52 7//52
f 21//53 14//53 22//53
f 14//54 2//54 22//54
f 19//55 20//55 6//55
f 19//56 12//56 20//56
f 12//57 1//57 20//57
f 17//58 18//58 10//58
f 17//59 13//59 18//59
f 13//60 5//60 18//60
o 平面
v -0.120062 -4.947362 0.741073
v 0.120062 -4.889880 1.055774
v 0.200000 -0.000000 -0.000000
v -0.200000 -0.000000 -0.000000
v 0.090659 -1.021330 -0.111762
v -0.196330 -1.995101 0.194052
v 0.017321 -2.917519 0.647623
v 0.186803 -3.954556 0.621541
v -0.186803 -3.922101 0.759921
v -0.017321 -3.011491 0.260364
v 0.196330 -1.979745 0.268770
v -0.090659 -0.977495 0.242077
vn -0.5222 -0.0555 -0.8510
vn -0.9607 -0.0575 -0.2716
vn 0.5318 -0.2000 -0.8229
vn 0.6689 0.1651 0.7247
vn -0.8984 0.0729 0.4330
s 0
f 41//61 48//61 40//61 39//61
f 37//62 38//62 45//62 44//62
f 44//63 45//63 46//63 43//63
f 43//64 46//64 47//64 42//64
f 42//65 47//65 48//65 41//65
o 平面.001
v 0.698453 -4.939944 1.003006
v 0.938576 -4.879413 1.317134
v 1.018514 -0.000000 0.213996
v 0.618514 -0.000000 0.213996
v 0.909174 -1.022441 0.105895
v 0.622185 -1.994110 0.420571
v 0.835835 -2.911140 0.885220
v 1.005318 -3.948627 0.872419
v 0.631711 -3.914477 1.010350
v 0.801193 -3.010033 0.499189
v 1.014844 -1.977939 0.495117
v 0.727855 -0.976250 0.459434
vn -0.5221 -0.0585 -0.8509
vn -0.9607 -0.0606 -0.2710
vn 0.5319 -0.2105 -0.8202
vn 0.6689 0.1738 0.7227
vn -0.8984 0.0768 0.4324
s 0
f 53//66 60//66 52//66 51//66
f 49//67 50//67 57//67 56//67
f 56//68 57//68 58//68 55//68
f 55//69 58//69 59//69 54//69
f 54//70 59//70 60//70 53//70
o 平面.002
v -1.037918 -4.422227 2.698289
v -0.797795 -4.263704 2.976158
v -0.717856 -0.000000 0.359593
v -1.117856 -0.000000 0.359593
v -0.827197 -1.057052 0.382118
v -1.114186 -1.911531 0.993340
v -0.900536 -2.580969 1.789026
v -0.731053 -3.543785 2.212324
v -1.104660 -3.458057 2.324102
v -0.935177 -2.829847 1.477803
v -0.721527 -1.869219 1.056809
v -1.008516 -0.930706 0.715524
vn -0.5171 -0.1601 -0.8408
vn -0.9603 -0.1562 -0.2311
vn 0.5337 -0.5275 -0.6610
vn 0.6688 0.4447 0.5958
vn -0.8973 0.2071 0.3898
s 0
f 65//71 72//71 64//71 63//71
f 61//72 62//72 69//72 68//72
f 68//73 69//73 70//73 67//73
f 67//74 70//74 71//74 66//74
f 66//75 71//75 72//75 65//75
o 平面.003
v 0.099369 -4.875816 0.066785
v 0.339492 -4.794330 0.376140
v 0.419431 -0.000000 -1.052142
v 0.019431 -0.000000 -1.052142
v 0.310090 -1.030030 -1.134591
v 0.023101 -1.985109 -0.758591
v 0.236752 -2.861544 -0.218934
v 0.406234 -3.897837 -0.139802
v 0.032627 -3.852144 -0.005540
v 0.202110 -2.993972 -0.594784
v 0.415760 -1.963335 -0.685485
v 0.128771 -0.967492 -0.783574
vn -0.5215 -0.0792 -0.8496
vn -0.9606 -0.0814 -0.2657
vn 0.5323 -0.2817 -0.7983
vn 0.6689 0.2333 0.7058
vn -0.8983 0.1038 0.4270
s 0
f 77//76 84//76 76//76 75//76
f 73//77 74//77 81//77 80//77
f 80//78 81//78 82//78 79//78
f 79//79 82//79 83//79 78//79
f 78//80 83//80 84//80 77//80
o 平面.004
v -0.024975 -4.782029 2.533462
v 0.215148 -4.678361 2.836107
v 0.295087 -0.000000 1.064520
v -0.104913 -0.000000 1.064520
v 0.185746 -1.037971 1.010324
v -0.101243 -1.971089 1.452217
v 0.112407 -2.797589 2.068969
v 0.281890 -3.824241 2.246420
v -0.091717 -3.766582 2.375684
v 0.077766 -2.964818 1.707259
v 0.291416 -1.943386 1.523289
v 0.004427 -0.957771 1.357730
vn -0.5206 -0.1015 -0.8477
vn -0.9605 -0.1033 -0.2583
vn 0.5327 -0.3553 -0.7681
vn 0.6689 0.2956 0.6821
vn -0.8981 0.1328 0.4193
s 0
f 89//81 96//81 88//81 87//81
f 85//82 86//82 93//82 92//82
f 92//83 93//83 94//83 91//83
f 91//84 94//84 95//84 90//84
f 90//85 95//85 96//85 89//85
o 平面.005
v -0.744595 -4.934703 0.320400
v -0.504472 -4.872128 0.634127
v -0.424534 -0.000000 -0.500752
v -0.824534 -0.000000 -0.500752
v -0.533874 -1.023185 -0.606389
v -0.820863 -1.993401 -0.285764
v -0.607213 -2.906747 0.186287
v -0.437730 -3.944448 0.182403
v -0.811337 -3.909163 0.320021
v -0.641854 -3.008934 -0.198885
v -0.428204 -1.976684 -0.211339
v -0.715193 -0.975411 -0.253061
vn -0.5221 -0.0605 -0.8508
vn -0.9607 -0.0626 -0.2705
vn 0.5319 -0.2175 -0.8184
vn 0.6689 0.1796 0.7213
vn -0.8984 0.0794 0.4319
s 0
f 101//86 108//86 100//86 99//86
f 97//87 98//87 105//87 104//87
f 104//88 105//88 106//88 103//88
f 103//89 106//89 107//89 102//89
f 102//90 107//90 108//90 101//90
o 平面.006
v 0.847684 -4.827722 0.849619
v 1.087807 -4.734058 1.155507
v 1.167746 -0.000000 -0.461367
v 0.767746 -0.000000 -0.461367
v 1.058405 -1.034401 -0.528461
v 0.771416 -1.978019 -0.116430
v 0.985067 -2.827947 0.465859
v 1.154549 -3.860036 0.598860
v 0.780942 -3.807737 0.730520
v 0.950425 -2.979582 0.097340
v 1.164075 -1.952989 -0.044373
v 0.877086 -0.962220 -0.179300
vn -0.5211 -0.0914 -0.8486
vn -0.9606 -0.0934 -0.2619
vn 0.5325 -0.3223 -0.7826
vn 0.6689 0.2676 0.6935
vn -0.8982 0.1196 0.4230
s 0
f 113//91 120//91 112//91 111//91
f 109//92 110//92 117//92 116//92
f 116//93 117//93 118//93 115//93
f 115//94 118//94 119//94 114//94
f 114//95 119//95 120//95 113//95
o 平面.007
v 0.139880 -4.484445 1.745562
v 0.380003 -4.333570 2.027657
v 0.459941 -0.000000 -0.471495
v 0.059941 -0.000000 -0.471495
v 0.350601 -1.054459 -0.460404
v 0.063611 -1.922377 0.126548
v 0.277262 -2.616826 0.898425
v 0.446744 -3.592205 1.287321
v 0.073138 -3.510233 1.401995
v 0.242620 -2.854789 0.578778
v 0.456271 -1.882091 0.191321
v 0.169282 -0.934820 -0.124532
vn -0.5177 -0.1516 -0.8420
vn -0.9603 -0.1489 -0.2357
vn 0.5336 -0.5045 -0.6788
vn 0.6688 0.4244 0.6103
vn -0.8974 0.1964 0.3950
s 0
f 125//96 132//96 124//96 123//96
f 121//97 122//97 129//97 128//97
f 128//98 129//98 130//98 127//98
f 127//99 130//99 131//99 126//99
f 126//100 131//100 132//100 125//100
o 平面.008
v -0.395757 -4.743436 2.042640
v -0.155634 -4.632165 2.342573
v -0.075695 -0.000000 0.453490
v -0.475695 -0.000000 0.453490
v -0.185036 -1.040669 0.409288
v -0.472025 -1.965109 0.874066
v -0.258374 -2.772771 1.516666
v -0.088892 -3.794067 1.728015
v -0.462498 -3.732376 1.855297
v -0.293016 -2.951732 1.160614
v -0.079365 -1.935374 0.944311
v -0.366355 -0.954307 0.755215
vn -0.5203 -0.1093 -0.8470
vn -0.9605 -0.1107 -0.2553
vn 0.5328 -0.3801 -0.7560
vn 0.6689 0.3167 0.6725
vn -0.8980 0.1428 0.4162
s 0
f 137//101 144//101 136//101 135//101
f 133//102 134//102 141//102 140//102
f 140//103 141//103 142//103 139//103
f 139//104 142//104 143//104 138//104
f 138//105 143//105 144//105 137//105
o 平面.009
v -0.687768 -4.926469 -0.261727
v -0.447645 -4.860841 0.051376
v -0.367707 -0.000000 -1.130912
v -0.767707 -0.000000 -1.130912
v -0.477047 -1.024294 -1.232855
v -0.764036 -1.992276 -0.903332
v -0.550386 -2.900008 -0.420255
v -0.380903 -3.937895 -0.410795
v -0.754510 -3.900919 -0.273663
v -0.585028 -3.007106 -0.804090
v -0.371377 -1.974743 -0.829095
v -0.658366 -0.974153 -0.879855
vn -0.5220 -0.0635 -0.8506
vn -0.9607 -0.0657 -0.2698
vn 0.5320 -0.2279 -0.8155
vn 0.6689 0.1883 0.7191
vn -0.8984 0.0833 0.4312
s 0
f 149//106 156//106 148//106 147//106
f 145//107 146//107 153//107 152//107
f 152//108 153//108 154//108 151//108
f 151//109 154//109 155//109 150//109
f 150//110 155//110 156//110 149//110
o 平面.010
v 0.719852 -4.996914 1.067339
v 0.959975 -4.971513 1.386237
v 1.039913 -0.000000 0.829786
v 0.639913 -0.000000 0.829786
v 0.930573 -1.009527 0.680400
v 0.643584 -2.000975 0.893552
v 0.857234 -2.972279 1.228132
v 1.026717 -3.995244 1.064027
v 0.653110 -3.980815 1.205852
v 0.822593 -3.013998 0.831824
v 1.036243 -1.994191 0.969530
v 0.749254 -0.990253 1.036422
vn -0.5227 -0.0244 -0.8522
vn -0.9608 -0.0255 -0.2762
vn 0.5312 -0.0889 -0.8426
vn 0.6690 0.0731 0.7397
vn -0.8986 0.0321 0.4377
s 0
f 161//111 168//111 160//111 159//111
f 157//112 158//112 165//112 164//112
f 164//113 165//113 166//113 163//113
f 163//114 166//114 167//114 162//114
f 162//115 167//115 168//115 161//115
o 平面.011
v -1.308364 -4.916526 0.700968
v -1.068240 -4.847429 1.013324
v -0.988302 -0.000000 -0.222807
v -1.388302 -0.000000 -0.222807
v -1.097643 -1.025553 -0.320530
v -1.384632 -1.990900 0.019121
v -1.170981 -2.892093 0.514673
v -1.001499 -3.930002 0.539320
v -1.375105 -3.891109 0.675874
v -1.205623 -3.004759 0.132434
v -0.991972 -1.972439 0.093133
v -1.278962 -0.972714 0.032077
vn -0.5219 -0.0669 -0.8504
vn -0.9607 -0.0691 -0.2690
vn 0.5320 -0.2397 -0.8121
vn 0.6689 0.1982 0.7164
vn -0.8984 0.0878 0.4304
s 0
f 173//116 180//116 172//116 171//116
f 169//117 170//117 177//117 176//117
f 176//118 177//118 178//118 175//118
f 175//119 178//119 179//119 174//119
f 174//120 179//120 180//120 173//120
