# Blender 4.4.3
# www.blender.org
o ICO球
v -1.447215 -0.304170 -1.051451
v 0.552776 -0.304171 -1.701298
v 1.788852 -0.304164 -0.000000
v 0.552776 -0.304171 1.701298
v -1.447215 -0.304170 1.051451
v -0.552776 0.666966 -1.701298
v 1.447215 0.666965 -1.051451
v 1.447215 0.666965 1.051451
v -0.552776 0.666966 1.701298
v -1.788852 0.666960 -0.000000
v -0.000000 1.491360 -0.000000
v -0.525738 -0.421269 -1.618023
v -1.701296 -0.421266 -0.000000
v 1.376379 -0.421267 -0.999994
v 1.376379 -0.421267 0.999994
v -0.525738 -0.421269 1.618023
v -1.902116 -0.000000 -0.618025
v -1.902116 -0.000000 0.618025
v -0.000000 -0.000000 -2.000000
v -1.175571 -0.000000 -1.618033
v 1.902116 -0.000000 -0.618025
v 1.175571 -0.000000 -1.618033
v 1.175571 -0.000000 1.618033
v 1.902116 -0.000000 0.618025
v -1.175571 -0.000000 1.618033
v -0.000000 -0.000000 2.000000
v -1.376379 0.784062 -0.999994
v 0.525738 0.784064 -1.618023
v 1.701296 0.784062 -0.000000
v 0.525738 0.784064 1.618023
v -1.376379 0.784062 0.999994
v -0.324911 1.268632 -0.999991
v -1.051460 1.268628 -0.000000
v 0.850645 1.268632 -0.618023
v 0.850645 1.268632 0.618023
v -0.324911 1.268632 0.999991
vn -0.6882 -0.6838 -0.2425
vn 0.0179 -0.6838 -0.7295
vn 0.6993 -0.6838 -0.2084
vn 0.4143 -0.6838 0.6007
vn -0.4433 -0.6838 0.5796
vn -0.7582 -0.3490 -0.5508
vn 0.2896 -0.3490 -0.8913
vn 0.9371 -0.3490 -0.0000
vn 0.2896 -0.3490 0.8913
vn -0.7582 -0.3490 0.5508
vn -0.3520 0.7638 -0.5409
vn 0.4057 0.7638 -0.5019
vn 0.6027 0.7638 0.2307
vn -0.0332 0.7638 0.6445
vn -0.6233 0.7638 0.1676
vn -0.2049 0.9674 0.1489
vn -0.4004 0.8689 0.2909
vn -0.3520 0.7638 0.5409
vn 0.0783 0.9674 0.2409
vn 0.1530 0.8689 0.4707
vn 0.4057 0.7638 0.5019
vn 0.2533 0.9674 -0.0000
vn 0.4950 0.8689 -0.0000
vn 0.6027 0.7638 -0.2307
vn 0.0783 0.9674 -0.2409
vn 0.1530 0.8689 -0.4707
vn -0.0332 0.7638 -0.6445
vn -0.2049 0.9674 -0.1489
vn -0.4004 0.8689 -0.2909
vn -0.6233 0.7638 -0.1676
vn -0.8533 0.4249 0.3022
vn -0.7837 0.2481 0.5694
vn -0.5511 0.4249 0.7181
vn 0.0237 0.4249 0.9049
vn 0.2994 0.2481 0.9213
vn 0.5127 0.4249 0.7460
vn 0.8680 0.4249 0.2571
vn 0.9687 0.2481 -0.0000
vn 0.8680 0.4249 -0.2571
vn 0.5127 0.4249 -0.7460
vn 0.2994 0.2481 -0.9213
vn 0.0237 0.4249 -0.9049
vn -0.5511 0.4249 -0.7181
vn -0.7837 0.2481 -0.5694
vn -0.8533 0.4249 -0.3022
vn -0.3047 0.1674 0.9376
vn -0.2789 -0.4303 0.8585
vn 0.0179 -0.6838 0.7295
vn 0.7976 0.1674 0.5795
vn 0.7303 -0.4303 0.5306
vn 0.6993 -0.6838 0.2084
vn 0.7976 0.1674 -0.5795
vn 0.7303 -0.4303 -0.5306
vn 0.4143 -0.6838 -0.6007
vn -0.3047 0.1674 -0.9376
vn -0.2789 -0.4303 -0.8585
vn -0.4433 -0.6838 -0.5796
vn -0.9859 0.1674 -0.0000
vn -0.9027 -0.4303 -0.0000
vn -0.6882 -0.6838 0.2425
s 0
f 1//1 13//1 17//1
f 2//2 12//2 19//2
f 3//3 14//3 21//3
f 4//4 15//4 23//4
f 5//5 16//5 25//5
f 1//6 17//6 20//6
f 2//7 19//7 22//7
f 3//8 21//8 24//8
f 4//9 23//9 26//9
f 5//10 25//10 18//10
f 6//11 27//11 32//11
f 7//12 28//12 34//12
f 8//13 29//13 35//13
f 9//14 30//14 36//14
f 10//15 31//15 33//15
f 33//16 36//16 11//16
f 33//17 31//17 36//17
f 31//18 9//18 36//18
f 36//19 35//19 11//19
f 36//20 30//20 35//20
f 30//21 8//21 35//21
f 35//22 34//22 11//22
f 35//23 29//23 34//23
f 29//24 7//24 34//24
f 34//25 32//25 11//25
f 34//26 28//26 32//26
f 28//27 6//27 32//27
f 32//28 33//28 11//28
f 32//29 27//29 33//29
f 27//30 10//30 33//30
f 18//31 31//31 10//31
f 18//32 25//32 31//32
f 25//33 9//33 31//33
f 26//34 30//34 9//34
f 26//35 23//35 30//35
f 23//36 8//36 30//36
f 24//37 29//37 8//37
f 24//38 21//38 29//38
f 21//39 7//39 29//39
f 22//40 28//40 7//40
f 22//41 19//41 28//41
f 19//42 6//42 28//42
f 20//43 27//43 6//43
f 20//44 17//44 27//44
f 17//45 10//45 27//45
f 25//46 26//46 9//46
f 25//47 16//47 26//47
f 16//48 4//48 26//48
f 23//49 24//49 8//49
f 23//50 15//50 24//50
f 15//51 3//51 24//51
f 21//52 22//52 7//52
f 21//53 14//53 22//53
f 14//54 2//54 22//54
f 19//55 20//55 6//55
f 19//56 12//56 20//56
f 12//57 1//57 20//57
f 17//58 18//58 10//58
f 17//59 13//59 18//59
f 13//60 5//60 18//60
o 平面
v -0.120062 -4.965394 0.608644
v 0.120062 -4.916339 0.924768
v 0.200000 -0.000000 -0.000000
v -0.200000 -0.000000 -0.000000
v 0.090659 -1.018251 -0.121796
v -0.196330 -1.997441 0.159581
v 0.017321 -2.934076 0.582317
v 0.186803 -3.969061 0.519659
v -0.186803 -3.941311 0.659172
v -0.017321 -3.014398 0.191999
v 0.196330 -1.984337 0.234727
v -0.090659 -0.980906 0.232786
vn -0.5224 -0.0473 -0.8514
vn -0.9607 -0.0491 -0.2732
vn 0.5316 -0.1710 -0.8295
vn 0.6689 0.1410 0.7298
vn -0.8985 0.0621 0.4346
s 0
f 41//61 48//61 40//61 39//61
f 37//62 38//62 45//62 44//62
f 44//63 45//63 46//63 43//63
f 43//64 46//64 47//64 42//64
f 42//65 47//65 48//65 41//65
o 平面.001
v 0.698453 -4.950109 0.936497
v 0.938576 -4.893807 1.251412
v 1.018514 -0.000000 0.213996
v 0.618514 -0.000000 0.213996
v 0.909174 -1.020900 0.100821
v 0.622185 -1.995465 0.403204
v 0.835835 -2.919936 0.852471
v 1.005318 -3.956757 0.821248
v 0.631711 -3.924960 0.959797
v 0.801193 -3.011998 0.464753
v 1.014844 -1.980425 0.477986
v 0.727855 -0.977976 0.454772
vn -0.5222 -0.0543 -0.8511
vn -0.9607 -0.0564 -0.2718
vn 0.5318 -0.1960 -0.8239
vn 0.6689 0.1617 0.7255
vn -0.8985 0.0714 0.4332
s 0
f 53//66 60//66 52//66 51//66
f 49//67 50//67 57//67 56//67
f 56//68 57//68 58//68 55//68
f 55//69 58//69 59//69 54//69
f 54//70 59//70 60//70 53//70
o 平面.002
v -1.037918 -4.374657 2.786106
v -0.797795 -4.210618 3.060755
v -0.717856 -0.000000 0.359593
v -1.117856 -0.000000 0.359593
v -0.827197 -1.058904 0.390547
v -1.114186 -1.903098 1.019431
v -0.900536 -2.553812 1.832028
v -0.731053 -3.506771 2.280145
v -1.104660 -3.418370 2.389739
v -0.935177 -2.810452 1.527174
v -0.721527 -1.859329 1.081903
v -1.008516 -0.927651 0.722053
vn -0.5165 -0.1663 -0.8399
vn -0.9603 -0.1614 -0.2276
vn 0.5338 -0.5438 -0.6476
vn 0.6688 0.4591 0.5847
vn -0.8972 0.2148 0.3858
s 0
f 65//71 72//71 64//71 63//71
f 61//72 62//72 69//72 68//72
f 68//73 69//73 70//73 67//73
f 67//74 70//74 71//74 66//74
f 66//75 71//75 72//75 65//75
o 平面.003
v 0.099369 -4.837419 0.222600
v 0.339492 -4.746051 0.529183
v 0.419431 -0.000000 -1.052142
v 0.019431 -0.000000 -1.052142
v 0.310090 -1.033579 -1.122160
v 0.023101 -1.979467 -0.716951
v 0.236752 -2.834562 -0.142646
v 0.406234 -3.867645 -0.019827
v 0.032627 -3.816586 0.112351
v 0.202110 -2.982593 -0.512628
v 0.415760 -1.955052 -0.644684
v 0.128771 -0.963226 -0.772627
vn -0.5211 -0.0891 -0.8488
vn -0.9606 -0.0912 -0.2626
vn 0.5325 -0.3147 -0.7858
vn 0.6689 0.2611 0.6960
vn -0.8982 0.1166 0.4238
s 0
f 77//76 84//76 76//76 75//76
f 73//77 74//77 81//77 80//77
f 80//78 81//78 82//78 79//78
f 79//79 82//79 83//79 78//79
f 78//80 83//80 84//80 77//80
o 平面.004
v -0.024975 -4.705613 2.762401
v 0.215148 -4.587469 3.059693
v 0.295087 -0.000000 1.064520
v -0.104913 -0.000000 1.064520
v 0.185746 -1.043096 1.029504
v -0.101243 -1.959136 1.515105
v 0.112407 -2.749006 2.180799
v 0.281890 -3.764531 2.422849
v -0.091717 -3.699232 2.548221
v 0.077766 -2.938468 1.830223
v 0.291416 -1.927565 1.584545
v 0.004427 -0.951109 1.373978
vn -0.5199 -0.1165 -0.8463
vn -0.9605 -0.1174 -0.2524
vn 0.5330 -0.4023 -0.7444
vn 0.6689 0.3357 0.6633
vn -0.8979 0.1520 0.4131
s 0
f 89//81 96//81 88//81 87//81
f 85//82 86//82 93//82 92//82
f 92//83 93//83 94//83 91//83
f 91//84 94//84 95//84 90//84
f 90//85 95//85 96//85 89//85
o 平面.005
v -0.744595 -4.932265 0.334923
v -0.504472 -4.868766 0.648465
v -0.424534 -0.000000 -0.500752
v -0.824534 -0.000000 -0.500752
v -0.533874 -1.023521 -0.605274
v -0.820863 -1.993070 -0.281960
v -0.607213 -2.904732 0.193430
v -0.437730 -3.942506 0.193579
v -0.811337 -3.906709 0.331052
v -0.641854 -3.008405 -0.191344
v -0.428204 -1.976105 -0.207590
v -0.715193 -0.975031 -0.252043
vn -0.5220 -0.0614 -0.8507
vn -0.9607 -0.0635 -0.2703
vn 0.5319 -0.2207 -0.8175
vn 0.6689 0.1823 0.7206
vn -0.8984 0.0806 0.4317
s 0
f 101//86 108//86 100//86 99//86
f 97//87 98//87 105//87 104//87
f 104//88 105//88 106//88 103//88
f 103//89 106//89 107//89 102//89
f 102//90 107//90 108//90 101//90
o 平面.006
v 0.847684 -4.799467 0.949558
v 1.087807 -4.699472 1.253436
v 1.167746 -0.000000 -0.461367
v 0.767746 -0.000000 -0.461367
v 1.058405 -1.036662 -0.520331
v 0.771416 -1.973754 -0.089432
v 0.985067 -2.809032 0.514727
v 1.154549 -3.837891 0.675837
v 0.780942 -3.782193 0.806008
v 0.950425 -2.970556 0.150433
v 1.164075 -1.947032 -0.017986
v 0.877086 -0.959418 -0.172255
vn -0.5208 -0.0978 -0.8481
vn -0.9605 -0.0997 -0.2597
vn 0.5326 -0.3433 -0.7736
vn 0.6689 0.2853 0.6864
vn -0.8981 0.1279 0.4207
s 0
f 113//91 120//91 112//91 111//91
f 109//92 110//92 117//92 116//92
f 116//93 117//93 118//93 115//93
f 115//94 118//94 119//94 114//94
f 114//95 119//95 120//95 113//95
o 平面.007
v 0.139880 -4.423294 1.865181
v 0.380003 -4.264898 2.143123
v 0.459941 -0.000000 -0.471495
v 0.059941 -0.000000 -0.471495
v 0.350601 -1.057010 -0.449163
v 0.063611 -1.911719 0.161656
v 0.277262 -2.581581 0.956950
v 0.446744 -3.544616 1.379676
v 0.073138 -3.458949 1.491504
v 0.242620 -2.830280 0.645584
v 0.456271 -1.869441 0.225147
v 0.169282 -0.930775 -0.115714
vn -0.5171 -0.1599 -0.8409
vn -0.9603 -0.1560 -0.2312
vn 0.5337 -0.5271 -0.6613
vn 0.6688 0.4443 0.5960
vn -0.8973 0.2069 0.3899
s 0
f 125//96 132//96 124//96 123//96
f 121//97 122//97 129//97 128//97
f 128//98 129//98 130//98 127//98
f 127//99 130//99 131//99 126//99
f 126//100 131//100 132//100 125//100
o 平面.008
v -0.395757 -4.728290 2.087154
v -0.155634 -4.614205 2.386028
v -0.075695 -0.000000 0.453490
v -0.475695 -0.000000 0.453490
v -0.185036 -1.041665 0.413032
v -0.472025 -1.962732 0.886320
v -0.258374 -2.763197 1.538409
v -0.088892 -3.782236 1.762321
v -0.462498 -3.719063 1.888835
v -0.293016 -2.946469 1.184557
v -0.079365 -1.932245 0.956243
v -0.366355 -0.953006 0.758377
vn -0.5201 -0.1122 -0.8467
vn -0.9605 -0.1135 -0.2541
vn 0.5329 -0.3892 -0.7513
vn 0.6689 0.3245 0.6688
vn -0.8980 0.1466 0.4149
s 0
f 137//101 144//101 136//101 135//101
f 133//102 134//102 141//102 140//102
f 140//103 141//103 142//103 139//103
f 139//104 142//104 143//104 138//104
f 138//105 143//105 144//105 137//105
o 平面.009
v -0.687768 -4.936745 -0.322128
v -0.447645 -4.874957 -0.008244
v -0.367707 -0.000000 -1.130912
v -0.767707 -0.000000 -1.130912
v -0.477047 -1.022899 -1.237499
v -0.764036 -1.993678 -0.919164
v -0.550386 -2.908448 -0.449957
v -0.380903 -3.946075 -0.457273
v -0.754510 -3.911227 -0.319534
v -0.585028 -3.009369 -0.835464
v -0.371377 -1.977171 -0.844691
v -0.658366 -0.975735 -0.884088
vn -0.5221 -0.0597 -0.8508
vn -0.9607 -0.0618 -0.2707
vn 0.5319 -0.2148 -0.8191
vn 0.6689 0.1774 0.7218
vn -0.8984 0.0784 0.4321
s 0
f 149//106 156//106 148//106 147//106
f 145//107 146//107 153//107 152//107
f 152//108 153//108 154//108 151//108
f 151//109 154//109 155//109 150//109
f 150//110 155//110 156//110 149//110
o 平面.010
v 0.719852 -5.002249 0.885365
v 0.959975 -4.988469 1.204976
v 1.039913 -0.000000 0.829786
v 0.639913 -0.000000 0.829786
v 0.930573 -1.005192 0.667103
v 0.643584 -2.001131 0.846846
v 0.857234 -2.986658 1.137281
v 1.026717 -4.000395 0.924086
v 0.653110 -3.992557 1.066581
v 0.822593 -3.009310 0.739428
v 1.036243 -1.997451 0.923037
v 0.749254 -0.994745 1.023494
vn -0.5228 -0.0132 -0.8524
vn -0.9608 -0.0138 -0.2769
vn 0.5309 -0.0483 -0.8460
vn 0.6690 0.0397 0.7422
vn -0.8986 0.0174 0.4384
s 0
f 161//111 168//111 160//111 159//111
f 157//112 158//112 165//112 164//112
f 164//113 165//113 166//113 163//113
f 163//114 166//114 167//114 162//114
f 162//115 167//115 168//115 161//115
o 平面.011
v -1.308364 -4.884871 0.855907
v -1.068241 -4.805935 1.165923
v -0.988302 -0.000000 -0.222807
v -1.388302 -0.000000 -0.222807
v -1.097643 -1.029110 -0.308428
v -1.384632 -1.986416 0.060061
v -1.170981 -2.868131 0.590694
v -1.001499 -3.904974 0.658577
v -1.375105 -3.860676 0.793339
v -1.205623 -2.996506 0.213441
v -0.991972 -1.965325 0.133367
v -1.278962 -0.968579 0.042940
vn -0.5216 -0.0766 -0.8497
vn -0.9606 -0.0789 -0.2664
vn 0.5322 -0.2731 -0.8014
vn 0.6689 0.2261 0.7081
vn -0.8983 0.1005 0.4277
s 0
f 173//116 180//116 172//116 171//116
f 169//117 170//117 177//117 176//117
f 176//118 177//118 178//118 175//118
f 175//119 178//119 179//119 174//119
f 174//120 179//120 180//120 173//120
